G04 #@! TF.GenerationSoftware,KiCad,Pcbnew,(5.0.2)-1*
G04 #@! TF.CreationDate,2019-03-25T23:00:56+03:00*
G04 #@! TF.ProjectId,Mechanical Keyboard,4d656368-616e-4696-9361-6c204b657962,rev?*
G04 #@! TF.SameCoordinates,Original*
G04 #@! TF.FileFunction,Other,User*
%FSLAX46Y46*%
G04 Gerber Fmt 4.6, Leading zero omitted, Abs format (unit mm)*
G04 Created by KiCad (PCBNEW (5.0.2)-1) date 25.03.2019 23:00:56*
%MOMM*%
%LPD*%
G01*
G04 APERTURE LIST*
%ADD10C,0.050000*%
G04 APERTURE END LIST*
D10*
G04 #@! TO.C,U1*
X373730000Y-134778000D02*
X360330000Y-134778000D01*
X373730000Y-148178000D02*
X360330000Y-148178000D01*
X373730000Y-134778000D02*
X373730000Y-148178000D01*
X360330000Y-134778000D02*
X360330000Y-148178000D01*
G04 #@! TO.C,U2*
X338770000Y-149160000D02*
X343970000Y-149160000D01*
X338770000Y-143960000D02*
X343970000Y-143960000D01*
X338770000Y-149160000D02*
X338770000Y-143960000D01*
X343970000Y-149160000D02*
X343970000Y-143960000D01*
G04 #@! TO.C,C2*
X343260800Y-132317600D02*
X347760800Y-132317600D01*
X343260800Y-132317600D02*
X343260800Y-134067600D01*
X347760800Y-134067600D02*
X347760800Y-132317600D01*
X347760800Y-134067600D02*
X343260800Y-134067600D01*
G04 #@! TO.C,C3*
X360243000Y-133976000D02*
X355743000Y-133976000D01*
X360243000Y-133976000D02*
X360243000Y-132226000D01*
X355743000Y-132226000D02*
X355743000Y-133976000D01*
X355743000Y-132226000D02*
X360243000Y-132226000D01*
G04 #@! TO.C,C5*
X346258000Y-143823800D02*
X350758000Y-143823800D01*
X346258000Y-143823800D02*
X346258000Y-145573800D01*
X350758000Y-145573800D02*
X350758000Y-143823800D01*
X350758000Y-145573800D02*
X346258000Y-145573800D01*
G04 #@! TO.C,R4*
X378651000Y-150807000D02*
X373951000Y-150807000D01*
X378651000Y-150807000D02*
X378651000Y-149007000D01*
X373951000Y-149007000D02*
X373951000Y-150807000D01*
X373951000Y-149007000D02*
X378651000Y-149007000D01*
G04 #@! TO.C,R9*
X356859000Y-149289000D02*
X356859000Y-144589000D01*
X356859000Y-149289000D02*
X358659000Y-149289000D01*
X358659000Y-144589000D02*
X356859000Y-144589000D01*
X358659000Y-144589000D02*
X358659000Y-149289000D01*
G04 #@! TO.C,R10*
X340852000Y-134173800D02*
X336152000Y-134173800D01*
X340852000Y-134173800D02*
X340852000Y-132373800D01*
X336152000Y-132373800D02*
X336152000Y-134173800D01*
X336152000Y-132373800D02*
X340852000Y-132373800D01*
G04 #@! TO.C,R12*
X350885000Y-153046000D02*
X346185000Y-153046000D01*
X350885000Y-153046000D02*
X350885000Y-151246000D01*
X346185000Y-151246000D02*
X346185000Y-153046000D01*
X346185000Y-151246000D02*
X350885000Y-151246000D01*
G04 #@! TO.C,R13*
X350885000Y-155230400D02*
X346185000Y-155230400D01*
X350885000Y-155230400D02*
X350885000Y-153430400D01*
X346185000Y-153430400D02*
X346185000Y-155230400D01*
X346185000Y-153430400D02*
X350885000Y-153430400D01*
G04 #@! TO.C,REF\002A\002A*
X383434000Y-82804000D02*
G75*
G03X383434000Y-82804000I-3450000J0D01*
G01*
X383688000Y-180467000D02*
G75*
G03X383688000Y-180467000I-3450000J0D01*
G01*
X47773000Y-180403500D02*
G75*
G03X47773000Y-180403500I-3450000J0D01*
G01*
X47582500Y-82677000D02*
G75*
G03X47582500Y-82677000I-3450000J0D01*
G01*
X154262500Y-140779500D02*
G75*
G03X154262500Y-140779500I-3450000J0D01*
G01*
X250084000Y-139001500D02*
G75*
G03X250084000Y-139001500I-3450000J0D01*
G01*
G04 #@! TD*
M02*
