G04 #@! TF.GenerationSoftware,KiCad,Pcbnew,(5.0.2)-1*
G04 #@! TF.CreationDate,2019-03-25T23:00:56+03:00*
G04 #@! TF.ProjectId,Mechanical Keyboard,4d656368-616e-4696-9361-6c204b657962,rev?*
G04 #@! TF.SameCoordinates,Original*
G04 #@! TF.FileFunction,Paste,Top*
G04 #@! TF.FilePolarity,Positive*
%FSLAX46Y46*%
G04 Gerber Fmt 4.6, Leading zero omitted, Abs format (unit mm)*
G04 Created by KiCad (PCBNEW (5.0.2)-1) date 25.03.2019 23:00:56*
%MOMM*%
%LPD*%
G01*
G04 APERTURE LIST*
%ADD10R,0.550000X1.500000*%
%ADD11R,1.500000X0.550000*%
%ADD12R,1.800000X1.400000*%
%ADD13R,0.200000X0.800000*%
%ADD14R,0.800000X0.200000*%
%ADD15R,0.720000X0.720000*%
%ADD16R,1.399540X1.150620*%
%ADD17R,1.500000X1.250000*%
%ADD18R,1.500000X1.300000*%
%ADD19R,1.300000X1.500000*%
G04 APERTURE END LIST*
D10*
G04 #@! TO.C,U1*
X371030000Y-135778000D03*
X370230000Y-135778000D03*
X369430000Y-135778000D03*
X368630000Y-135778000D03*
X367830000Y-135778000D03*
X367030000Y-135778000D03*
X366230000Y-135778000D03*
X365430000Y-135778000D03*
X364630000Y-135778000D03*
X363830000Y-135778000D03*
X363030000Y-135778000D03*
D11*
X361330000Y-137478000D03*
X361330000Y-138278000D03*
X361330000Y-139078000D03*
X361330000Y-139878000D03*
X361330000Y-140678000D03*
X361330000Y-141478000D03*
X361330000Y-142278000D03*
X361330000Y-143078000D03*
X361330000Y-143878000D03*
X361330000Y-144678000D03*
X361330000Y-145478000D03*
D10*
X363030000Y-147178000D03*
X363830000Y-147178000D03*
X364630000Y-147178000D03*
X365430000Y-147178000D03*
X366230000Y-147178000D03*
X367030000Y-147178000D03*
X367830000Y-147178000D03*
X368630000Y-147178000D03*
X369430000Y-147178000D03*
X370230000Y-147178000D03*
X371030000Y-147178000D03*
D11*
X372730000Y-145478000D03*
X372730000Y-144678000D03*
X372730000Y-143878000D03*
X372730000Y-143078000D03*
X372730000Y-142278000D03*
X372730000Y-141478000D03*
X372730000Y-140678000D03*
X372730000Y-139878000D03*
X372730000Y-139078000D03*
X372730000Y-138278000D03*
X372730000Y-137478000D03*
G04 #@! TD*
D12*
G04 #@! TO.C,LED101*
X366855219Y-80341015D03*
X366855219Y-83641015D03*
X371655219Y-83641015D03*
X371655219Y-80341015D03*
G04 #@! TD*
G04 #@! TO.C,LED102*
X290105457Y-80146024D03*
X290105457Y-83446024D03*
X294905457Y-83446024D03*
X294905457Y-80146024D03*
G04 #@! TD*
G04 #@! TO.C,LED103*
X207386411Y-80225023D03*
X207386411Y-83525023D03*
X212186411Y-83525023D03*
X212186411Y-80225023D03*
G04 #@! TD*
G04 #@! TO.C,LED104*
X129654258Y-80324845D03*
X129654258Y-83624845D03*
X134454258Y-83624845D03*
X134454258Y-80324845D03*
G04 #@! TD*
G04 #@! TO.C,LED105*
X50227065Y-80517126D03*
X50227065Y-83817126D03*
X55027065Y-83817126D03*
X55027065Y-80517126D03*
G04 #@! TD*
G04 #@! TO.C,LED106*
X57766689Y-182973132D03*
X57766689Y-179673132D03*
X52966689Y-179673132D03*
X52966689Y-182973132D03*
G04 #@! TD*
G04 #@! TO.C,LED107*
X133850000Y-182921000D03*
X133850000Y-179621000D03*
X129050000Y-179621000D03*
X129050000Y-182921000D03*
G04 #@! TD*
G04 #@! TO.C,LED108*
X214375000Y-182921000D03*
X214375000Y-179621000D03*
X209575000Y-179621000D03*
X209575000Y-182921000D03*
G04 #@! TD*
G04 #@! TO.C,LED109*
X295650000Y-183132000D03*
X295650000Y-179832000D03*
X290850000Y-179832000D03*
X290850000Y-183132000D03*
G04 #@! TD*
G04 #@! TO.C,LED110*
X371348000Y-182880000D03*
X371348000Y-179580000D03*
X366548000Y-179580000D03*
X366548000Y-182880000D03*
G04 #@! TD*
D13*
G04 #@! TO.C,U2*
X340170000Y-148510000D03*
X340570000Y-148510000D03*
X340970000Y-148510000D03*
X341370000Y-148510000D03*
X341770000Y-148510000D03*
X342170000Y-148510000D03*
X342570000Y-148510000D03*
D14*
X343320000Y-147760000D03*
X343320000Y-147360000D03*
X343320000Y-146960000D03*
X343320000Y-146560000D03*
X343320000Y-146160000D03*
X343320000Y-145760000D03*
X343320000Y-145360000D03*
D13*
X342570000Y-144610000D03*
X342170000Y-144610000D03*
X341770000Y-144610000D03*
X341370000Y-144610000D03*
X340970000Y-144610000D03*
X340570000Y-144610000D03*
X340170000Y-144610000D03*
D14*
X339420000Y-145360000D03*
X339420000Y-145760000D03*
X339420000Y-146160000D03*
X339420000Y-146560000D03*
X339420000Y-146960000D03*
X339420000Y-147360000D03*
X339420000Y-147760000D03*
D15*
X341970000Y-145960000D03*
X340770000Y-145960000D03*
X341970000Y-147160000D03*
X340770000Y-147160000D03*
G04 #@! TD*
D16*
G04 #@! TO.C,X1*
X350774000Y-132334000D03*
X352973640Y-132334000D03*
X350774000Y-133934200D03*
X352973640Y-133934200D03*
G04 #@! TD*
D17*
G04 #@! TO.C,C2*
X344260800Y-133197600D03*
X346760800Y-133197600D03*
G04 #@! TD*
G04 #@! TO.C,C3*
X359243000Y-133096000D03*
X356743000Y-133096000D03*
G04 #@! TD*
G04 #@! TO.C,C5*
X347258000Y-144703800D03*
X349758000Y-144703800D03*
G04 #@! TD*
D18*
G04 #@! TO.C,R4*
X377651000Y-149907000D03*
X374951000Y-149907000D03*
G04 #@! TD*
D19*
G04 #@! TO.C,R9*
X357759000Y-148289000D03*
X357759000Y-145589000D03*
G04 #@! TD*
D18*
G04 #@! TO.C,R10*
X339852000Y-133273800D03*
X337152000Y-133273800D03*
G04 #@! TD*
G04 #@! TO.C,R12*
X349885000Y-152146000D03*
X347185000Y-152146000D03*
G04 #@! TD*
G04 #@! TO.C,R13*
X349885000Y-154330400D03*
X347185000Y-154330400D03*
G04 #@! TD*
M02*
