G04 #@! TF.GenerationSoftware,KiCad,Pcbnew,(5.0.2)-1*
G04 #@! TF.CreationDate,2019-03-25T23:00:56+03:00*
G04 #@! TF.ProjectId,Mechanical Keyboard,4d656368-616e-4696-9361-6c204b657962,rev?*
G04 #@! TF.SameCoordinates,Original*
G04 #@! TF.FileFunction,Other,User*
%FSLAX46Y46*%
G04 Gerber Fmt 4.6, Leading zero omitted, Abs format (unit mm)*
G04 Created by KiCad (PCBNEW (5.0.2)-1) date 25.03.2019 23:00:56*
%MOMM*%
%LPD*%
G01*
G04 APERTURE LIST*
%ADD10C,0.050000*%
G04 APERTURE END LIST*
D10*
G04 #@! TO.C,C101*
X368375219Y-79782015D02*
X368375219Y-84282015D01*
X368375219Y-79782015D02*
X370125219Y-79782015D01*
X370125219Y-84282015D02*
X368375219Y-84282015D01*
X370125219Y-84282015D02*
X370125219Y-79782015D01*
G04 #@! TO.C,D57*
X285306000Y-122054000D02*
X290006000Y-122054000D01*
X290006000Y-122054000D02*
X290006000Y-119754000D01*
X290006000Y-119754000D02*
X285306000Y-119754000D01*
X285306000Y-122054000D02*
X285306000Y-119754000D01*
G04 #@! TO.C,D52*
X266510000Y-122054000D02*
X271210000Y-122054000D01*
X271210000Y-122054000D02*
X271210000Y-119754000D01*
X271210000Y-119754000D02*
X266510000Y-119754000D01*
X266510000Y-122054000D02*
X266510000Y-119754000D01*
G04 #@! TO.C,D43*
X228156000Y-121800000D02*
X232856000Y-121800000D01*
X232856000Y-121800000D02*
X232856000Y-119500000D01*
X232856000Y-119500000D02*
X228156000Y-119500000D01*
X228156000Y-121800000D02*
X228156000Y-119500000D01*
G04 #@! TO.C,D35*
X190182000Y-122054000D02*
X194882000Y-122054000D01*
X194882000Y-122054000D02*
X194882000Y-119754000D01*
X194882000Y-119754000D02*
X190182000Y-119754000D01*
X190182000Y-122054000D02*
X190182000Y-119754000D01*
G04 #@! TO.C,D22*
X133160000Y-122054000D02*
X137860000Y-122054000D01*
X137860000Y-122054000D02*
X137860000Y-119754000D01*
X137860000Y-119754000D02*
X133160000Y-119754000D01*
X133160000Y-122054000D02*
X133160000Y-119754000D01*
G04 #@! TO.C,D1*
X47308000Y-103004000D02*
X52008000Y-103004000D01*
X52008000Y-103004000D02*
X52008000Y-100704000D01*
X52008000Y-100704000D02*
X47308000Y-100704000D01*
X47308000Y-103004000D02*
X47308000Y-100704000D01*
G04 #@! TO.C,D2*
X52134000Y-122054000D02*
X56834000Y-122054000D01*
X56834000Y-122054000D02*
X56834000Y-119754000D01*
X56834000Y-119754000D02*
X52134000Y-119754000D01*
X52134000Y-122054000D02*
X52134000Y-119754000D01*
G04 #@! TO.C,D3*
X53360000Y-137280000D02*
X58060000Y-137280000D01*
X58060000Y-137280000D02*
X58060000Y-134980000D01*
X58060000Y-134980000D02*
X53360000Y-134980000D01*
X53360000Y-137280000D02*
X53360000Y-134980000D01*
G04 #@! TO.C,D4*
X56690000Y-161350000D02*
X61390000Y-161350000D01*
X61390000Y-161350000D02*
X61390000Y-159050000D01*
X61390000Y-159050000D02*
X56690000Y-159050000D01*
X56690000Y-161350000D02*
X56690000Y-159050000D01*
G04 #@! TO.C,D5*
X49720000Y-178950000D02*
X54420000Y-178950000D01*
X54420000Y-178950000D02*
X54420000Y-176650000D01*
X54420000Y-176650000D02*
X49720000Y-176650000D01*
X49720000Y-178950000D02*
X49720000Y-176650000D01*
G04 #@! TO.C,D6*
X66356000Y-103004000D02*
X71056000Y-103004000D01*
X71056000Y-103004000D02*
X71056000Y-100704000D01*
X71056000Y-100704000D02*
X66356000Y-100704000D01*
X66356000Y-103004000D02*
X66356000Y-100704000D01*
G04 #@! TO.C,D7*
X76010000Y-122054000D02*
X80710000Y-122054000D01*
X80710000Y-122054000D02*
X80710000Y-119754000D01*
X80710000Y-119754000D02*
X76010000Y-119754000D01*
X76010000Y-122054000D02*
X76010000Y-119754000D01*
G04 #@! TO.C,D8*
X86980000Y-143260000D02*
X86980000Y-138560000D01*
X86980000Y-138560000D02*
X84680000Y-138560000D01*
X84680000Y-138560000D02*
X84680000Y-143260000D01*
X86980000Y-143260000D02*
X84680000Y-143260000D01*
G04 #@! TO.C,D9*
X90106000Y-160154000D02*
X94806000Y-160154000D01*
X94806000Y-160154000D02*
X94806000Y-157854000D01*
X94806000Y-157854000D02*
X90106000Y-157854000D01*
X90106000Y-160154000D02*
X90106000Y-157854000D01*
G04 #@! TO.C,D10*
X83248000Y-175126000D02*
X78548000Y-175126000D01*
X78548000Y-175126000D02*
X78548000Y-177426000D01*
X78548000Y-177426000D02*
X83248000Y-177426000D01*
X83248000Y-175126000D02*
X83248000Y-177426000D01*
G04 #@! TO.C,D11*
X85534000Y-103004000D02*
X90234000Y-103004000D01*
X90234000Y-103004000D02*
X90234000Y-100704000D01*
X90234000Y-100704000D02*
X85534000Y-100704000D01*
X85534000Y-103004000D02*
X85534000Y-100704000D01*
G04 #@! TO.C,D12*
X94932000Y-122054000D02*
X99632000Y-122054000D01*
X99632000Y-122054000D02*
X99632000Y-119754000D01*
X99632000Y-119754000D02*
X94932000Y-119754000D01*
X94932000Y-122054000D02*
X94932000Y-119754000D01*
G04 #@! TO.C,D13*
X99632000Y-141104000D02*
X104332000Y-141104000D01*
X104332000Y-141104000D02*
X104332000Y-138804000D01*
X104332000Y-138804000D02*
X99632000Y-138804000D01*
X99632000Y-141104000D02*
X99632000Y-138804000D01*
G04 #@! TO.C,D14*
X109156000Y-160154000D02*
X113856000Y-160154000D01*
X113856000Y-160154000D02*
X113856000Y-157854000D01*
X113856000Y-157854000D02*
X109156000Y-157854000D01*
X109156000Y-160154000D02*
X109156000Y-157854000D01*
G04 #@! TO.C,D15*
X104712000Y-175126000D02*
X100012000Y-175126000D01*
X100012000Y-175126000D02*
X100012000Y-177426000D01*
X100012000Y-177426000D02*
X104712000Y-177426000D01*
X104712000Y-175126000D02*
X104712000Y-177426000D01*
G04 #@! TO.C,D16*
X104202000Y-103004000D02*
X108902000Y-103004000D01*
X108902000Y-103004000D02*
X108902000Y-100704000D01*
X108902000Y-100704000D02*
X104202000Y-100704000D01*
X104202000Y-103004000D02*
X104202000Y-100704000D01*
G04 #@! TO.C,D17*
X113854000Y-122054000D02*
X118554000Y-122054000D01*
X118554000Y-122054000D02*
X118554000Y-119754000D01*
X118554000Y-119754000D02*
X113854000Y-119754000D01*
X113854000Y-122054000D02*
X113854000Y-119754000D01*
G04 #@! TO.C,D18*
X118682000Y-141104000D02*
X123382000Y-141104000D01*
X123382000Y-141104000D02*
X123382000Y-138804000D01*
X123382000Y-138804000D02*
X118682000Y-138804000D01*
X118682000Y-141104000D02*
X118682000Y-138804000D01*
G04 #@! TO.C,D19*
X128334000Y-159900000D02*
X133034000Y-159900000D01*
X133034000Y-159900000D02*
X133034000Y-157600000D01*
X133034000Y-157600000D02*
X128334000Y-157600000D01*
X128334000Y-159900000D02*
X128334000Y-157600000D01*
G04 #@! TO.C,D20*
X128334000Y-175126000D02*
X123634000Y-175126000D01*
X123634000Y-175126000D02*
X123634000Y-177426000D01*
X123634000Y-177426000D02*
X128334000Y-177426000D01*
X128334000Y-175126000D02*
X128334000Y-177426000D01*
G04 #@! TO.C,D21*
X123508000Y-103004000D02*
X128208000Y-103004000D01*
X128208000Y-103004000D02*
X128208000Y-100704000D01*
X128208000Y-100704000D02*
X123508000Y-100704000D01*
X123508000Y-103004000D02*
X123508000Y-100704000D01*
G04 #@! TO.C,D23*
X137732000Y-141104000D02*
X142432000Y-141104000D01*
X142432000Y-141104000D02*
X142432000Y-138804000D01*
X142432000Y-138804000D02*
X137732000Y-138804000D01*
X137732000Y-141104000D02*
X137732000Y-138804000D01*
G04 #@! TO.C,D24*
X153710000Y-162250000D02*
X153710000Y-157550000D01*
X153710000Y-157550000D02*
X151410000Y-157550000D01*
X151410000Y-157550000D02*
X151410000Y-162250000D01*
X153710000Y-162250000D02*
X151410000Y-162250000D01*
G04 #@! TO.C,D25*
X203646000Y-174976000D02*
X198946000Y-174976000D01*
X198946000Y-174976000D02*
X198946000Y-177276000D01*
X198946000Y-177276000D02*
X203646000Y-177276000D01*
X203646000Y-174976000D02*
X203646000Y-177276000D01*
G04 #@! TO.C,D26*
X142558000Y-103004000D02*
X147258000Y-103004000D01*
X147258000Y-103004000D02*
X147258000Y-100704000D01*
X147258000Y-100704000D02*
X142558000Y-100704000D01*
X142558000Y-103004000D02*
X142558000Y-100704000D01*
G04 #@! TO.C,D27*
X152210000Y-122054000D02*
X156910000Y-122054000D01*
X156910000Y-122054000D02*
X156910000Y-119754000D01*
X156910000Y-119754000D02*
X152210000Y-119754000D01*
X152210000Y-122054000D02*
X152210000Y-119754000D01*
G04 #@! TO.C,D28*
X156654000Y-141104000D02*
X161354000Y-141104000D01*
X161354000Y-141104000D02*
X161354000Y-138804000D01*
X161354000Y-138804000D02*
X156654000Y-138804000D01*
X156654000Y-141104000D02*
X156654000Y-138804000D01*
G04 #@! TO.C,D29*
X165474000Y-152464000D02*
X165474000Y-157164000D01*
X165474000Y-157164000D02*
X167774000Y-157164000D01*
X167774000Y-157164000D02*
X167774000Y-152464000D01*
X165474000Y-152464000D02*
X167774000Y-152464000D01*
G04 #@! TO.C,D30*
X161608000Y-102750000D02*
X166308000Y-102750000D01*
X166308000Y-102750000D02*
X166308000Y-100450000D01*
X166308000Y-100450000D02*
X161608000Y-100450000D01*
X161608000Y-102750000D02*
X161608000Y-100450000D01*
G04 #@! TO.C,D31*
X171260000Y-122054000D02*
X175960000Y-122054000D01*
X175960000Y-122054000D02*
X175960000Y-119754000D01*
X175960000Y-119754000D02*
X171260000Y-119754000D01*
X171260000Y-122054000D02*
X171260000Y-119754000D01*
G04 #@! TO.C,D32*
X175958000Y-141104000D02*
X180658000Y-141104000D01*
X180658000Y-141104000D02*
X180658000Y-138804000D01*
X180658000Y-138804000D02*
X175958000Y-138804000D01*
X175958000Y-141104000D02*
X175958000Y-138804000D01*
G04 #@! TO.C,D33*
X185484000Y-160154000D02*
X190184000Y-160154000D01*
X190184000Y-160154000D02*
X190184000Y-157854000D01*
X190184000Y-157854000D02*
X185484000Y-157854000D01*
X185484000Y-160154000D02*
X185484000Y-157854000D01*
G04 #@! TO.C,D34*
X180658000Y-103004000D02*
X185358000Y-103004000D01*
X185358000Y-103004000D02*
X185358000Y-100704000D01*
X185358000Y-100704000D02*
X180658000Y-100704000D01*
X180658000Y-103004000D02*
X180658000Y-100704000D01*
G04 #@! TO.C,D36*
X194882000Y-141104000D02*
X199582000Y-141104000D01*
X199582000Y-141104000D02*
X199582000Y-138804000D01*
X199582000Y-138804000D02*
X194882000Y-138804000D01*
X194882000Y-141104000D02*
X194882000Y-138804000D01*
G04 #@! TO.C,D37*
X204406000Y-160154000D02*
X209106000Y-160154000D01*
X209106000Y-160154000D02*
X209106000Y-157854000D01*
X209106000Y-157854000D02*
X204406000Y-157854000D01*
X204406000Y-160154000D02*
X204406000Y-157854000D01*
G04 #@! TO.C,D38*
X199708000Y-102750000D02*
X204408000Y-102750000D01*
X204408000Y-102750000D02*
X204408000Y-100450000D01*
X204408000Y-100450000D02*
X199708000Y-100450000D01*
X199708000Y-102750000D02*
X199708000Y-100450000D01*
G04 #@! TO.C,D39*
X209106000Y-122054000D02*
X213806000Y-122054000D01*
X213806000Y-122054000D02*
X213806000Y-119754000D01*
X213806000Y-119754000D02*
X209106000Y-119754000D01*
X209106000Y-122054000D02*
X209106000Y-119754000D01*
G04 #@! TO.C,D40*
X213804000Y-140850000D02*
X218504000Y-140850000D01*
X218504000Y-140850000D02*
X218504000Y-138550000D01*
X218504000Y-138550000D02*
X213804000Y-138550000D01*
X213804000Y-140850000D02*
X213804000Y-138550000D01*
G04 #@! TO.C,D41*
X223584000Y-160154000D02*
X228284000Y-160154000D01*
X228284000Y-160154000D02*
X228284000Y-157854000D01*
X228284000Y-157854000D02*
X223584000Y-157854000D01*
X223584000Y-160154000D02*
X223584000Y-157854000D01*
G04 #@! TO.C,D42*
X218758000Y-103004000D02*
X223458000Y-103004000D01*
X223458000Y-103004000D02*
X223458000Y-100704000D01*
X223458000Y-100704000D02*
X218758000Y-100704000D01*
X218758000Y-103004000D02*
X218758000Y-100704000D01*
G04 #@! TO.C,D44*
X233108000Y-141104000D02*
X237808000Y-141104000D01*
X237808000Y-141104000D02*
X237808000Y-138804000D01*
X237808000Y-138804000D02*
X233108000Y-138804000D01*
X233108000Y-141104000D02*
X233108000Y-138804000D01*
G04 #@! TO.C,D45*
X242970000Y-148540000D02*
X247670000Y-148540000D01*
X247670000Y-148540000D02*
X247670000Y-146240000D01*
X247670000Y-146240000D02*
X242970000Y-146240000D01*
X242970000Y-148540000D02*
X242970000Y-146240000D01*
G04 #@! TO.C,D46*
X237808000Y-103004000D02*
X242508000Y-103004000D01*
X242508000Y-103004000D02*
X242508000Y-100704000D01*
X242508000Y-100704000D02*
X237808000Y-100704000D01*
X237808000Y-103004000D02*
X237808000Y-100704000D01*
G04 #@! TO.C,D47*
X247206000Y-122054000D02*
X251906000Y-122054000D01*
X251906000Y-122054000D02*
X251906000Y-119754000D01*
X251906000Y-119754000D02*
X247206000Y-119754000D01*
X247206000Y-122054000D02*
X247206000Y-119754000D01*
G04 #@! TO.C,D48*
X252032000Y-141104000D02*
X256732000Y-141104000D01*
X256732000Y-141104000D02*
X256732000Y-138804000D01*
X256732000Y-138804000D02*
X252032000Y-138804000D01*
X252032000Y-141104000D02*
X252032000Y-138804000D01*
G04 #@! TO.C,D49*
X268796000Y-160154000D02*
X273496000Y-160154000D01*
X273496000Y-160154000D02*
X273496000Y-157854000D01*
X273496000Y-157854000D02*
X268796000Y-157854000D01*
X268796000Y-160154000D02*
X268796000Y-157854000D01*
G04 #@! TO.C,D50*
X268796000Y-175126000D02*
X264096000Y-175126000D01*
X264096000Y-175126000D02*
X264096000Y-177426000D01*
X264096000Y-177426000D02*
X268796000Y-177426000D01*
X268796000Y-175126000D02*
X268796000Y-177426000D01*
G04 #@! TO.C,D51*
X256858000Y-103004000D02*
X261558000Y-103004000D01*
X261558000Y-103004000D02*
X261558000Y-100704000D01*
X261558000Y-100704000D02*
X256858000Y-100704000D01*
X256858000Y-103004000D02*
X256858000Y-100704000D01*
G04 #@! TO.C,D53*
X271082000Y-140850000D02*
X275782000Y-140850000D01*
X275782000Y-140850000D02*
X275782000Y-138550000D01*
X275782000Y-138550000D02*
X271082000Y-138550000D01*
X271082000Y-140850000D02*
X271082000Y-138550000D01*
G04 #@! TO.C,D54*
X294958000Y-160154000D02*
X299658000Y-160154000D01*
X299658000Y-160154000D02*
X299658000Y-157854000D01*
X299658000Y-157854000D02*
X294958000Y-157854000D01*
X294958000Y-160154000D02*
X294958000Y-157854000D01*
G04 #@! TO.C,D55*
X287820000Y-175080000D02*
X283120000Y-175080000D01*
X283120000Y-175080000D02*
X283120000Y-177380000D01*
X283120000Y-177380000D02*
X287820000Y-177380000D01*
X287820000Y-175080000D02*
X287820000Y-177380000D01*
G04 #@! TO.C,D56*
X275908000Y-103004000D02*
X280608000Y-103004000D01*
X280608000Y-103004000D02*
X280608000Y-100704000D01*
X280608000Y-100704000D02*
X275908000Y-100704000D01*
X275908000Y-103004000D02*
X275908000Y-100704000D01*
G04 #@! TO.C,D58*
X302196000Y-141104000D02*
X306896000Y-141104000D01*
X306896000Y-141104000D02*
X306896000Y-138804000D01*
X306896000Y-138804000D02*
X302196000Y-138804000D01*
X302196000Y-141104000D02*
X302196000Y-138804000D01*
G04 #@! TO.C,D59*
X313880000Y-159900000D02*
X318580000Y-159900000D01*
X318580000Y-159900000D02*
X318580000Y-157600000D01*
X318580000Y-157600000D02*
X313880000Y-157600000D01*
X313880000Y-159900000D02*
X313880000Y-157600000D01*
G04 #@! TO.C,D60*
X307404000Y-173856000D02*
X302704000Y-173856000D01*
X302704000Y-173856000D02*
X302704000Y-176156000D01*
X302704000Y-176156000D02*
X307404000Y-176156000D01*
X307404000Y-173856000D02*
X307404000Y-176156000D01*
G04 #@! TO.C,D61*
X304356000Y-103004000D02*
X309056000Y-103004000D01*
X309056000Y-103004000D02*
X309056000Y-100704000D01*
X309056000Y-100704000D02*
X304356000Y-100704000D01*
X304356000Y-103004000D02*
X304356000Y-100704000D01*
G04 #@! TO.C,D62*
X309054000Y-122054000D02*
X313754000Y-122054000D01*
X313754000Y-122054000D02*
X313754000Y-119754000D01*
X313754000Y-119754000D02*
X309054000Y-119754000D01*
X309054000Y-122054000D02*
X309054000Y-119754000D01*
G04 #@! TO.C,D63*
X354500000Y-98960000D02*
X349800000Y-98960000D01*
X349800000Y-98960000D02*
X349800000Y-101260000D01*
X349800000Y-101260000D02*
X354500000Y-101260000D01*
X354500000Y-98960000D02*
X354500000Y-101260000D01*
G04 #@! TO.C,D64*
X354500000Y-117970000D02*
X349800000Y-117970000D01*
X349800000Y-117970000D02*
X349800000Y-120270000D01*
X349800000Y-120270000D02*
X354500000Y-120270000D01*
X354500000Y-117970000D02*
X354500000Y-120270000D01*
G04 #@! TO.C,D65*
X326100000Y-175040000D02*
X321400000Y-175040000D01*
X321400000Y-175040000D02*
X321400000Y-177340000D01*
X321400000Y-177340000D02*
X326100000Y-177340000D01*
X326100000Y-175040000D02*
X326100000Y-177340000D01*
G04 #@! TO.C,D66*
X373570000Y-98930000D02*
X368870000Y-98930000D01*
X368870000Y-98930000D02*
X368870000Y-101230000D01*
X368870000Y-101230000D02*
X373570000Y-101230000D01*
X373570000Y-98930000D02*
X373570000Y-101230000D01*
G04 #@! TO.C,D67*
X373430000Y-118000000D02*
X368730000Y-118000000D01*
X368730000Y-118000000D02*
X368730000Y-120300000D01*
X368730000Y-120300000D02*
X373430000Y-120300000D01*
X373430000Y-118000000D02*
X373430000Y-120300000D01*
G04 #@! TO.C,D68*
X354610000Y-175130000D02*
X349910000Y-175130000D01*
X349910000Y-175130000D02*
X349910000Y-177430000D01*
X349910000Y-177430000D02*
X354610000Y-177430000D01*
X354610000Y-175130000D02*
X354610000Y-177430000D01*
G04 #@! TO.C,D69*
X373640000Y-175100000D02*
X368940000Y-175100000D01*
X368940000Y-175100000D02*
X368940000Y-177400000D01*
X368940000Y-177400000D02*
X373640000Y-177400000D01*
X373640000Y-175100000D02*
X373640000Y-177400000D01*
G04 #@! TO.C,C1*
X367910000Y-130286000D02*
X367910000Y-125786000D01*
X367910000Y-130286000D02*
X366160000Y-130286000D01*
X366160000Y-125786000D02*
X367910000Y-125786000D01*
X366160000Y-125786000D02*
X366160000Y-130286000D01*
G04 #@! TO.C,C4*
X377072000Y-125746000D02*
X377072000Y-130246000D01*
X377072000Y-125746000D02*
X378822000Y-125746000D01*
X378822000Y-130246000D02*
X377072000Y-130246000D01*
X378822000Y-130246000D02*
X378822000Y-125746000D01*
G04 #@! TO.C,C6*
X331098000Y-94250000D02*
X331098000Y-98750000D01*
X331098000Y-94250000D02*
X332848000Y-94250000D01*
X332848000Y-98750000D02*
X331098000Y-98750000D01*
X332848000Y-98750000D02*
X332848000Y-94250000D01*
G04 #@! TO.C,C102*
X290235457Y-82717024D02*
X294735457Y-82717024D01*
X290235457Y-82717024D02*
X290235457Y-80967024D01*
X294735457Y-80967024D02*
X294735457Y-82717024D01*
X294735457Y-80967024D02*
X290235457Y-80967024D01*
G04 #@! TO.C,C103*
X208871411Y-79666023D02*
X208871411Y-84166023D01*
X208871411Y-79666023D02*
X210621411Y-79666023D01*
X210621411Y-84166023D02*
X208871411Y-84166023D01*
X210621411Y-84166023D02*
X210621411Y-79666023D01*
G04 #@! TO.C,C104*
X131157258Y-79814742D02*
X131157258Y-84314742D01*
X131157258Y-79814742D02*
X132907258Y-79814742D01*
X132907258Y-84314742D02*
X131157258Y-84314742D01*
X132907258Y-84314742D02*
X132907258Y-79814742D01*
G04 #@! TO.C,C105*
X51759065Y-79958126D02*
X51759065Y-84458126D01*
X51759065Y-79958126D02*
X53509065Y-79958126D01*
X53509065Y-84458126D02*
X51759065Y-84458126D01*
X53509065Y-84458126D02*
X53509065Y-79958126D01*
G04 #@! TO.C,C106*
X56144689Y-183488132D02*
X56144689Y-178988132D01*
X56144689Y-183488132D02*
X54394689Y-183488132D01*
X54394689Y-178988132D02*
X56144689Y-178988132D01*
X54394689Y-178988132D02*
X54394689Y-183488132D01*
G04 #@! TO.C,C107*
X132198000Y-183606000D02*
X132198000Y-179106000D01*
X132198000Y-183606000D02*
X130448000Y-183606000D01*
X130448000Y-179106000D02*
X132198000Y-179106000D01*
X130448000Y-179106000D02*
X130448000Y-183606000D01*
G04 #@! TO.C,C108*
X212800000Y-183596000D02*
X212800000Y-179096000D01*
X212800000Y-183596000D02*
X211050000Y-183596000D01*
X211050000Y-179096000D02*
X212800000Y-179096000D01*
X211050000Y-179096000D02*
X211050000Y-183596000D01*
G04 #@! TO.C,C109*
X290846000Y-182490000D02*
X295346000Y-182490000D01*
X290846000Y-182490000D02*
X290846000Y-180740000D01*
X295346000Y-180740000D02*
X295346000Y-182490000D01*
X295346000Y-180740000D02*
X290846000Y-180740000D01*
G04 #@! TO.C,C110*
X369942000Y-183606000D02*
X369942000Y-179106000D01*
X369942000Y-183606000D02*
X368192000Y-183606000D01*
X368192000Y-179106000D02*
X369942000Y-179106000D01*
X368192000Y-179106000D02*
X368192000Y-183606000D01*
G04 #@! TO.C,R1*
X349596200Y-129373200D02*
X354296200Y-129373200D01*
X349596200Y-129373200D02*
X349596200Y-127573200D01*
X354296200Y-127573200D02*
X354296200Y-129373200D01*
X354296200Y-127573200D02*
X349596200Y-127573200D01*
G04 #@! TO.C,R2*
X337958000Y-98950000D02*
X337958000Y-94250000D01*
X337958000Y-98950000D02*
X336158000Y-98950000D01*
X336158000Y-94250000D02*
X337958000Y-94250000D01*
X336158000Y-94250000D02*
X336158000Y-98950000D01*
G04 #@! TO.C,R3*
X335418000Y-98950000D02*
X335418000Y-94250000D01*
X335418000Y-98950000D02*
X333618000Y-98950000D01*
X333618000Y-94250000D02*
X335418000Y-94250000D01*
X333618000Y-94250000D02*
X333618000Y-98950000D01*
G04 #@! TO.C,R5*
X370130500Y-125713000D02*
X370130500Y-130413000D01*
X370130500Y-125713000D02*
X371930500Y-125713000D01*
X371930500Y-130413000D02*
X370130500Y-130413000D01*
X371930500Y-130413000D02*
X371930500Y-125713000D01*
G04 #@! TO.C,R6*
X377264500Y-152290000D02*
X377264500Y-147590000D01*
X377264500Y-152290000D02*
X375464500Y-152290000D01*
X375464500Y-147590000D02*
X377264500Y-147590000D01*
X375464500Y-147590000D02*
X375464500Y-152290000D01*
G04 #@! TO.C,R7*
X360818000Y-97012000D02*
X360818000Y-92312000D01*
X360818000Y-97012000D02*
X359018000Y-97012000D01*
X359018000Y-92312000D02*
X360818000Y-92312000D01*
X359018000Y-92312000D02*
X359018000Y-97012000D01*
G04 #@! TO.C,R8*
X343165000Y-140653000D02*
X343165000Y-135953000D01*
X343165000Y-140653000D02*
X341365000Y-140653000D01*
X341365000Y-135953000D02*
X343165000Y-135953000D01*
X341365000Y-135953000D02*
X341365000Y-140653000D01*
G04 #@! TO.C,R11*
X346218000Y-149388400D02*
X350918000Y-149388400D01*
X346218000Y-149388400D02*
X346218000Y-147588400D01*
X350918000Y-147588400D02*
X350918000Y-149388400D01*
X350918000Y-147588400D02*
X346218000Y-147588400D01*
G04 #@! TO.C,R100*
X375274000Y-178578000D02*
X375274000Y-183278000D01*
X375274000Y-178578000D02*
X377074000Y-178578000D01*
X377074000Y-183278000D02*
X375274000Y-183278000D01*
X377074000Y-183278000D02*
X377074000Y-178578000D01*
G04 #@! TD*
M02*
