G04 #@! TF.GenerationSoftware,KiCad,Pcbnew,(5.0.2)-1*
G04 #@! TF.CreationDate,2019-03-25T23:00:56+03:00*
G04 #@! TF.ProjectId,Mechanical Keyboard,4d656368-616e-4696-9361-6c204b657962,rev?*
G04 #@! TF.SameCoordinates,Original*
G04 #@! TF.FileFunction,Other,Fab,Top*
%FSLAX46Y46*%
G04 Gerber Fmt 4.6, Leading zero omitted, Abs format (unit mm)*
G04 Created by KiCad (PCBNEW (5.0.2)-1) date 25.03.2019 23:00:56*
%MOMM*%
%LPD*%
G01*
G04 APERTURE LIST*
%ADD10C,0.150000*%
%ADD11C,0.100000*%
%ADD12C,0.075000*%
G04 APERTURE END LIST*
D10*
G04 #@! TO.C,U1*
X372030000Y-137478000D02*
X372030000Y-146478000D01*
X372030000Y-146478000D02*
X362030000Y-146478000D01*
X362030000Y-146478000D02*
X362030000Y-136478000D01*
X362030000Y-136478000D02*
X371030000Y-136478000D01*
X371030000Y-136478000D02*
X372030000Y-137478000D01*
G04 #@! TO.C,U2*
X339370000Y-147560000D02*
X339370000Y-144560000D01*
X339370000Y-144560000D02*
X343370000Y-144560000D01*
X343370000Y-144560000D02*
X343370000Y-148560000D01*
X343370000Y-148560000D02*
X340370000Y-148560000D01*
X340370000Y-148560000D02*
X339370000Y-147560000D01*
D11*
G04 #@! TO.C,C2*
X344510800Y-133817600D02*
X344510800Y-132577600D01*
X346510800Y-133817600D02*
X344510800Y-133817600D01*
X346510800Y-132577600D02*
X346510800Y-133817600D01*
X344510800Y-132577600D02*
X346510800Y-132577600D01*
G04 #@! TO.C,C3*
X358993000Y-132476000D02*
X358993000Y-133716000D01*
X356993000Y-132476000D02*
X358993000Y-132476000D01*
X356993000Y-133716000D02*
X356993000Y-132476000D01*
X358993000Y-133716000D02*
X356993000Y-133716000D01*
G04 #@! TO.C,C5*
X347508000Y-145323800D02*
X347508000Y-144083800D01*
X349508000Y-145323800D02*
X347508000Y-145323800D01*
X349508000Y-144083800D02*
X349508000Y-145323800D01*
X347508000Y-144083800D02*
X349508000Y-144083800D01*
G04 #@! TO.C,R4*
X377301000Y-149287000D02*
X377301000Y-150527000D01*
X375301000Y-149287000D02*
X377301000Y-149287000D01*
X375301000Y-150527000D02*
X375301000Y-149287000D01*
X377301000Y-150527000D02*
X375301000Y-150527000D01*
G04 #@! TO.C,R9*
X358379000Y-145939000D02*
X358379000Y-147939000D01*
X358379000Y-147939000D02*
X357139000Y-147939000D01*
X357139000Y-147939000D02*
X357139000Y-145939000D01*
X357139000Y-145939000D02*
X358379000Y-145939000D01*
G04 #@! TO.C,R10*
X339502000Y-132653800D02*
X339502000Y-133893800D01*
X337502000Y-132653800D02*
X339502000Y-132653800D01*
X337502000Y-133893800D02*
X337502000Y-132653800D01*
X339502000Y-133893800D02*
X337502000Y-133893800D01*
G04 #@! TO.C,R12*
X349535000Y-151526000D02*
X349535000Y-152766000D01*
X347535000Y-151526000D02*
X349535000Y-151526000D01*
X347535000Y-152766000D02*
X347535000Y-151526000D01*
X349535000Y-152766000D02*
X347535000Y-152766000D01*
G04 #@! TO.C,R13*
X349535000Y-153710400D02*
X349535000Y-154950400D01*
X347535000Y-153710400D02*
X349535000Y-153710400D01*
X347535000Y-154950400D02*
X347535000Y-153710400D01*
X349535000Y-154950400D02*
X347535000Y-154950400D01*
G04 #@! TD*
G04 #@! TO.C,U1*
D10*
X359746666Y-147573238D02*
X359746666Y-147097047D01*
X360032380Y-147668476D02*
X359032380Y-147335142D01*
X360032380Y-147001809D01*
X359032380Y-146811333D02*
X359032380Y-146239904D01*
X360032380Y-146525619D02*
X359032380Y-146525619D01*
X360032380Y-145906571D02*
X359032380Y-145906571D01*
X359746666Y-145573238D01*
X359032380Y-145239904D01*
X360032380Y-145239904D01*
X359508571Y-144763714D02*
X359508571Y-144430380D01*
X360032380Y-144287523D02*
X360032380Y-144763714D01*
X359032380Y-144763714D01*
X359032380Y-144287523D01*
X359080000Y-143335142D02*
X359032380Y-143430380D01*
X359032380Y-143573238D01*
X359080000Y-143716095D01*
X359175238Y-143811333D01*
X359270476Y-143858952D01*
X359460952Y-143906571D01*
X359603809Y-143906571D01*
X359794285Y-143858952D01*
X359889523Y-143811333D01*
X359984761Y-143716095D01*
X360032380Y-143573238D01*
X360032380Y-143478000D01*
X359984761Y-143335142D01*
X359937142Y-143287523D01*
X359603809Y-143287523D01*
X359603809Y-143478000D01*
X359746666Y-142906571D02*
X359746666Y-142430380D01*
X360032380Y-143001809D02*
X359032380Y-142668476D01*
X360032380Y-142335142D01*
X359032380Y-142097047D02*
X359032380Y-141478000D01*
X359413333Y-141811333D01*
X359413333Y-141668476D01*
X359460952Y-141573238D01*
X359508571Y-141525619D01*
X359603809Y-141478000D01*
X359841904Y-141478000D01*
X359937142Y-141525619D01*
X359984761Y-141573238D01*
X360032380Y-141668476D01*
X360032380Y-141954190D01*
X359984761Y-142049428D01*
X359937142Y-142097047D01*
X359127619Y-141097047D02*
X359080000Y-141049428D01*
X359032380Y-140954190D01*
X359032380Y-140716095D01*
X359080000Y-140620857D01*
X359127619Y-140573238D01*
X359222857Y-140525619D01*
X359318095Y-140525619D01*
X359460952Y-140573238D01*
X360032380Y-141144666D01*
X360032380Y-140525619D01*
X359032380Y-140097047D02*
X359841904Y-140097047D01*
X359937142Y-140049428D01*
X359984761Y-140001809D01*
X360032380Y-139906571D01*
X360032380Y-139716095D01*
X359984761Y-139620857D01*
X359937142Y-139573238D01*
X359841904Y-139525619D01*
X359032380Y-139525619D01*
X359365714Y-138620857D02*
X360032380Y-138620857D01*
X358984761Y-138858952D02*
X359699047Y-139097047D01*
X359699047Y-138478000D01*
X359651428Y-138097047D02*
X359651428Y-137335142D01*
X359746666Y-136906571D02*
X359746666Y-136430380D01*
X360032380Y-137001809D02*
X359032380Y-136668476D01*
X360032380Y-136335142D01*
X359032380Y-136001809D02*
X359841904Y-136001809D01*
X359937142Y-135954190D01*
X359984761Y-135906571D01*
X360032380Y-135811333D01*
X360032380Y-135620857D01*
X359984761Y-135525619D01*
X359937142Y-135478000D01*
X359841904Y-135430380D01*
X359032380Y-135430380D01*
X366482380Y-142239904D02*
X367291904Y-142239904D01*
X367387142Y-142192285D01*
X367434761Y-142144666D01*
X367482380Y-142049428D01*
X367482380Y-141858952D01*
X367434761Y-141763714D01*
X367387142Y-141716095D01*
X367291904Y-141668476D01*
X366482380Y-141668476D01*
X367482380Y-140668476D02*
X367482380Y-141239904D01*
X367482380Y-140954190D02*
X366482380Y-140954190D01*
X366625238Y-141049428D01*
X366720476Y-141144666D01*
X366768095Y-141239904D01*
G04 #@! TO.C,U2*
X345172380Y-153607619D02*
X344172380Y-153607619D01*
X345124761Y-153179047D02*
X345172380Y-153036190D01*
X345172380Y-152798095D01*
X345124761Y-152702857D01*
X345077142Y-152655238D01*
X344981904Y-152607619D01*
X344886666Y-152607619D01*
X344791428Y-152655238D01*
X344743809Y-152702857D01*
X344696190Y-152798095D01*
X344648571Y-152988571D01*
X344600952Y-153083809D01*
X344553333Y-153131428D01*
X344458095Y-153179047D01*
X344362857Y-153179047D01*
X344267619Y-153131428D01*
X344220000Y-153083809D01*
X344172380Y-152988571D01*
X344172380Y-152750476D01*
X344220000Y-152607619D01*
X344172380Y-152274285D02*
X344172380Y-151655238D01*
X344553333Y-151988571D01*
X344553333Y-151845714D01*
X344600952Y-151750476D01*
X344648571Y-151702857D01*
X344743809Y-151655238D01*
X344981904Y-151655238D01*
X345077142Y-151702857D01*
X345124761Y-151750476D01*
X345172380Y-151845714D01*
X345172380Y-152131428D01*
X345124761Y-152226666D01*
X345077142Y-152274285D01*
X345172380Y-150702857D02*
X345172380Y-151274285D01*
X345172380Y-150988571D02*
X344172380Y-150988571D01*
X344315238Y-151083809D01*
X344410476Y-151179047D01*
X344458095Y-151274285D01*
X344648571Y-149940952D02*
X344648571Y-150274285D01*
X345172380Y-150274285D02*
X344172380Y-150274285D01*
X344172380Y-149798095D01*
X345172380Y-148940952D02*
X345172380Y-149417142D01*
X344172380Y-149417142D01*
X344172380Y-148702857D02*
X344172380Y-148083809D01*
X344553333Y-148417142D01*
X344553333Y-148274285D01*
X344600952Y-148179047D01*
X344648571Y-148131428D01*
X344743809Y-148083809D01*
X344981904Y-148083809D01*
X345077142Y-148131428D01*
X345124761Y-148179047D01*
X345172380Y-148274285D01*
X345172380Y-148560000D01*
X345124761Y-148655238D01*
X345077142Y-148702857D01*
X344172380Y-147750476D02*
X344172380Y-147083809D01*
X345172380Y-147512380D01*
X344172380Y-146798095D02*
X344172380Y-146179047D01*
X344553333Y-146512380D01*
X344553333Y-146369523D01*
X344600952Y-146274285D01*
X344648571Y-146226666D01*
X344743809Y-146179047D01*
X344981904Y-146179047D01*
X345077142Y-146226666D01*
X345124761Y-146274285D01*
X345172380Y-146369523D01*
X345172380Y-146655238D01*
X345124761Y-146750476D01*
X345077142Y-146798095D01*
X345172380Y-145226666D02*
X345172380Y-145798095D01*
X345172380Y-145512380D02*
X344172380Y-145512380D01*
X344315238Y-145607619D01*
X344410476Y-145702857D01*
X344458095Y-145798095D01*
X344791428Y-144798095D02*
X344791428Y-144036190D01*
X345124761Y-143607619D02*
X345172380Y-143464761D01*
X345172380Y-143226666D01*
X345124761Y-143131428D01*
X345077142Y-143083809D01*
X344981904Y-143036190D01*
X344886666Y-143036190D01*
X344791428Y-143083809D01*
X344743809Y-143131428D01*
X344696190Y-143226666D01*
X344648571Y-143417142D01*
X344600952Y-143512380D01*
X344553333Y-143560000D01*
X344458095Y-143607619D01*
X344362857Y-143607619D01*
X344267619Y-143560000D01*
X344220000Y-143512380D01*
X344172380Y-143417142D01*
X344172380Y-143179047D01*
X344220000Y-143036190D01*
X344886666Y-142655238D02*
X344886666Y-142179047D01*
X345172380Y-142750476D02*
X344172380Y-142417142D01*
X345172380Y-142083809D01*
X345172380Y-141274285D02*
X345172380Y-141750476D01*
X344172380Y-141750476D01*
X345124761Y-140988571D02*
X345172380Y-140845714D01*
X345172380Y-140607619D01*
X345124761Y-140512380D01*
X345077142Y-140464761D01*
X344981904Y-140417142D01*
X344886666Y-140417142D01*
X344791428Y-140464761D01*
X344743809Y-140512380D01*
X344696190Y-140607619D01*
X344648571Y-140798095D01*
X344600952Y-140893333D01*
X344553333Y-140940952D01*
X344458095Y-140988571D01*
X344362857Y-140988571D01*
X344267619Y-140940952D01*
X344220000Y-140893333D01*
X344172380Y-140798095D01*
X344172380Y-140560000D01*
X344220000Y-140417142D01*
X344267619Y-140036190D02*
X344220000Y-139988571D01*
X344172380Y-139893333D01*
X344172380Y-139655238D01*
X344220000Y-139560000D01*
X344267619Y-139512380D01*
X344362857Y-139464761D01*
X344458095Y-139464761D01*
X344600952Y-139512380D01*
X345172380Y-140083809D01*
X345172380Y-139464761D01*
G04 #@! TO.C,C2*
X344010800Y-134495219D02*
X344058419Y-134447600D01*
X344153657Y-134399980D01*
X344391752Y-134399980D01*
X344486990Y-134447600D01*
X344534609Y-134495219D01*
X344582228Y-134590457D01*
X344582228Y-134685695D01*
X344534609Y-134828552D01*
X343963180Y-135399980D01*
X344582228Y-135399980D01*
X344963180Y-134495219D02*
X345010800Y-134447600D01*
X345106038Y-134399980D01*
X345344133Y-134399980D01*
X345439371Y-134447600D01*
X345486990Y-134495219D01*
X345534609Y-134590457D01*
X345534609Y-134685695D01*
X345486990Y-134828552D01*
X344915561Y-135399980D01*
X345534609Y-135399980D01*
X345963180Y-134733314D02*
X345963180Y-135733314D01*
X345963180Y-134780933D02*
X346058419Y-134733314D01*
X346248895Y-134733314D01*
X346344133Y-134780933D01*
X346391752Y-134828552D01*
X346439371Y-134923790D01*
X346439371Y-135209504D01*
X346391752Y-135304742D01*
X346344133Y-135352361D01*
X346248895Y-135399980D01*
X346058419Y-135399980D01*
X345963180Y-135352361D01*
X346725085Y-134733314D02*
X347106038Y-134733314D01*
X346867942Y-135399980D02*
X346867942Y-134542838D01*
X346915561Y-134447600D01*
X347010800Y-134399980D01*
X347106038Y-134399980D01*
X345344133Y-131804742D02*
X345296514Y-131852361D01*
X345153657Y-131899980D01*
X345058419Y-131899980D01*
X344915561Y-131852361D01*
X344820323Y-131757123D01*
X344772704Y-131661885D01*
X344725085Y-131471409D01*
X344725085Y-131328552D01*
X344772704Y-131138076D01*
X344820323Y-131042838D01*
X344915561Y-130947600D01*
X345058419Y-130899980D01*
X345153657Y-130899980D01*
X345296514Y-130947600D01*
X345344133Y-130995219D01*
X345725085Y-130995219D02*
X345772704Y-130947600D01*
X345867942Y-130899980D01*
X346106038Y-130899980D01*
X346201276Y-130947600D01*
X346248895Y-130995219D01*
X346296514Y-131090457D01*
X346296514Y-131185695D01*
X346248895Y-131328552D01*
X345677466Y-131899980D01*
X346296514Y-131899980D01*
G04 #@! TO.C,C3*
X356493000Y-130893619D02*
X356540619Y-130846000D01*
X356635857Y-130798380D01*
X356873952Y-130798380D01*
X356969190Y-130846000D01*
X357016809Y-130893619D01*
X357064428Y-130988857D01*
X357064428Y-131084095D01*
X357016809Y-131226952D01*
X356445380Y-131798380D01*
X357064428Y-131798380D01*
X357445380Y-130893619D02*
X357493000Y-130846000D01*
X357588238Y-130798380D01*
X357826333Y-130798380D01*
X357921571Y-130846000D01*
X357969190Y-130893619D01*
X358016809Y-130988857D01*
X358016809Y-131084095D01*
X357969190Y-131226952D01*
X357397761Y-131798380D01*
X358016809Y-131798380D01*
X358445380Y-131131714D02*
X358445380Y-132131714D01*
X358445380Y-131179333D02*
X358540619Y-131131714D01*
X358731095Y-131131714D01*
X358826333Y-131179333D01*
X358873952Y-131226952D01*
X358921571Y-131322190D01*
X358921571Y-131607904D01*
X358873952Y-131703142D01*
X358826333Y-131750761D01*
X358731095Y-131798380D01*
X358540619Y-131798380D01*
X358445380Y-131750761D01*
X359207285Y-131131714D02*
X359588238Y-131131714D01*
X359350142Y-131798380D02*
X359350142Y-130941238D01*
X359397761Y-130846000D01*
X359493000Y-130798380D01*
X359588238Y-130798380D01*
X357826333Y-135203142D02*
X357778714Y-135250761D01*
X357635857Y-135298380D01*
X357540619Y-135298380D01*
X357397761Y-135250761D01*
X357302523Y-135155523D01*
X357254904Y-135060285D01*
X357207285Y-134869809D01*
X357207285Y-134726952D01*
X357254904Y-134536476D01*
X357302523Y-134441238D01*
X357397761Y-134346000D01*
X357540619Y-134298380D01*
X357635857Y-134298380D01*
X357778714Y-134346000D01*
X357826333Y-134393619D01*
X358159666Y-134298380D02*
X358778714Y-134298380D01*
X358445380Y-134679333D01*
X358588238Y-134679333D01*
X358683476Y-134726952D01*
X358731095Y-134774571D01*
X358778714Y-134869809D01*
X358778714Y-135107904D01*
X358731095Y-135203142D01*
X358683476Y-135250761D01*
X358588238Y-135298380D01*
X358302523Y-135298380D01*
X358207285Y-135250761D01*
X358159666Y-135203142D01*
G04 #@! TO.C,C5*
X347293714Y-145906180D02*
X347388952Y-145906180D01*
X347484190Y-145953800D01*
X347531809Y-146001419D01*
X347579428Y-146096657D01*
X347627047Y-146287133D01*
X347627047Y-146525228D01*
X347579428Y-146715704D01*
X347531809Y-146810942D01*
X347484190Y-146858561D01*
X347388952Y-146906180D01*
X347293714Y-146906180D01*
X347198476Y-146858561D01*
X347150857Y-146810942D01*
X347103238Y-146715704D01*
X347055619Y-146525228D01*
X347055619Y-146287133D01*
X347103238Y-146096657D01*
X347150857Y-146001419D01*
X347198476Y-145953800D01*
X347293714Y-145906180D01*
X348055619Y-146810942D02*
X348103238Y-146858561D01*
X348055619Y-146906180D01*
X348008000Y-146858561D01*
X348055619Y-146810942D01*
X348055619Y-146906180D01*
X349055619Y-146906180D02*
X348484190Y-146906180D01*
X348769904Y-146906180D02*
X348769904Y-145906180D01*
X348674666Y-146049038D01*
X348579428Y-146144276D01*
X348484190Y-146191895D01*
X349912761Y-146239514D02*
X349912761Y-146906180D01*
X349484190Y-146239514D02*
X349484190Y-146763323D01*
X349531809Y-146858561D01*
X349627047Y-146906180D01*
X349769904Y-146906180D01*
X349865142Y-146858561D01*
X349912761Y-146810942D01*
X348341333Y-143310942D02*
X348293714Y-143358561D01*
X348150857Y-143406180D01*
X348055619Y-143406180D01*
X347912761Y-143358561D01*
X347817523Y-143263323D01*
X347769904Y-143168085D01*
X347722285Y-142977609D01*
X347722285Y-142834752D01*
X347769904Y-142644276D01*
X347817523Y-142549038D01*
X347912761Y-142453800D01*
X348055619Y-142406180D01*
X348150857Y-142406180D01*
X348293714Y-142453800D01*
X348341333Y-142501419D01*
X349246095Y-142406180D02*
X348769904Y-142406180D01*
X348722285Y-142882371D01*
X348769904Y-142834752D01*
X348865142Y-142787133D01*
X349103238Y-142787133D01*
X349198476Y-142834752D01*
X349246095Y-142882371D01*
X349293714Y-142977609D01*
X349293714Y-143215704D01*
X349246095Y-143310942D01*
X349198476Y-143358561D01*
X349103238Y-143406180D01*
X348865142Y-143406180D01*
X348769904Y-143358561D01*
X348722285Y-143310942D01*
G04 #@! TO.C,R4*
X375039095Y-147704619D02*
X375086714Y-147657000D01*
X375181952Y-147609380D01*
X375420047Y-147609380D01*
X375515285Y-147657000D01*
X375562904Y-147704619D01*
X375610523Y-147799857D01*
X375610523Y-147895095D01*
X375562904Y-148037952D01*
X374991476Y-148609380D01*
X375610523Y-148609380D01*
X376229571Y-147609380D02*
X376324809Y-147609380D01*
X376420047Y-147657000D01*
X376467666Y-147704619D01*
X376515285Y-147799857D01*
X376562904Y-147990333D01*
X376562904Y-148228428D01*
X376515285Y-148418904D01*
X376467666Y-148514142D01*
X376420047Y-148561761D01*
X376324809Y-148609380D01*
X376229571Y-148609380D01*
X376134333Y-148561761D01*
X376086714Y-148514142D01*
X376039095Y-148418904D01*
X375991476Y-148228428D01*
X375991476Y-147990333D01*
X376039095Y-147799857D01*
X376086714Y-147704619D01*
X376134333Y-147657000D01*
X376229571Y-147609380D01*
X376991476Y-148609380D02*
X376991476Y-147609380D01*
X377562904Y-148609380D02*
X377134333Y-148037952D01*
X377562904Y-147609380D02*
X376991476Y-148180809D01*
D12*
X376217666Y-150133190D02*
X376051000Y-149895095D01*
X375931952Y-150133190D02*
X375931952Y-149633190D01*
X376122428Y-149633190D01*
X376170047Y-149657000D01*
X376193857Y-149680809D01*
X376217666Y-149728428D01*
X376217666Y-149799857D01*
X376193857Y-149847476D01*
X376170047Y-149871285D01*
X376122428Y-149895095D01*
X375931952Y-149895095D01*
X376646238Y-149799857D02*
X376646238Y-150133190D01*
X376527190Y-149609380D02*
X376408142Y-149966523D01*
X376717666Y-149966523D01*
G04 #@! TO.C,R9*
D10*
X355556619Y-148200904D02*
X355509000Y-148153285D01*
X355461380Y-148058047D01*
X355461380Y-147819952D01*
X355509000Y-147724714D01*
X355556619Y-147677095D01*
X355651857Y-147629476D01*
X355747095Y-147629476D01*
X355889952Y-147677095D01*
X356461380Y-148248523D01*
X356461380Y-147629476D01*
X355461380Y-147010428D02*
X355461380Y-146915190D01*
X355509000Y-146819952D01*
X355556619Y-146772333D01*
X355651857Y-146724714D01*
X355842333Y-146677095D01*
X356080428Y-146677095D01*
X356270904Y-146724714D01*
X356366142Y-146772333D01*
X356413761Y-146819952D01*
X356461380Y-146915190D01*
X356461380Y-147010428D01*
X356413761Y-147105666D01*
X356366142Y-147153285D01*
X356270904Y-147200904D01*
X356080428Y-147248523D01*
X355842333Y-147248523D01*
X355651857Y-147200904D01*
X355556619Y-147153285D01*
X355509000Y-147105666D01*
X355461380Y-147010428D01*
X356461380Y-146248523D02*
X355461380Y-146248523D01*
X356461380Y-145677095D02*
X355889952Y-146105666D01*
X355461380Y-145677095D02*
X356032809Y-146248523D01*
D12*
X357985190Y-147022333D02*
X357747095Y-147189000D01*
X357985190Y-147308047D02*
X357485190Y-147308047D01*
X357485190Y-147117571D01*
X357509000Y-147069952D01*
X357532809Y-147046142D01*
X357580428Y-147022333D01*
X357651857Y-147022333D01*
X357699476Y-147046142D01*
X357723285Y-147069952D01*
X357747095Y-147117571D01*
X357747095Y-147308047D01*
X357985190Y-146784238D02*
X357985190Y-146689000D01*
X357961380Y-146641380D01*
X357937571Y-146617571D01*
X357866142Y-146569952D01*
X357770904Y-146546142D01*
X357580428Y-146546142D01*
X357532809Y-146569952D01*
X357509000Y-146593761D01*
X357485190Y-146641380D01*
X357485190Y-146736619D01*
X357509000Y-146784238D01*
X357532809Y-146808047D01*
X357580428Y-146831857D01*
X357699476Y-146831857D01*
X357747095Y-146808047D01*
X357770904Y-146784238D01*
X357794714Y-146736619D01*
X357794714Y-146641380D01*
X357770904Y-146593761D01*
X357747095Y-146569952D01*
X357699476Y-146546142D01*
G04 #@! TO.C,R10*
D10*
X337240095Y-131071419D02*
X337287714Y-131023800D01*
X337382952Y-130976180D01*
X337621047Y-130976180D01*
X337716285Y-131023800D01*
X337763904Y-131071419D01*
X337811523Y-131166657D01*
X337811523Y-131261895D01*
X337763904Y-131404752D01*
X337192476Y-131976180D01*
X337811523Y-131976180D01*
X338430571Y-130976180D02*
X338525809Y-130976180D01*
X338621047Y-131023800D01*
X338668666Y-131071419D01*
X338716285Y-131166657D01*
X338763904Y-131357133D01*
X338763904Y-131595228D01*
X338716285Y-131785704D01*
X338668666Y-131880942D01*
X338621047Y-131928561D01*
X338525809Y-131976180D01*
X338430571Y-131976180D01*
X338335333Y-131928561D01*
X338287714Y-131880942D01*
X338240095Y-131785704D01*
X338192476Y-131595228D01*
X338192476Y-131357133D01*
X338240095Y-131166657D01*
X338287714Y-131071419D01*
X338335333Y-131023800D01*
X338430571Y-130976180D01*
X339192476Y-131976180D02*
X339192476Y-130976180D01*
X339763904Y-131976180D02*
X339335333Y-131404752D01*
X339763904Y-130976180D02*
X339192476Y-131547609D01*
D12*
X338180571Y-133499990D02*
X338013904Y-133261895D01*
X337894857Y-133499990D02*
X337894857Y-132999990D01*
X338085333Y-132999990D01*
X338132952Y-133023800D01*
X338156761Y-133047609D01*
X338180571Y-133095228D01*
X338180571Y-133166657D01*
X338156761Y-133214276D01*
X338132952Y-133238085D01*
X338085333Y-133261895D01*
X337894857Y-133261895D01*
X338656761Y-133499990D02*
X338371047Y-133499990D01*
X338513904Y-133499990D02*
X338513904Y-132999990D01*
X338466285Y-133071419D01*
X338418666Y-133119038D01*
X338371047Y-133142847D01*
X338966285Y-132999990D02*
X339013904Y-132999990D01*
X339061523Y-133023800D01*
X339085333Y-133047609D01*
X339109142Y-133095228D01*
X339132952Y-133190466D01*
X339132952Y-133309514D01*
X339109142Y-133404752D01*
X339085333Y-133452371D01*
X339061523Y-133476180D01*
X339013904Y-133499990D01*
X338966285Y-133499990D01*
X338918666Y-133476180D01*
X338894857Y-133452371D01*
X338871047Y-133404752D01*
X338847238Y-133309514D01*
X338847238Y-133190466D01*
X338871047Y-133095228D01*
X338894857Y-133047609D01*
X338918666Y-133023800D01*
X338966285Y-132999990D01*
G04 #@! TO.C,R12*
D10*
X347273095Y-149943619D02*
X347320714Y-149896000D01*
X347415952Y-149848380D01*
X347654047Y-149848380D01*
X347749285Y-149896000D01*
X347796904Y-149943619D01*
X347844523Y-150038857D01*
X347844523Y-150134095D01*
X347796904Y-150276952D01*
X347225476Y-150848380D01*
X347844523Y-150848380D01*
X348463571Y-149848380D02*
X348558809Y-149848380D01*
X348654047Y-149896000D01*
X348701666Y-149943619D01*
X348749285Y-150038857D01*
X348796904Y-150229333D01*
X348796904Y-150467428D01*
X348749285Y-150657904D01*
X348701666Y-150753142D01*
X348654047Y-150800761D01*
X348558809Y-150848380D01*
X348463571Y-150848380D01*
X348368333Y-150800761D01*
X348320714Y-150753142D01*
X348273095Y-150657904D01*
X348225476Y-150467428D01*
X348225476Y-150229333D01*
X348273095Y-150038857D01*
X348320714Y-149943619D01*
X348368333Y-149896000D01*
X348463571Y-149848380D01*
X349225476Y-150848380D02*
X349225476Y-149848380D01*
X349796904Y-150848380D02*
X349368333Y-150276952D01*
X349796904Y-149848380D02*
X349225476Y-150419809D01*
D12*
X348213571Y-152372190D02*
X348046904Y-152134095D01*
X347927857Y-152372190D02*
X347927857Y-151872190D01*
X348118333Y-151872190D01*
X348165952Y-151896000D01*
X348189761Y-151919809D01*
X348213571Y-151967428D01*
X348213571Y-152038857D01*
X348189761Y-152086476D01*
X348165952Y-152110285D01*
X348118333Y-152134095D01*
X347927857Y-152134095D01*
X348689761Y-152372190D02*
X348404047Y-152372190D01*
X348546904Y-152372190D02*
X348546904Y-151872190D01*
X348499285Y-151943619D01*
X348451666Y-151991238D01*
X348404047Y-152015047D01*
X348880238Y-151919809D02*
X348904047Y-151896000D01*
X348951666Y-151872190D01*
X349070714Y-151872190D01*
X349118333Y-151896000D01*
X349142142Y-151919809D01*
X349165952Y-151967428D01*
X349165952Y-152015047D01*
X349142142Y-152086476D01*
X348856428Y-152372190D01*
X349165952Y-152372190D01*
G04 #@! TO.C,R13*
D10*
X347273095Y-152128019D02*
X347320714Y-152080400D01*
X347415952Y-152032780D01*
X347654047Y-152032780D01*
X347749285Y-152080400D01*
X347796904Y-152128019D01*
X347844523Y-152223257D01*
X347844523Y-152318495D01*
X347796904Y-152461352D01*
X347225476Y-153032780D01*
X347844523Y-153032780D01*
X348463571Y-152032780D02*
X348558809Y-152032780D01*
X348654047Y-152080400D01*
X348701666Y-152128019D01*
X348749285Y-152223257D01*
X348796904Y-152413733D01*
X348796904Y-152651828D01*
X348749285Y-152842304D01*
X348701666Y-152937542D01*
X348654047Y-152985161D01*
X348558809Y-153032780D01*
X348463571Y-153032780D01*
X348368333Y-152985161D01*
X348320714Y-152937542D01*
X348273095Y-152842304D01*
X348225476Y-152651828D01*
X348225476Y-152413733D01*
X348273095Y-152223257D01*
X348320714Y-152128019D01*
X348368333Y-152080400D01*
X348463571Y-152032780D01*
X349225476Y-153032780D02*
X349225476Y-152032780D01*
X349796904Y-153032780D02*
X349368333Y-152461352D01*
X349796904Y-152032780D02*
X349225476Y-152604209D01*
D12*
X348213571Y-154556590D02*
X348046904Y-154318495D01*
X347927857Y-154556590D02*
X347927857Y-154056590D01*
X348118333Y-154056590D01*
X348165952Y-154080400D01*
X348189761Y-154104209D01*
X348213571Y-154151828D01*
X348213571Y-154223257D01*
X348189761Y-154270876D01*
X348165952Y-154294685D01*
X348118333Y-154318495D01*
X347927857Y-154318495D01*
X348689761Y-154556590D02*
X348404047Y-154556590D01*
X348546904Y-154556590D02*
X348546904Y-154056590D01*
X348499285Y-154128019D01*
X348451666Y-154175638D01*
X348404047Y-154199447D01*
X348856428Y-154056590D02*
X349165952Y-154056590D01*
X348999285Y-154247066D01*
X349070714Y-154247066D01*
X349118333Y-154270876D01*
X349142142Y-154294685D01*
X349165952Y-154342304D01*
X349165952Y-154461352D01*
X349142142Y-154508971D01*
X349118333Y-154532780D01*
X349070714Y-154556590D01*
X348927857Y-154556590D01*
X348880238Y-154532780D01*
X348856428Y-154508971D01*
G04 #@! TO.C,REF\002A\002A*
D10*
X370864952Y-87456380D02*
X370864952Y-86456380D01*
X371198285Y-87170666D01*
X371531619Y-86456380D01*
X371531619Y-87456380D01*
X372150666Y-87456380D02*
X372055428Y-87408761D01*
X372007809Y-87361142D01*
X371960190Y-87265904D01*
X371960190Y-86980190D01*
X372007809Y-86884952D01*
X372055428Y-86837333D01*
X372150666Y-86789714D01*
X372293523Y-86789714D01*
X372388761Y-86837333D01*
X372436380Y-86884952D01*
X372484000Y-86980190D01*
X372484000Y-87265904D01*
X372436380Y-87361142D01*
X372388761Y-87408761D01*
X372293523Y-87456380D01*
X372150666Y-87456380D01*
X373341142Y-86789714D02*
X373341142Y-87456380D01*
X372912571Y-86789714D02*
X372912571Y-87313523D01*
X372960190Y-87408761D01*
X373055428Y-87456380D01*
X373198285Y-87456380D01*
X373293523Y-87408761D01*
X373341142Y-87361142D01*
X373817333Y-86789714D02*
X373817333Y-87456380D01*
X373817333Y-86884952D02*
X373864952Y-86837333D01*
X373960190Y-86789714D01*
X374103047Y-86789714D01*
X374198285Y-86837333D01*
X374245904Y-86932571D01*
X374245904Y-87456380D01*
X374579238Y-86789714D02*
X374960190Y-86789714D01*
X374722095Y-86456380D02*
X374722095Y-87313523D01*
X374769714Y-87408761D01*
X374864952Y-87456380D01*
X374960190Y-87456380D01*
X375293523Y-87456380D02*
X375293523Y-86789714D01*
X375293523Y-86456380D02*
X375245904Y-86504000D01*
X375293523Y-86551619D01*
X375341142Y-86504000D01*
X375293523Y-86456380D01*
X375293523Y-86551619D01*
X375769714Y-86789714D02*
X375769714Y-87456380D01*
X375769714Y-86884952D02*
X375817333Y-86837333D01*
X375912571Y-86789714D01*
X376055428Y-86789714D01*
X376150666Y-86837333D01*
X376198285Y-86932571D01*
X376198285Y-87456380D01*
X377103047Y-86789714D02*
X377103047Y-87599238D01*
X377055428Y-87694476D01*
X377007809Y-87742095D01*
X376912571Y-87789714D01*
X376769714Y-87789714D01*
X376674476Y-87742095D01*
X377103047Y-87408761D02*
X377007809Y-87456380D01*
X376817333Y-87456380D01*
X376722095Y-87408761D01*
X376674476Y-87361142D01*
X376626857Y-87265904D01*
X376626857Y-86980190D01*
X376674476Y-86884952D01*
X376722095Y-86837333D01*
X376817333Y-86789714D01*
X377007809Y-86789714D01*
X377103047Y-86837333D01*
X377579238Y-87456380D02*
X377579238Y-86456380D01*
X377579238Y-86932571D02*
X378150666Y-86932571D01*
X378150666Y-87456380D02*
X378150666Y-86456380D01*
X378769714Y-87456380D02*
X378674476Y-87408761D01*
X378626857Y-87361142D01*
X378579238Y-87265904D01*
X378579238Y-86980190D01*
X378626857Y-86884952D01*
X378674476Y-86837333D01*
X378769714Y-86789714D01*
X378912571Y-86789714D01*
X379007809Y-86837333D01*
X379055428Y-86884952D01*
X379103047Y-86980190D01*
X379103047Y-87265904D01*
X379055428Y-87361142D01*
X379007809Y-87408761D01*
X378912571Y-87456380D01*
X378769714Y-87456380D01*
X379674476Y-87456380D02*
X379579238Y-87408761D01*
X379531619Y-87313523D01*
X379531619Y-86456380D01*
X380436380Y-87408761D02*
X380341142Y-87456380D01*
X380150666Y-87456380D01*
X380055428Y-87408761D01*
X380007809Y-87313523D01*
X380007809Y-86932571D01*
X380055428Y-86837333D01*
X380150666Y-86789714D01*
X380341142Y-86789714D01*
X380436380Y-86837333D01*
X380484000Y-86932571D01*
X380484000Y-87027809D01*
X380007809Y-87123047D01*
X380674476Y-87551619D02*
X381436380Y-87551619D01*
X381579238Y-86456380D02*
X382198285Y-86456380D01*
X381864952Y-86837333D01*
X382007809Y-86837333D01*
X382103047Y-86884952D01*
X382150666Y-86932571D01*
X382198285Y-87027809D01*
X382198285Y-87265904D01*
X382150666Y-87361142D01*
X382103047Y-87408761D01*
X382007809Y-87456380D01*
X381722095Y-87456380D01*
X381626857Y-87408761D01*
X381579238Y-87361142D01*
X382626857Y-87361142D02*
X382674476Y-87408761D01*
X382626857Y-87456380D01*
X382579238Y-87408761D01*
X382626857Y-87361142D01*
X382626857Y-87456380D01*
X383055428Y-86551619D02*
X383103047Y-86504000D01*
X383198285Y-86456380D01*
X383436380Y-86456380D01*
X383531619Y-86504000D01*
X383579238Y-86551619D01*
X383626857Y-86646857D01*
X383626857Y-86742095D01*
X383579238Y-86884952D01*
X383007809Y-87456380D01*
X383626857Y-87456380D01*
X384055428Y-87456380D02*
X384055428Y-86789714D01*
X384055428Y-86884952D02*
X384103047Y-86837333D01*
X384198285Y-86789714D01*
X384341142Y-86789714D01*
X384436380Y-86837333D01*
X384484000Y-86932571D01*
X384484000Y-87456380D01*
X384484000Y-86932571D02*
X384531619Y-86837333D01*
X384626857Y-86789714D01*
X384769714Y-86789714D01*
X384864952Y-86837333D01*
X384912571Y-86932571D01*
X384912571Y-87456380D01*
X385388761Y-87456380D02*
X385388761Y-86789714D01*
X385388761Y-86884952D02*
X385436380Y-86837333D01*
X385531619Y-86789714D01*
X385674476Y-86789714D01*
X385769714Y-86837333D01*
X385817333Y-86932571D01*
X385817333Y-87456380D01*
X385817333Y-86932571D02*
X385864952Y-86837333D01*
X385960190Y-86789714D01*
X386103047Y-86789714D01*
X386198285Y-86837333D01*
X386245904Y-86932571D01*
X386245904Y-87456380D01*
X386484000Y-87551619D02*
X387245904Y-87551619D01*
X387484000Y-87456380D02*
X387484000Y-86456380D01*
X387817333Y-87170666D01*
X388150666Y-86456380D01*
X388150666Y-87456380D01*
X388531619Y-86456380D02*
X389150666Y-86456380D01*
X388817333Y-86837333D01*
X388960190Y-86837333D01*
X389055428Y-86884952D01*
X389103047Y-86932571D01*
X389150666Y-87027809D01*
X389150666Y-87265904D01*
X389103047Y-87361142D01*
X389055428Y-87408761D01*
X388960190Y-87456380D01*
X388674476Y-87456380D01*
X388579238Y-87408761D01*
X388531619Y-87361142D01*
X378950666Y-83256380D02*
X378617333Y-82780190D01*
X378379238Y-83256380D02*
X378379238Y-82256380D01*
X378760190Y-82256380D01*
X378855428Y-82304000D01*
X378903047Y-82351619D01*
X378950666Y-82446857D01*
X378950666Y-82589714D01*
X378903047Y-82684952D01*
X378855428Y-82732571D01*
X378760190Y-82780190D01*
X378379238Y-82780190D01*
X379379238Y-82732571D02*
X379712571Y-82732571D01*
X379855428Y-83256380D02*
X379379238Y-83256380D01*
X379379238Y-82256380D01*
X379855428Y-82256380D01*
X380617333Y-82732571D02*
X380284000Y-82732571D01*
X380284000Y-83256380D02*
X380284000Y-82256380D01*
X380760190Y-82256380D01*
X381284000Y-82256380D02*
X381284000Y-82494476D01*
X381045904Y-82399238D02*
X381284000Y-82494476D01*
X381522095Y-82399238D01*
X381141142Y-82684952D02*
X381284000Y-82494476D01*
X381426857Y-82684952D01*
X382045904Y-82256380D02*
X382045904Y-82494476D01*
X381807809Y-82399238D02*
X382045904Y-82494476D01*
X382284000Y-82399238D01*
X381903047Y-82684952D02*
X382045904Y-82494476D01*
X382188761Y-82684952D01*
X371118952Y-185119380D02*
X371118952Y-184119380D01*
X371452285Y-184833666D01*
X371785619Y-184119380D01*
X371785619Y-185119380D01*
X372404666Y-185119380D02*
X372309428Y-185071761D01*
X372261809Y-185024142D01*
X372214190Y-184928904D01*
X372214190Y-184643190D01*
X372261809Y-184547952D01*
X372309428Y-184500333D01*
X372404666Y-184452714D01*
X372547523Y-184452714D01*
X372642761Y-184500333D01*
X372690380Y-184547952D01*
X372738000Y-184643190D01*
X372738000Y-184928904D01*
X372690380Y-185024142D01*
X372642761Y-185071761D01*
X372547523Y-185119380D01*
X372404666Y-185119380D01*
X373595142Y-184452714D02*
X373595142Y-185119380D01*
X373166571Y-184452714D02*
X373166571Y-184976523D01*
X373214190Y-185071761D01*
X373309428Y-185119380D01*
X373452285Y-185119380D01*
X373547523Y-185071761D01*
X373595142Y-185024142D01*
X374071333Y-184452714D02*
X374071333Y-185119380D01*
X374071333Y-184547952D02*
X374118952Y-184500333D01*
X374214190Y-184452714D01*
X374357047Y-184452714D01*
X374452285Y-184500333D01*
X374499904Y-184595571D01*
X374499904Y-185119380D01*
X374833238Y-184452714D02*
X375214190Y-184452714D01*
X374976095Y-184119380D02*
X374976095Y-184976523D01*
X375023714Y-185071761D01*
X375118952Y-185119380D01*
X375214190Y-185119380D01*
X375547523Y-185119380D02*
X375547523Y-184452714D01*
X375547523Y-184119380D02*
X375499904Y-184167000D01*
X375547523Y-184214619D01*
X375595142Y-184167000D01*
X375547523Y-184119380D01*
X375547523Y-184214619D01*
X376023714Y-184452714D02*
X376023714Y-185119380D01*
X376023714Y-184547952D02*
X376071333Y-184500333D01*
X376166571Y-184452714D01*
X376309428Y-184452714D01*
X376404666Y-184500333D01*
X376452285Y-184595571D01*
X376452285Y-185119380D01*
X377357047Y-184452714D02*
X377357047Y-185262238D01*
X377309428Y-185357476D01*
X377261809Y-185405095D01*
X377166571Y-185452714D01*
X377023714Y-185452714D01*
X376928476Y-185405095D01*
X377357047Y-185071761D02*
X377261809Y-185119380D01*
X377071333Y-185119380D01*
X376976095Y-185071761D01*
X376928476Y-185024142D01*
X376880857Y-184928904D01*
X376880857Y-184643190D01*
X376928476Y-184547952D01*
X376976095Y-184500333D01*
X377071333Y-184452714D01*
X377261809Y-184452714D01*
X377357047Y-184500333D01*
X377833238Y-185119380D02*
X377833238Y-184119380D01*
X377833238Y-184595571D02*
X378404666Y-184595571D01*
X378404666Y-185119380D02*
X378404666Y-184119380D01*
X379023714Y-185119380D02*
X378928476Y-185071761D01*
X378880857Y-185024142D01*
X378833238Y-184928904D01*
X378833238Y-184643190D01*
X378880857Y-184547952D01*
X378928476Y-184500333D01*
X379023714Y-184452714D01*
X379166571Y-184452714D01*
X379261809Y-184500333D01*
X379309428Y-184547952D01*
X379357047Y-184643190D01*
X379357047Y-184928904D01*
X379309428Y-185024142D01*
X379261809Y-185071761D01*
X379166571Y-185119380D01*
X379023714Y-185119380D01*
X379928476Y-185119380D02*
X379833238Y-185071761D01*
X379785619Y-184976523D01*
X379785619Y-184119380D01*
X380690380Y-185071761D02*
X380595142Y-185119380D01*
X380404666Y-185119380D01*
X380309428Y-185071761D01*
X380261809Y-184976523D01*
X380261809Y-184595571D01*
X380309428Y-184500333D01*
X380404666Y-184452714D01*
X380595142Y-184452714D01*
X380690380Y-184500333D01*
X380738000Y-184595571D01*
X380738000Y-184690809D01*
X380261809Y-184786047D01*
X380928476Y-185214619D02*
X381690380Y-185214619D01*
X381833238Y-184119380D02*
X382452285Y-184119380D01*
X382118952Y-184500333D01*
X382261809Y-184500333D01*
X382357047Y-184547952D01*
X382404666Y-184595571D01*
X382452285Y-184690809D01*
X382452285Y-184928904D01*
X382404666Y-185024142D01*
X382357047Y-185071761D01*
X382261809Y-185119380D01*
X381976095Y-185119380D01*
X381880857Y-185071761D01*
X381833238Y-185024142D01*
X382880857Y-185024142D02*
X382928476Y-185071761D01*
X382880857Y-185119380D01*
X382833238Y-185071761D01*
X382880857Y-185024142D01*
X382880857Y-185119380D01*
X383309428Y-184214619D02*
X383357047Y-184167000D01*
X383452285Y-184119380D01*
X383690380Y-184119380D01*
X383785619Y-184167000D01*
X383833238Y-184214619D01*
X383880857Y-184309857D01*
X383880857Y-184405095D01*
X383833238Y-184547952D01*
X383261809Y-185119380D01*
X383880857Y-185119380D01*
X384309428Y-185119380D02*
X384309428Y-184452714D01*
X384309428Y-184547952D02*
X384357047Y-184500333D01*
X384452285Y-184452714D01*
X384595142Y-184452714D01*
X384690380Y-184500333D01*
X384738000Y-184595571D01*
X384738000Y-185119380D01*
X384738000Y-184595571D02*
X384785619Y-184500333D01*
X384880857Y-184452714D01*
X385023714Y-184452714D01*
X385118952Y-184500333D01*
X385166571Y-184595571D01*
X385166571Y-185119380D01*
X385642761Y-185119380D02*
X385642761Y-184452714D01*
X385642761Y-184547952D02*
X385690380Y-184500333D01*
X385785619Y-184452714D01*
X385928476Y-184452714D01*
X386023714Y-184500333D01*
X386071333Y-184595571D01*
X386071333Y-185119380D01*
X386071333Y-184595571D02*
X386118952Y-184500333D01*
X386214190Y-184452714D01*
X386357047Y-184452714D01*
X386452285Y-184500333D01*
X386499904Y-184595571D01*
X386499904Y-185119380D01*
X386738000Y-185214619D02*
X387499904Y-185214619D01*
X387738000Y-185119380D02*
X387738000Y-184119380D01*
X388071333Y-184833666D01*
X388404666Y-184119380D01*
X388404666Y-185119380D01*
X388785619Y-184119380D02*
X389404666Y-184119380D01*
X389071333Y-184500333D01*
X389214190Y-184500333D01*
X389309428Y-184547952D01*
X389357047Y-184595571D01*
X389404666Y-184690809D01*
X389404666Y-184928904D01*
X389357047Y-185024142D01*
X389309428Y-185071761D01*
X389214190Y-185119380D01*
X388928476Y-185119380D01*
X388833238Y-185071761D01*
X388785619Y-185024142D01*
X379204666Y-180919380D02*
X378871333Y-180443190D01*
X378633238Y-180919380D02*
X378633238Y-179919380D01*
X379014190Y-179919380D01*
X379109428Y-179967000D01*
X379157047Y-180014619D01*
X379204666Y-180109857D01*
X379204666Y-180252714D01*
X379157047Y-180347952D01*
X379109428Y-180395571D01*
X379014190Y-180443190D01*
X378633238Y-180443190D01*
X379633238Y-180395571D02*
X379966571Y-180395571D01*
X380109428Y-180919380D02*
X379633238Y-180919380D01*
X379633238Y-179919380D01*
X380109428Y-179919380D01*
X380871333Y-180395571D02*
X380538000Y-180395571D01*
X380538000Y-180919380D02*
X380538000Y-179919380D01*
X381014190Y-179919380D01*
X381538000Y-179919380D02*
X381538000Y-180157476D01*
X381299904Y-180062238D02*
X381538000Y-180157476D01*
X381776095Y-180062238D01*
X381395142Y-180347952D02*
X381538000Y-180157476D01*
X381680857Y-180347952D01*
X382299904Y-179919380D02*
X382299904Y-180157476D01*
X382061809Y-180062238D02*
X382299904Y-180157476D01*
X382538000Y-180062238D01*
X382157047Y-180347952D02*
X382299904Y-180157476D01*
X382442761Y-180347952D01*
X35203952Y-185055880D02*
X35203952Y-184055880D01*
X35537285Y-184770166D01*
X35870619Y-184055880D01*
X35870619Y-185055880D01*
X36489666Y-185055880D02*
X36394428Y-185008261D01*
X36346809Y-184960642D01*
X36299190Y-184865404D01*
X36299190Y-184579690D01*
X36346809Y-184484452D01*
X36394428Y-184436833D01*
X36489666Y-184389214D01*
X36632523Y-184389214D01*
X36727761Y-184436833D01*
X36775380Y-184484452D01*
X36823000Y-184579690D01*
X36823000Y-184865404D01*
X36775380Y-184960642D01*
X36727761Y-185008261D01*
X36632523Y-185055880D01*
X36489666Y-185055880D01*
X37680142Y-184389214D02*
X37680142Y-185055880D01*
X37251571Y-184389214D02*
X37251571Y-184913023D01*
X37299190Y-185008261D01*
X37394428Y-185055880D01*
X37537285Y-185055880D01*
X37632523Y-185008261D01*
X37680142Y-184960642D01*
X38156333Y-184389214D02*
X38156333Y-185055880D01*
X38156333Y-184484452D02*
X38203952Y-184436833D01*
X38299190Y-184389214D01*
X38442047Y-184389214D01*
X38537285Y-184436833D01*
X38584904Y-184532071D01*
X38584904Y-185055880D01*
X38918238Y-184389214D02*
X39299190Y-184389214D01*
X39061095Y-184055880D02*
X39061095Y-184913023D01*
X39108714Y-185008261D01*
X39203952Y-185055880D01*
X39299190Y-185055880D01*
X39632523Y-185055880D02*
X39632523Y-184389214D01*
X39632523Y-184055880D02*
X39584904Y-184103500D01*
X39632523Y-184151119D01*
X39680142Y-184103500D01*
X39632523Y-184055880D01*
X39632523Y-184151119D01*
X40108714Y-184389214D02*
X40108714Y-185055880D01*
X40108714Y-184484452D02*
X40156333Y-184436833D01*
X40251571Y-184389214D01*
X40394428Y-184389214D01*
X40489666Y-184436833D01*
X40537285Y-184532071D01*
X40537285Y-185055880D01*
X41442047Y-184389214D02*
X41442047Y-185198738D01*
X41394428Y-185293976D01*
X41346809Y-185341595D01*
X41251571Y-185389214D01*
X41108714Y-185389214D01*
X41013476Y-185341595D01*
X41442047Y-185008261D02*
X41346809Y-185055880D01*
X41156333Y-185055880D01*
X41061095Y-185008261D01*
X41013476Y-184960642D01*
X40965857Y-184865404D01*
X40965857Y-184579690D01*
X41013476Y-184484452D01*
X41061095Y-184436833D01*
X41156333Y-184389214D01*
X41346809Y-184389214D01*
X41442047Y-184436833D01*
X41918238Y-185055880D02*
X41918238Y-184055880D01*
X41918238Y-184532071D02*
X42489666Y-184532071D01*
X42489666Y-185055880D02*
X42489666Y-184055880D01*
X43108714Y-185055880D02*
X43013476Y-185008261D01*
X42965857Y-184960642D01*
X42918238Y-184865404D01*
X42918238Y-184579690D01*
X42965857Y-184484452D01*
X43013476Y-184436833D01*
X43108714Y-184389214D01*
X43251571Y-184389214D01*
X43346809Y-184436833D01*
X43394428Y-184484452D01*
X43442047Y-184579690D01*
X43442047Y-184865404D01*
X43394428Y-184960642D01*
X43346809Y-185008261D01*
X43251571Y-185055880D01*
X43108714Y-185055880D01*
X44013476Y-185055880D02*
X43918238Y-185008261D01*
X43870619Y-184913023D01*
X43870619Y-184055880D01*
X44775380Y-185008261D02*
X44680142Y-185055880D01*
X44489666Y-185055880D01*
X44394428Y-185008261D01*
X44346809Y-184913023D01*
X44346809Y-184532071D01*
X44394428Y-184436833D01*
X44489666Y-184389214D01*
X44680142Y-184389214D01*
X44775380Y-184436833D01*
X44823000Y-184532071D01*
X44823000Y-184627309D01*
X44346809Y-184722547D01*
X45013476Y-185151119D02*
X45775380Y-185151119D01*
X45918238Y-184055880D02*
X46537285Y-184055880D01*
X46203952Y-184436833D01*
X46346809Y-184436833D01*
X46442047Y-184484452D01*
X46489666Y-184532071D01*
X46537285Y-184627309D01*
X46537285Y-184865404D01*
X46489666Y-184960642D01*
X46442047Y-185008261D01*
X46346809Y-185055880D01*
X46061095Y-185055880D01*
X45965857Y-185008261D01*
X45918238Y-184960642D01*
X46965857Y-184960642D02*
X47013476Y-185008261D01*
X46965857Y-185055880D01*
X46918238Y-185008261D01*
X46965857Y-184960642D01*
X46965857Y-185055880D01*
X47394428Y-184151119D02*
X47442047Y-184103500D01*
X47537285Y-184055880D01*
X47775380Y-184055880D01*
X47870619Y-184103500D01*
X47918238Y-184151119D01*
X47965857Y-184246357D01*
X47965857Y-184341595D01*
X47918238Y-184484452D01*
X47346809Y-185055880D01*
X47965857Y-185055880D01*
X48394428Y-185055880D02*
X48394428Y-184389214D01*
X48394428Y-184484452D02*
X48442047Y-184436833D01*
X48537285Y-184389214D01*
X48680142Y-184389214D01*
X48775380Y-184436833D01*
X48822999Y-184532071D01*
X48822999Y-185055880D01*
X48822999Y-184532071D02*
X48870619Y-184436833D01*
X48965857Y-184389214D01*
X49108714Y-184389214D01*
X49203952Y-184436833D01*
X49251571Y-184532071D01*
X49251571Y-185055880D01*
X49727761Y-185055880D02*
X49727761Y-184389214D01*
X49727761Y-184484452D02*
X49775380Y-184436833D01*
X49870619Y-184389214D01*
X50013476Y-184389214D01*
X50108714Y-184436833D01*
X50156333Y-184532071D01*
X50156333Y-185055880D01*
X50156333Y-184532071D02*
X50203952Y-184436833D01*
X50299190Y-184389214D01*
X50442047Y-184389214D01*
X50537285Y-184436833D01*
X50584904Y-184532071D01*
X50584904Y-185055880D01*
X50822999Y-185151119D02*
X51584904Y-185151119D01*
X51822999Y-185055880D02*
X51822999Y-184055880D01*
X52156333Y-184770166D01*
X52489666Y-184055880D01*
X52489666Y-185055880D01*
X52870619Y-184055880D02*
X53489666Y-184055880D01*
X53156333Y-184436833D01*
X53299190Y-184436833D01*
X53394428Y-184484452D01*
X53442047Y-184532071D01*
X53489666Y-184627309D01*
X53489666Y-184865404D01*
X53442047Y-184960642D01*
X53394428Y-185008261D01*
X53299190Y-185055880D01*
X53013476Y-185055880D01*
X52918238Y-185008261D01*
X52870619Y-184960642D01*
X43289666Y-180855880D02*
X42956333Y-180379690D01*
X42718238Y-180855880D02*
X42718238Y-179855880D01*
X43099190Y-179855880D01*
X43194428Y-179903500D01*
X43242047Y-179951119D01*
X43289666Y-180046357D01*
X43289666Y-180189214D01*
X43242047Y-180284452D01*
X43194428Y-180332071D01*
X43099190Y-180379690D01*
X42718238Y-180379690D01*
X43718238Y-180332071D02*
X44051571Y-180332071D01*
X44194428Y-180855880D02*
X43718238Y-180855880D01*
X43718238Y-179855880D01*
X44194428Y-179855880D01*
X44956333Y-180332071D02*
X44623000Y-180332071D01*
X44623000Y-180855880D02*
X44623000Y-179855880D01*
X45099190Y-179855880D01*
X45623000Y-179855880D02*
X45623000Y-180093976D01*
X45384904Y-179998738D02*
X45623000Y-180093976D01*
X45861095Y-179998738D01*
X45480142Y-180284452D02*
X45623000Y-180093976D01*
X45765857Y-180284452D01*
X46384904Y-179855880D02*
X46384904Y-180093976D01*
X46146809Y-179998738D02*
X46384904Y-180093976D01*
X46623000Y-179998738D01*
X46242047Y-180284452D02*
X46384904Y-180093976D01*
X46527761Y-180284452D01*
X35013452Y-87329380D02*
X35013452Y-86329380D01*
X35346785Y-87043666D01*
X35680119Y-86329380D01*
X35680119Y-87329380D01*
X36299166Y-87329380D02*
X36203928Y-87281761D01*
X36156309Y-87234142D01*
X36108690Y-87138904D01*
X36108690Y-86853190D01*
X36156309Y-86757952D01*
X36203928Y-86710333D01*
X36299166Y-86662714D01*
X36442023Y-86662714D01*
X36537261Y-86710333D01*
X36584880Y-86757952D01*
X36632500Y-86853190D01*
X36632500Y-87138904D01*
X36584880Y-87234142D01*
X36537261Y-87281761D01*
X36442023Y-87329380D01*
X36299166Y-87329380D01*
X37489642Y-86662714D02*
X37489642Y-87329380D01*
X37061071Y-86662714D02*
X37061071Y-87186523D01*
X37108690Y-87281761D01*
X37203928Y-87329380D01*
X37346785Y-87329380D01*
X37442023Y-87281761D01*
X37489642Y-87234142D01*
X37965833Y-86662714D02*
X37965833Y-87329380D01*
X37965833Y-86757952D02*
X38013452Y-86710333D01*
X38108690Y-86662714D01*
X38251547Y-86662714D01*
X38346785Y-86710333D01*
X38394404Y-86805571D01*
X38394404Y-87329380D01*
X38727738Y-86662714D02*
X39108690Y-86662714D01*
X38870595Y-86329380D02*
X38870595Y-87186523D01*
X38918214Y-87281761D01*
X39013452Y-87329380D01*
X39108690Y-87329380D01*
X39442023Y-87329380D02*
X39442023Y-86662714D01*
X39442023Y-86329380D02*
X39394404Y-86377000D01*
X39442023Y-86424619D01*
X39489642Y-86377000D01*
X39442023Y-86329380D01*
X39442023Y-86424619D01*
X39918214Y-86662714D02*
X39918214Y-87329380D01*
X39918214Y-86757952D02*
X39965833Y-86710333D01*
X40061071Y-86662714D01*
X40203928Y-86662714D01*
X40299166Y-86710333D01*
X40346785Y-86805571D01*
X40346785Y-87329380D01*
X41251547Y-86662714D02*
X41251547Y-87472238D01*
X41203928Y-87567476D01*
X41156309Y-87615095D01*
X41061071Y-87662714D01*
X40918214Y-87662714D01*
X40822976Y-87615095D01*
X41251547Y-87281761D02*
X41156309Y-87329380D01*
X40965833Y-87329380D01*
X40870595Y-87281761D01*
X40822976Y-87234142D01*
X40775357Y-87138904D01*
X40775357Y-86853190D01*
X40822976Y-86757952D01*
X40870595Y-86710333D01*
X40965833Y-86662714D01*
X41156309Y-86662714D01*
X41251547Y-86710333D01*
X41727738Y-87329380D02*
X41727738Y-86329380D01*
X41727738Y-86805571D02*
X42299166Y-86805571D01*
X42299166Y-87329380D02*
X42299166Y-86329380D01*
X42918214Y-87329380D02*
X42822976Y-87281761D01*
X42775357Y-87234142D01*
X42727738Y-87138904D01*
X42727738Y-86853190D01*
X42775357Y-86757952D01*
X42822976Y-86710333D01*
X42918214Y-86662714D01*
X43061071Y-86662714D01*
X43156309Y-86710333D01*
X43203928Y-86757952D01*
X43251547Y-86853190D01*
X43251547Y-87138904D01*
X43203928Y-87234142D01*
X43156309Y-87281761D01*
X43061071Y-87329380D01*
X42918214Y-87329380D01*
X43822976Y-87329380D02*
X43727738Y-87281761D01*
X43680119Y-87186523D01*
X43680119Y-86329380D01*
X44584880Y-87281761D02*
X44489642Y-87329380D01*
X44299166Y-87329380D01*
X44203928Y-87281761D01*
X44156309Y-87186523D01*
X44156309Y-86805571D01*
X44203928Y-86710333D01*
X44299166Y-86662714D01*
X44489642Y-86662714D01*
X44584880Y-86710333D01*
X44632500Y-86805571D01*
X44632500Y-86900809D01*
X44156309Y-86996047D01*
X44822976Y-87424619D02*
X45584880Y-87424619D01*
X45727738Y-86329380D02*
X46346785Y-86329380D01*
X46013452Y-86710333D01*
X46156309Y-86710333D01*
X46251547Y-86757952D01*
X46299166Y-86805571D01*
X46346785Y-86900809D01*
X46346785Y-87138904D01*
X46299166Y-87234142D01*
X46251547Y-87281761D01*
X46156309Y-87329380D01*
X45870595Y-87329380D01*
X45775357Y-87281761D01*
X45727738Y-87234142D01*
X46775357Y-87234142D02*
X46822976Y-87281761D01*
X46775357Y-87329380D01*
X46727738Y-87281761D01*
X46775357Y-87234142D01*
X46775357Y-87329380D01*
X47203928Y-86424619D02*
X47251547Y-86377000D01*
X47346785Y-86329380D01*
X47584880Y-86329380D01*
X47680119Y-86377000D01*
X47727738Y-86424619D01*
X47775357Y-86519857D01*
X47775357Y-86615095D01*
X47727738Y-86757952D01*
X47156309Y-87329380D01*
X47775357Y-87329380D01*
X48203928Y-87329380D02*
X48203928Y-86662714D01*
X48203928Y-86757952D02*
X48251547Y-86710333D01*
X48346785Y-86662714D01*
X48489642Y-86662714D01*
X48584880Y-86710333D01*
X48632499Y-86805571D01*
X48632499Y-87329380D01*
X48632499Y-86805571D02*
X48680119Y-86710333D01*
X48775357Y-86662714D01*
X48918214Y-86662714D01*
X49013452Y-86710333D01*
X49061071Y-86805571D01*
X49061071Y-87329380D01*
X49537261Y-87329380D02*
X49537261Y-86662714D01*
X49537261Y-86757952D02*
X49584880Y-86710333D01*
X49680119Y-86662714D01*
X49822976Y-86662714D01*
X49918214Y-86710333D01*
X49965833Y-86805571D01*
X49965833Y-87329380D01*
X49965833Y-86805571D02*
X50013452Y-86710333D01*
X50108690Y-86662714D01*
X50251547Y-86662714D01*
X50346785Y-86710333D01*
X50394404Y-86805571D01*
X50394404Y-87329380D01*
X50632499Y-87424619D02*
X51394404Y-87424619D01*
X51632499Y-87329380D02*
X51632499Y-86329380D01*
X51965833Y-87043666D01*
X52299166Y-86329380D01*
X52299166Y-87329380D01*
X52680119Y-86329380D02*
X53299166Y-86329380D01*
X52965833Y-86710333D01*
X53108690Y-86710333D01*
X53203928Y-86757952D01*
X53251547Y-86805571D01*
X53299166Y-86900809D01*
X53299166Y-87138904D01*
X53251547Y-87234142D01*
X53203928Y-87281761D01*
X53108690Y-87329380D01*
X52822976Y-87329380D01*
X52727738Y-87281761D01*
X52680119Y-87234142D01*
X43099166Y-83129380D02*
X42765833Y-82653190D01*
X42527738Y-83129380D02*
X42527738Y-82129380D01*
X42908690Y-82129380D01*
X43003928Y-82177000D01*
X43051547Y-82224619D01*
X43099166Y-82319857D01*
X43099166Y-82462714D01*
X43051547Y-82557952D01*
X43003928Y-82605571D01*
X42908690Y-82653190D01*
X42527738Y-82653190D01*
X43527738Y-82605571D02*
X43861071Y-82605571D01*
X44003928Y-83129380D02*
X43527738Y-83129380D01*
X43527738Y-82129380D01*
X44003928Y-82129380D01*
X44765833Y-82605571D02*
X44432500Y-82605571D01*
X44432500Y-83129380D02*
X44432500Y-82129380D01*
X44908690Y-82129380D01*
X45432500Y-82129380D02*
X45432500Y-82367476D01*
X45194404Y-82272238D02*
X45432500Y-82367476D01*
X45670595Y-82272238D01*
X45289642Y-82557952D02*
X45432500Y-82367476D01*
X45575357Y-82557952D01*
X46194404Y-82129380D02*
X46194404Y-82367476D01*
X45956309Y-82272238D02*
X46194404Y-82367476D01*
X46432500Y-82272238D01*
X46051547Y-82557952D02*
X46194404Y-82367476D01*
X46337261Y-82557952D01*
X141693452Y-145431880D02*
X141693452Y-144431880D01*
X142026785Y-145146166D01*
X142360119Y-144431880D01*
X142360119Y-145431880D01*
X142979166Y-145431880D02*
X142883928Y-145384261D01*
X142836309Y-145336642D01*
X142788690Y-145241404D01*
X142788690Y-144955690D01*
X142836309Y-144860452D01*
X142883928Y-144812833D01*
X142979166Y-144765214D01*
X143122023Y-144765214D01*
X143217261Y-144812833D01*
X143264880Y-144860452D01*
X143312500Y-144955690D01*
X143312500Y-145241404D01*
X143264880Y-145336642D01*
X143217261Y-145384261D01*
X143122023Y-145431880D01*
X142979166Y-145431880D01*
X144169642Y-144765214D02*
X144169642Y-145431880D01*
X143741071Y-144765214D02*
X143741071Y-145289023D01*
X143788690Y-145384261D01*
X143883928Y-145431880D01*
X144026785Y-145431880D01*
X144122023Y-145384261D01*
X144169642Y-145336642D01*
X144645833Y-144765214D02*
X144645833Y-145431880D01*
X144645833Y-144860452D02*
X144693452Y-144812833D01*
X144788690Y-144765214D01*
X144931547Y-144765214D01*
X145026785Y-144812833D01*
X145074404Y-144908071D01*
X145074404Y-145431880D01*
X145407738Y-144765214D02*
X145788690Y-144765214D01*
X145550595Y-144431880D02*
X145550595Y-145289023D01*
X145598214Y-145384261D01*
X145693452Y-145431880D01*
X145788690Y-145431880D01*
X146122023Y-145431880D02*
X146122023Y-144765214D01*
X146122023Y-144431880D02*
X146074404Y-144479500D01*
X146122023Y-144527119D01*
X146169642Y-144479500D01*
X146122023Y-144431880D01*
X146122023Y-144527119D01*
X146598214Y-144765214D02*
X146598214Y-145431880D01*
X146598214Y-144860452D02*
X146645833Y-144812833D01*
X146741071Y-144765214D01*
X146883928Y-144765214D01*
X146979166Y-144812833D01*
X147026785Y-144908071D01*
X147026785Y-145431880D01*
X147931547Y-144765214D02*
X147931547Y-145574738D01*
X147883928Y-145669976D01*
X147836309Y-145717595D01*
X147741071Y-145765214D01*
X147598214Y-145765214D01*
X147502976Y-145717595D01*
X147931547Y-145384261D02*
X147836309Y-145431880D01*
X147645833Y-145431880D01*
X147550595Y-145384261D01*
X147502976Y-145336642D01*
X147455357Y-145241404D01*
X147455357Y-144955690D01*
X147502976Y-144860452D01*
X147550595Y-144812833D01*
X147645833Y-144765214D01*
X147836309Y-144765214D01*
X147931547Y-144812833D01*
X148407738Y-145431880D02*
X148407738Y-144431880D01*
X148407738Y-144908071D02*
X148979166Y-144908071D01*
X148979166Y-145431880D02*
X148979166Y-144431880D01*
X149598214Y-145431880D02*
X149502976Y-145384261D01*
X149455357Y-145336642D01*
X149407738Y-145241404D01*
X149407738Y-144955690D01*
X149455357Y-144860452D01*
X149502976Y-144812833D01*
X149598214Y-144765214D01*
X149741071Y-144765214D01*
X149836309Y-144812833D01*
X149883928Y-144860452D01*
X149931547Y-144955690D01*
X149931547Y-145241404D01*
X149883928Y-145336642D01*
X149836309Y-145384261D01*
X149741071Y-145431880D01*
X149598214Y-145431880D01*
X150502976Y-145431880D02*
X150407738Y-145384261D01*
X150360119Y-145289023D01*
X150360119Y-144431880D01*
X151264880Y-145384261D02*
X151169642Y-145431880D01*
X150979166Y-145431880D01*
X150883928Y-145384261D01*
X150836309Y-145289023D01*
X150836309Y-144908071D01*
X150883928Y-144812833D01*
X150979166Y-144765214D01*
X151169642Y-144765214D01*
X151264880Y-144812833D01*
X151312500Y-144908071D01*
X151312500Y-145003309D01*
X150836309Y-145098547D01*
X151502976Y-145527119D02*
X152264880Y-145527119D01*
X152407738Y-144431880D02*
X153026785Y-144431880D01*
X152693452Y-144812833D01*
X152836309Y-144812833D01*
X152931547Y-144860452D01*
X152979166Y-144908071D01*
X153026785Y-145003309D01*
X153026785Y-145241404D01*
X152979166Y-145336642D01*
X152931547Y-145384261D01*
X152836309Y-145431880D01*
X152550595Y-145431880D01*
X152455357Y-145384261D01*
X152407738Y-145336642D01*
X153455357Y-145336642D02*
X153502976Y-145384261D01*
X153455357Y-145431880D01*
X153407738Y-145384261D01*
X153455357Y-145336642D01*
X153455357Y-145431880D01*
X153883928Y-144527119D02*
X153931547Y-144479500D01*
X154026785Y-144431880D01*
X154264880Y-144431880D01*
X154360119Y-144479500D01*
X154407738Y-144527119D01*
X154455357Y-144622357D01*
X154455357Y-144717595D01*
X154407738Y-144860452D01*
X153836309Y-145431880D01*
X154455357Y-145431880D01*
X154883928Y-145431880D02*
X154883928Y-144765214D01*
X154883928Y-144860452D02*
X154931547Y-144812833D01*
X155026785Y-144765214D01*
X155169642Y-144765214D01*
X155264880Y-144812833D01*
X155312500Y-144908071D01*
X155312500Y-145431880D01*
X155312500Y-144908071D02*
X155360119Y-144812833D01*
X155455357Y-144765214D01*
X155598214Y-144765214D01*
X155693452Y-144812833D01*
X155741071Y-144908071D01*
X155741071Y-145431880D01*
X156217261Y-145431880D02*
X156217261Y-144765214D01*
X156217261Y-144860452D02*
X156264880Y-144812833D01*
X156360119Y-144765214D01*
X156502976Y-144765214D01*
X156598214Y-144812833D01*
X156645833Y-144908071D01*
X156645833Y-145431880D01*
X156645833Y-144908071D02*
X156693452Y-144812833D01*
X156788690Y-144765214D01*
X156931547Y-144765214D01*
X157026785Y-144812833D01*
X157074404Y-144908071D01*
X157074404Y-145431880D01*
X157312500Y-145527119D02*
X158074404Y-145527119D01*
X158312500Y-145431880D02*
X158312500Y-144431880D01*
X158645833Y-145146166D01*
X158979166Y-144431880D01*
X158979166Y-145431880D01*
X159360119Y-144431880D02*
X159979166Y-144431880D01*
X159645833Y-144812833D01*
X159788690Y-144812833D01*
X159883928Y-144860452D01*
X159931547Y-144908071D01*
X159979166Y-145003309D01*
X159979166Y-145241404D01*
X159931547Y-145336642D01*
X159883928Y-145384261D01*
X159788690Y-145431880D01*
X159502976Y-145431880D01*
X159407738Y-145384261D01*
X159360119Y-145336642D01*
X149779166Y-141231880D02*
X149445833Y-140755690D01*
X149207738Y-141231880D02*
X149207738Y-140231880D01*
X149588690Y-140231880D01*
X149683928Y-140279500D01*
X149731547Y-140327119D01*
X149779166Y-140422357D01*
X149779166Y-140565214D01*
X149731547Y-140660452D01*
X149683928Y-140708071D01*
X149588690Y-140755690D01*
X149207738Y-140755690D01*
X150207738Y-140708071D02*
X150541071Y-140708071D01*
X150683928Y-141231880D02*
X150207738Y-141231880D01*
X150207738Y-140231880D01*
X150683928Y-140231880D01*
X151445833Y-140708071D02*
X151112500Y-140708071D01*
X151112500Y-141231880D02*
X151112500Y-140231880D01*
X151588690Y-140231880D01*
X152112500Y-140231880D02*
X152112500Y-140469976D01*
X151874404Y-140374738D02*
X152112500Y-140469976D01*
X152350595Y-140374738D01*
X151969642Y-140660452D02*
X152112500Y-140469976D01*
X152255357Y-140660452D01*
X152874404Y-140231880D02*
X152874404Y-140469976D01*
X152636309Y-140374738D02*
X152874404Y-140469976D01*
X153112500Y-140374738D01*
X152731547Y-140660452D02*
X152874404Y-140469976D01*
X153017261Y-140660452D01*
X237514952Y-143653880D02*
X237514952Y-142653880D01*
X237848285Y-143368166D01*
X238181619Y-142653880D01*
X238181619Y-143653880D01*
X238800666Y-143653880D02*
X238705428Y-143606261D01*
X238657809Y-143558642D01*
X238610190Y-143463404D01*
X238610190Y-143177690D01*
X238657809Y-143082452D01*
X238705428Y-143034833D01*
X238800666Y-142987214D01*
X238943523Y-142987214D01*
X239038761Y-143034833D01*
X239086380Y-143082452D01*
X239134000Y-143177690D01*
X239134000Y-143463404D01*
X239086380Y-143558642D01*
X239038761Y-143606261D01*
X238943523Y-143653880D01*
X238800666Y-143653880D01*
X239991142Y-142987214D02*
X239991142Y-143653880D01*
X239562571Y-142987214D02*
X239562571Y-143511023D01*
X239610190Y-143606261D01*
X239705428Y-143653880D01*
X239848285Y-143653880D01*
X239943523Y-143606261D01*
X239991142Y-143558642D01*
X240467333Y-142987214D02*
X240467333Y-143653880D01*
X240467333Y-143082452D02*
X240514952Y-143034833D01*
X240610190Y-142987214D01*
X240753047Y-142987214D01*
X240848285Y-143034833D01*
X240895904Y-143130071D01*
X240895904Y-143653880D01*
X241229238Y-142987214D02*
X241610190Y-142987214D01*
X241372095Y-142653880D02*
X241372095Y-143511023D01*
X241419714Y-143606261D01*
X241514952Y-143653880D01*
X241610190Y-143653880D01*
X241943523Y-143653880D02*
X241943523Y-142987214D01*
X241943523Y-142653880D02*
X241895904Y-142701500D01*
X241943523Y-142749119D01*
X241991142Y-142701500D01*
X241943523Y-142653880D01*
X241943523Y-142749119D01*
X242419714Y-142987214D02*
X242419714Y-143653880D01*
X242419714Y-143082452D02*
X242467333Y-143034833D01*
X242562571Y-142987214D01*
X242705428Y-142987214D01*
X242800666Y-143034833D01*
X242848285Y-143130071D01*
X242848285Y-143653880D01*
X243753047Y-142987214D02*
X243753047Y-143796738D01*
X243705428Y-143891976D01*
X243657809Y-143939595D01*
X243562571Y-143987214D01*
X243419714Y-143987214D01*
X243324476Y-143939595D01*
X243753047Y-143606261D02*
X243657809Y-143653880D01*
X243467333Y-143653880D01*
X243372095Y-143606261D01*
X243324476Y-143558642D01*
X243276857Y-143463404D01*
X243276857Y-143177690D01*
X243324476Y-143082452D01*
X243372095Y-143034833D01*
X243467333Y-142987214D01*
X243657809Y-142987214D01*
X243753047Y-143034833D01*
X244229238Y-143653880D02*
X244229238Y-142653880D01*
X244229238Y-143130071D02*
X244800666Y-143130071D01*
X244800666Y-143653880D02*
X244800666Y-142653880D01*
X245419714Y-143653880D02*
X245324476Y-143606261D01*
X245276857Y-143558642D01*
X245229238Y-143463404D01*
X245229238Y-143177690D01*
X245276857Y-143082452D01*
X245324476Y-143034833D01*
X245419714Y-142987214D01*
X245562571Y-142987214D01*
X245657809Y-143034833D01*
X245705428Y-143082452D01*
X245753047Y-143177690D01*
X245753047Y-143463404D01*
X245705428Y-143558642D01*
X245657809Y-143606261D01*
X245562571Y-143653880D01*
X245419714Y-143653880D01*
X246324476Y-143653880D02*
X246229238Y-143606261D01*
X246181619Y-143511023D01*
X246181619Y-142653880D01*
X247086380Y-143606261D02*
X246991142Y-143653880D01*
X246800666Y-143653880D01*
X246705428Y-143606261D01*
X246657809Y-143511023D01*
X246657809Y-143130071D01*
X246705428Y-143034833D01*
X246800666Y-142987214D01*
X246991142Y-142987214D01*
X247086380Y-143034833D01*
X247134000Y-143130071D01*
X247134000Y-143225309D01*
X246657809Y-143320547D01*
X247324476Y-143749119D02*
X248086380Y-143749119D01*
X248229238Y-142653880D02*
X248848285Y-142653880D01*
X248514952Y-143034833D01*
X248657809Y-143034833D01*
X248753047Y-143082452D01*
X248800666Y-143130071D01*
X248848285Y-143225309D01*
X248848285Y-143463404D01*
X248800666Y-143558642D01*
X248753047Y-143606261D01*
X248657809Y-143653880D01*
X248372095Y-143653880D01*
X248276857Y-143606261D01*
X248229238Y-143558642D01*
X249276857Y-143558642D02*
X249324476Y-143606261D01*
X249276857Y-143653880D01*
X249229238Y-143606261D01*
X249276857Y-143558642D01*
X249276857Y-143653880D01*
X249705428Y-142749119D02*
X249753047Y-142701500D01*
X249848285Y-142653880D01*
X250086380Y-142653880D01*
X250181619Y-142701500D01*
X250229238Y-142749119D01*
X250276857Y-142844357D01*
X250276857Y-142939595D01*
X250229238Y-143082452D01*
X249657809Y-143653880D01*
X250276857Y-143653880D01*
X250705428Y-143653880D02*
X250705428Y-142987214D01*
X250705428Y-143082452D02*
X250753047Y-143034833D01*
X250848285Y-142987214D01*
X250991142Y-142987214D01*
X251086380Y-143034833D01*
X251134000Y-143130071D01*
X251134000Y-143653880D01*
X251134000Y-143130071D02*
X251181619Y-143034833D01*
X251276857Y-142987214D01*
X251419714Y-142987214D01*
X251514952Y-143034833D01*
X251562571Y-143130071D01*
X251562571Y-143653880D01*
X252038761Y-143653880D02*
X252038761Y-142987214D01*
X252038761Y-143082452D02*
X252086380Y-143034833D01*
X252181619Y-142987214D01*
X252324476Y-142987214D01*
X252419714Y-143034833D01*
X252467333Y-143130071D01*
X252467333Y-143653880D01*
X252467333Y-143130071D02*
X252514952Y-143034833D01*
X252610190Y-142987214D01*
X252753047Y-142987214D01*
X252848285Y-143034833D01*
X252895904Y-143130071D01*
X252895904Y-143653880D01*
X253134000Y-143749119D02*
X253895904Y-143749119D01*
X254134000Y-143653880D02*
X254134000Y-142653880D01*
X254467333Y-143368166D01*
X254800666Y-142653880D01*
X254800666Y-143653880D01*
X255181619Y-142653880D02*
X255800666Y-142653880D01*
X255467333Y-143034833D01*
X255610190Y-143034833D01*
X255705428Y-143082452D01*
X255753047Y-143130071D01*
X255800666Y-143225309D01*
X255800666Y-143463404D01*
X255753047Y-143558642D01*
X255705428Y-143606261D01*
X255610190Y-143653880D01*
X255324476Y-143653880D01*
X255229238Y-143606261D01*
X255181619Y-143558642D01*
X245600666Y-139453880D02*
X245267333Y-138977690D01*
X245029238Y-139453880D02*
X245029238Y-138453880D01*
X245410190Y-138453880D01*
X245505428Y-138501500D01*
X245553047Y-138549119D01*
X245600666Y-138644357D01*
X245600666Y-138787214D01*
X245553047Y-138882452D01*
X245505428Y-138930071D01*
X245410190Y-138977690D01*
X245029238Y-138977690D01*
X246029238Y-138930071D02*
X246362571Y-138930071D01*
X246505428Y-139453880D02*
X246029238Y-139453880D01*
X246029238Y-138453880D01*
X246505428Y-138453880D01*
X247267333Y-138930071D02*
X246934000Y-138930071D01*
X246934000Y-139453880D02*
X246934000Y-138453880D01*
X247410190Y-138453880D01*
X247934000Y-138453880D02*
X247934000Y-138691976D01*
X247695904Y-138596738D02*
X247934000Y-138691976D01*
X248172095Y-138596738D01*
X247791142Y-138882452D02*
X247934000Y-138691976D01*
X248076857Y-138882452D01*
X248695904Y-138453880D02*
X248695904Y-138691976D01*
X248457809Y-138596738D02*
X248695904Y-138691976D01*
X248934000Y-138596738D01*
X248553047Y-138882452D02*
X248695904Y-138691976D01*
X248838761Y-138882452D01*
G04 #@! TD*
M02*
