G04 #@! TF.GenerationSoftware,KiCad,Pcbnew,(5.0.2)-1*
G04 #@! TF.CreationDate,2019-03-25T23:00:56+03:00*
G04 #@! TF.ProjectId,Mechanical Keyboard,4d656368-616e-4696-9361-6c204b657962,rev?*
G04 #@! TF.SameCoordinates,Original*
G04 #@! TF.FileFunction,Paste,Bot*
G04 #@! TF.FilePolarity,Positive*
%FSLAX46Y46*%
G04 Gerber Fmt 4.6, Leading zero omitted, Abs format (unit mm)*
G04 Created by KiCad (PCBNEW (5.0.2)-1) date 25.03.2019 23:00:56*
%MOMM*%
%LPD*%
G01*
G04 APERTURE LIST*
%ADD10R,1.250000X1.500000*%
%ADD11R,0.900000X1.200000*%
%ADD12R,1.200000X0.900000*%
%ADD13R,2.049780X4.000500*%
%ADD14R,2.049780X3.500120*%
%ADD15O,0.500400X2.500000*%
%ADD16R,3.100000X1.000000*%
%ADD17R,1.500000X1.250000*%
%ADD18R,1.500000X1.300000*%
%ADD19R,1.300000X1.500000*%
G04 APERTURE END LIST*
D10*
G04 #@! TO.C,C101*
X369255219Y-80782015D03*
X369255219Y-83282015D03*
G04 #@! TD*
D11*
G04 #@! TO.C,D57*
X286006000Y-120904000D03*
X289306000Y-120904000D03*
G04 #@! TD*
G04 #@! TO.C,D52*
X267210000Y-120904000D03*
X270510000Y-120904000D03*
G04 #@! TD*
G04 #@! TO.C,D43*
X228856000Y-120650000D03*
X232156000Y-120650000D03*
G04 #@! TD*
G04 #@! TO.C,D35*
X190882000Y-120904000D03*
X194182000Y-120904000D03*
G04 #@! TD*
G04 #@! TO.C,D22*
X133860000Y-120904000D03*
X137160000Y-120904000D03*
G04 #@! TD*
G04 #@! TO.C,D1*
X48008000Y-101854000D03*
X51308000Y-101854000D03*
G04 #@! TD*
G04 #@! TO.C,D2*
X52834000Y-120904000D03*
X56134000Y-120904000D03*
G04 #@! TD*
G04 #@! TO.C,D3*
X54060000Y-136130000D03*
X57360000Y-136130000D03*
G04 #@! TD*
G04 #@! TO.C,D4*
X57390000Y-160200000D03*
X60690000Y-160200000D03*
G04 #@! TD*
G04 #@! TO.C,D5*
X50420000Y-177800000D03*
X53720000Y-177800000D03*
G04 #@! TD*
G04 #@! TO.C,D6*
X67056000Y-101854000D03*
X70356000Y-101854000D03*
G04 #@! TD*
G04 #@! TO.C,D7*
X76710000Y-120904000D03*
X80010000Y-120904000D03*
G04 #@! TD*
D12*
G04 #@! TO.C,D8*
X85830000Y-142560000D03*
X85830000Y-139260000D03*
G04 #@! TD*
D11*
G04 #@! TO.C,D9*
X90806000Y-159004000D03*
X94106000Y-159004000D03*
G04 #@! TD*
G04 #@! TO.C,D10*
X82548000Y-176276000D03*
X79248000Y-176276000D03*
G04 #@! TD*
G04 #@! TO.C,D11*
X86234000Y-101854000D03*
X89534000Y-101854000D03*
G04 #@! TD*
G04 #@! TO.C,D12*
X95632000Y-120904000D03*
X98932000Y-120904000D03*
G04 #@! TD*
G04 #@! TO.C,D13*
X100332000Y-139954000D03*
X103632000Y-139954000D03*
G04 #@! TD*
G04 #@! TO.C,D14*
X109856000Y-159004000D03*
X113156000Y-159004000D03*
G04 #@! TD*
G04 #@! TO.C,D15*
X104012000Y-176276000D03*
X100712000Y-176276000D03*
G04 #@! TD*
G04 #@! TO.C,D16*
X104902000Y-101854000D03*
X108202000Y-101854000D03*
G04 #@! TD*
G04 #@! TO.C,D17*
X114554000Y-120904000D03*
X117854000Y-120904000D03*
G04 #@! TD*
G04 #@! TO.C,D18*
X119382000Y-139954000D03*
X122682000Y-139954000D03*
G04 #@! TD*
G04 #@! TO.C,D19*
X129034000Y-158750000D03*
X132334000Y-158750000D03*
G04 #@! TD*
G04 #@! TO.C,D20*
X127634000Y-176276000D03*
X124334000Y-176276000D03*
G04 #@! TD*
G04 #@! TO.C,D21*
X124208000Y-101854000D03*
X127508000Y-101854000D03*
G04 #@! TD*
G04 #@! TO.C,D23*
X138432000Y-139954000D03*
X141732000Y-139954000D03*
G04 #@! TD*
D12*
G04 #@! TO.C,D24*
X152560000Y-161550000D03*
X152560000Y-158250000D03*
G04 #@! TD*
D11*
G04 #@! TO.C,D25*
X202946000Y-176126000D03*
X199646000Y-176126000D03*
G04 #@! TD*
G04 #@! TO.C,D26*
X143258000Y-101854000D03*
X146558000Y-101854000D03*
G04 #@! TD*
G04 #@! TO.C,D27*
X152910000Y-120904000D03*
X156210000Y-120904000D03*
G04 #@! TD*
G04 #@! TO.C,D28*
X157354000Y-139954000D03*
X160654000Y-139954000D03*
G04 #@! TD*
D12*
G04 #@! TO.C,D29*
X166624000Y-153164000D03*
X166624000Y-156464000D03*
G04 #@! TD*
D11*
G04 #@! TO.C,D30*
X162308000Y-101600000D03*
X165608000Y-101600000D03*
G04 #@! TD*
G04 #@! TO.C,D31*
X171960000Y-120904000D03*
X175260000Y-120904000D03*
G04 #@! TD*
G04 #@! TO.C,D32*
X176658000Y-139954000D03*
X179958000Y-139954000D03*
G04 #@! TD*
G04 #@! TO.C,D33*
X186184000Y-159004000D03*
X189484000Y-159004000D03*
G04 #@! TD*
G04 #@! TO.C,D34*
X181358000Y-101854000D03*
X184658000Y-101854000D03*
G04 #@! TD*
G04 #@! TO.C,D36*
X195582000Y-139954000D03*
X198882000Y-139954000D03*
G04 #@! TD*
G04 #@! TO.C,D37*
X205106000Y-159004000D03*
X208406000Y-159004000D03*
G04 #@! TD*
G04 #@! TO.C,D38*
X200408000Y-101600000D03*
X203708000Y-101600000D03*
G04 #@! TD*
G04 #@! TO.C,D39*
X209806000Y-120904000D03*
X213106000Y-120904000D03*
G04 #@! TD*
G04 #@! TO.C,D40*
X214504000Y-139700000D03*
X217804000Y-139700000D03*
G04 #@! TD*
G04 #@! TO.C,D41*
X224284000Y-159004000D03*
X227584000Y-159004000D03*
G04 #@! TD*
G04 #@! TO.C,D42*
X219458000Y-101854000D03*
X222758000Y-101854000D03*
G04 #@! TD*
G04 #@! TO.C,D44*
X233808000Y-139954000D03*
X237108000Y-139954000D03*
G04 #@! TD*
G04 #@! TO.C,D45*
X243670000Y-147390000D03*
X246970000Y-147390000D03*
G04 #@! TD*
G04 #@! TO.C,D46*
X238508000Y-101854000D03*
X241808000Y-101854000D03*
G04 #@! TD*
G04 #@! TO.C,D47*
X247906000Y-120904000D03*
X251206000Y-120904000D03*
G04 #@! TD*
G04 #@! TO.C,D48*
X252732000Y-139954000D03*
X256032000Y-139954000D03*
G04 #@! TD*
G04 #@! TO.C,D49*
X269496000Y-159004000D03*
X272796000Y-159004000D03*
G04 #@! TD*
G04 #@! TO.C,D50*
X268096000Y-176276000D03*
X264796000Y-176276000D03*
G04 #@! TD*
G04 #@! TO.C,D51*
X257558000Y-101854000D03*
X260858000Y-101854000D03*
G04 #@! TD*
G04 #@! TO.C,D53*
X271782000Y-139700000D03*
X275082000Y-139700000D03*
G04 #@! TD*
G04 #@! TO.C,D54*
X295658000Y-159004000D03*
X298958000Y-159004000D03*
G04 #@! TD*
G04 #@! TO.C,D55*
X287120000Y-176230000D03*
X283820000Y-176230000D03*
G04 #@! TD*
G04 #@! TO.C,D56*
X276608000Y-101854000D03*
X279908000Y-101854000D03*
G04 #@! TD*
G04 #@! TO.C,D58*
X302896000Y-139954000D03*
X306196000Y-139954000D03*
G04 #@! TD*
G04 #@! TO.C,D59*
X314580000Y-158750000D03*
X317880000Y-158750000D03*
G04 #@! TD*
G04 #@! TO.C,D60*
X306704000Y-175006000D03*
X303404000Y-175006000D03*
G04 #@! TD*
G04 #@! TO.C,D61*
X305056000Y-101854000D03*
X308356000Y-101854000D03*
G04 #@! TD*
G04 #@! TO.C,D62*
X309754000Y-120904000D03*
X313054000Y-120904000D03*
G04 #@! TD*
G04 #@! TO.C,D63*
X353800000Y-100110000D03*
X350500000Y-100110000D03*
G04 #@! TD*
G04 #@! TO.C,D64*
X353800000Y-119120000D03*
X350500000Y-119120000D03*
G04 #@! TD*
G04 #@! TO.C,D65*
X325400000Y-176190000D03*
X322100000Y-176190000D03*
G04 #@! TD*
G04 #@! TO.C,D66*
X372870000Y-100080000D03*
X369570000Y-100080000D03*
G04 #@! TD*
G04 #@! TO.C,D67*
X372730000Y-119150000D03*
X369430000Y-119150000D03*
G04 #@! TD*
G04 #@! TO.C,D68*
X353910000Y-176280000D03*
X350610000Y-176280000D03*
G04 #@! TD*
G04 #@! TO.C,D69*
X372940000Y-176250000D03*
X369640000Y-176250000D03*
G04 #@! TD*
D13*
G04 #@! TO.C,J1*
X340205060Y-82770980D03*
X330354940Y-82770980D03*
D14*
X330354940Y-87022940D03*
X340205060Y-87022940D03*
D15*
X335280000Y-87022900D03*
X334479900Y-87022900D03*
X333679800Y-87022900D03*
X336080100Y-87022900D03*
X336880200Y-87022900D03*
G04 #@! TD*
D16*
G04 #@! TO.C,S101*
X347340000Y-135097500D03*
X356240000Y-131097000D03*
X356240000Y-135095000D03*
X347340000Y-131097000D03*
G04 #@! TD*
D10*
G04 #@! TO.C,C1*
X367030000Y-129286000D03*
X367030000Y-126786000D03*
G04 #@! TD*
G04 #@! TO.C,C4*
X377952000Y-126746000D03*
X377952000Y-129246000D03*
G04 #@! TD*
G04 #@! TO.C,C6*
X331978000Y-95250000D03*
X331978000Y-97750000D03*
G04 #@! TD*
D17*
G04 #@! TO.C,C102*
X291235457Y-81837024D03*
X293735457Y-81837024D03*
G04 #@! TD*
D10*
G04 #@! TO.C,C103*
X209751411Y-80666023D03*
X209751411Y-83166023D03*
G04 #@! TD*
G04 #@! TO.C,C104*
X132037258Y-80814742D03*
X132037258Y-83314742D03*
G04 #@! TD*
G04 #@! TO.C,C105*
X52639065Y-80958126D03*
X52639065Y-83458126D03*
G04 #@! TD*
G04 #@! TO.C,C106*
X55264689Y-182488132D03*
X55264689Y-179988132D03*
G04 #@! TD*
G04 #@! TO.C,C107*
X131318000Y-182606000D03*
X131318000Y-180106000D03*
G04 #@! TD*
G04 #@! TO.C,C108*
X211920000Y-182596000D03*
X211920000Y-180096000D03*
G04 #@! TD*
D17*
G04 #@! TO.C,C109*
X291846000Y-181610000D03*
X294346000Y-181610000D03*
G04 #@! TD*
D10*
G04 #@! TO.C,C110*
X369062000Y-182606000D03*
X369062000Y-180106000D03*
G04 #@! TD*
D18*
G04 #@! TO.C,R1*
X350596200Y-128473200D03*
X353296200Y-128473200D03*
G04 #@! TD*
D19*
G04 #@! TO.C,R2*
X337058000Y-97950000D03*
X337058000Y-95250000D03*
G04 #@! TD*
G04 #@! TO.C,R3*
X334518000Y-97950000D03*
X334518000Y-95250000D03*
G04 #@! TD*
G04 #@! TO.C,R5*
X371030500Y-126713000D03*
X371030500Y-129413000D03*
G04 #@! TD*
G04 #@! TO.C,R6*
X376364500Y-151290000D03*
X376364500Y-148590000D03*
G04 #@! TD*
G04 #@! TO.C,R7*
X359918000Y-96012000D03*
X359918000Y-93312000D03*
G04 #@! TD*
G04 #@! TO.C,R8*
X342265000Y-139653000D03*
X342265000Y-136953000D03*
G04 #@! TD*
D18*
G04 #@! TO.C,R11*
X347218000Y-148488400D03*
X349918000Y-148488400D03*
G04 #@! TD*
D19*
G04 #@! TO.C,R100*
X376174000Y-179578000D03*
X376174000Y-182278000D03*
G04 #@! TD*
M02*
