  0
SECTION
  2
HEADER
  9
$ACADVER
  1
AC1009
  9
$EXTMIN
 10
0.0
 20
0.0
 30
0.0
  9
$EXTMAX
 10
1000.0
 20
1000.0
 30
0.0
  9
$FILLMODE
 70
 0
  9
$SPLFRAME
 70
 1
  0
ENDSEC
  0
SECTION
  2
TABLES
  0
TABLE
  2
LAYER
 70
1
  0
LAYER
  2
0
 70
     0
 62
     7
  6
CONTINUOUS
  0
ENDTAB
  0
ENDSEC
  0
SECTION
  2
ENTITIES
  0
LINE
  8
0
 62
     0
 10
338.471
 20
105.343
 30
0.0
 11
338.862
 21
105.327
 31
0.0
  0
LINE
  8
0
 62
     0
 10
338.862
 20
105.327
 30
0.0
 11
339.252
 21
105.282
 31
0.0
  0
LINE
  8
0
 62
     0
 10
339.252
 20
105.282
 30
0.0
 11
339.638
 21
105.205
 31
0.0
  0
LINE
  8
0
 62
     0
 10
339.638
 20
105.205
 30
0.0
 11
340.016
 21
105.099
 31
0.0
  0
LINE
  8
0
 62
     0
 10
340.016
 20
105.099
 30
0.0
 11
340.384
 21
104.962
 31
0.0
  0
LINE
  8
0
 62
     0
 10
340.384
 20
104.962
 30
0.0
 11
340.739
 21
104.798
 31
0.0
  0
LINE
  8
0
 62
     0
 10
340.739
 20
104.798
 30
0.0
 11
341.082
 21
104.607
 31
0.0
  0
LINE
  8
0
 62
     0
 10
341.082
 20
104.607
 30
0.0
 11
341.409
 21
104.389
 31
0.0
  0
LINE
  8
0
 62
     0
 10
341.409
 20
104.389
 30
0.0
 11
341.717
 21
104.147
 31
0.0
  0
LINE
  8
0
 62
     0
 10
341.717
 20
104.147
 30
0.0
 11
342.006
 21
103.879
 31
0.0
  0
LINE
  8
0
 62
     0
 10
342.006
 20
103.879
 30
0.0
 11
342.273
 21
103.591
 31
0.0
  0
LINE
  8
0
 62
     0
 10
342.273
 20
103.591
 30
0.0
 11
342.515
 21
103.283
 31
0.0
  0
LINE
  8
0
 62
     0
 10
342.515
 20
103.283
 30
0.0
 11
342.733
 21
102.956
 31
0.0
  0
LINE
  8
0
 62
     0
 10
342.733
 20
102.956
 30
0.0
 11
342.926
 21
102.613
 31
0.0
  0
LINE
  8
0
 62
     0
 10
342.926
 20
102.613
 30
0.0
 11
343.09
 21
102.257
 31
0.0
  0
LINE
  8
0
 62
     0
 10
343.09
 20
102.257
 30
0.0
 11
343.225
 21
101.889
 31
0.0
  0
LINE
  8
0
 62
     0
 10
343.225
 20
101.889
 30
0.0
 11
343.331
 21
101.51
 31
0.0
  0
LINE
  8
0
 62
     0
 10
343.331
 20
101.51
 30
0.0
 11
343.408
 21
101.126
 31
0.0
  0
LINE
  8
0
 62
     0
 10
343.408
 20
101.126
 30
0.0
 11
343.455
 21
100.736
 31
0.0
  0
LINE
  8
0
 62
     0
 10
343.455
 20
100.736
 30
0.0
 11
343.469
 21
100.343
 31
0.0
  0
LINE
  8
0
 62
     0
 10
343.469
 20
100.343
 30
0.0
 11
343.47
 21
5.09185
 31
0.0
  0
LINE
  8
0
 62
     0
 10
343.47
 20
5.09185
 30
0.0
 11
343.455
 21
4.70048
 31
0.0
  0
LINE
  8
0
 62
     0
 10
343.455
 20
4.70048
 30
0.0
 11
343.408
 21
4.31052
 31
0.0
  0
LINE
  8
0
 62
     0
 10
343.408
 20
4.31052
 30
0.0
 11
343.331
 21
3.92465
 31
0.0
  0
LINE
  8
0
 62
     0
 10
343.331
 20
3.92465
 30
0.0
 11
343.225
 21
3.54707
 31
0.0
  0
LINE
  8
0
 62
     0
 10
343.225
 20
3.54707
 30
0.0
 11
343.09
 21
3.17913
 31
0.0
  0
LINE
  8
0
 62
     0
 10
343.09
 20
3.17913
 30
0.0
 11
342.926
 21
2.8236
 31
0.0
  0
LINE
  8
0
 62
     0
 10
342.926
 20
2.8236
 30
0.0
 11
342.733
 21
2.48047
 31
0.0
  0
LINE
  8
0
 62
     0
 10
342.733
 20
2.48047
 30
0.0
 11
342.515
 21
2.15387
 31
0.0
  0
LINE
  8
0
 62
     0
 10
342.515
 20
2.15387
 30
0.0
 11
342.273
 21
1.84519
 31
0.0
  0
LINE
  8
0
 62
     0
 10
342.273
 20
1.84519
 30
0.0
 11
342.006
 21
1.55718
 31
0.0
  0
LINE
  8
0
 62
     0
 10
342.006
 20
1.55718
 30
0.0
 11
341.717
 21
1.28984
 31
0.0
  0
LINE
  8
0
 62
     0
 10
341.717
 20
1.28984
 30
0.0
 11
341.409
 21
1.04731
 31
0.0
  0
LINE
  8
0
 62
     0
 10
341.409
 20
1.04731
 30
0.0
 11
341.082
 21
0.829578
 31
0.0
  0
LINE
  8
0
 62
     0
 10
341.082
 20
0.829578
 30
0.0
 11
340.739
 21
0.636655
 31
0.0
  0
LINE
  8
0
 62
     0
 10
340.739
 20
0.636655
 30
0.0
 11
340.384
 21
0.472666
 31
0.0
  0
LINE
  8
0
 62
     0
 10
340.384
 20
0.472666
 30
0.0
 11
340.016
 21
0.337619
 31
0.0
  0
LINE
  8
0
 62
     0
 10
340.016
 20
0.337619
 30
0.0
 11
339.638
 21
0.23151
 31
0.0
  0
LINE
  8
0
 62
     0
 10
339.638
 20
0.23151
 30
0.0
 11
339.252
 21
0.15434
 31
0.0
  0
LINE
  8
0
 62
     0
 10
339.252
 20
0.15434
 30
0.0
 11
338.862
 21
0.107487
 31
0.0
  0
LINE
  8
0
 62
     0
 10
338.862
 20
0.107487
 30
0.0
 11
338.471
 21
0.0923286
 31
0.0
  0
LINE
  8
0
 62
     0
 10
338.471
 20
0.0923286
 30
0.0
 11
5.0946
 21
0.0923286
 31
0.0
  0
LINE
  8
0
 62
     0
 10
5.0946
 20
0.0923286
 30
0.0
 11
4.70186
 21
0.107487
 31
0.0
  0
LINE
  8
0
 62
     0
 10
4.70186
 20
0.107487
 30
0.0
 11
4.3119
 21
0.15434
 31
0.0
  0
LINE
  8
0
 62
     0
 10
4.3119
 20
0.15434
 30
0.0
 11
3.9274
 21
0.23151
 31
0.0
  0
LINE
  8
0
 62
     0
 10
3.9274
 20
0.23151
 30
0.0
 11
3.54845
 21
0.337619
 31
0.0
  0
LINE
  8
0
 62
     0
 10
3.54845
 20
0.337619
 30
0.0
 11
3.18051
 21
0.472666
 31
0.0
  0
LINE
  8
0
 62
     0
 10
3.18051
 20
0.472666
 30
0.0
 11
2.82498
 21
0.636655
 31
0.0
  0
LINE
  8
0
 62
     0
 10
2.82498
 20
0.636655
 30
0.0
 11
2.48185
 21
0.829578
 31
0.0
  0
LINE
  8
0
 62
     0
 10
2.48185
 20
0.829578
 30
0.0
 11
2.15525
 21
1.04731
 31
0.0
  0
LINE
  8
0
 62
     0
 10
2.15525
 20
1.04731
 30
0.0
 11
1.84657
 21
1.28984
 31
0.0
  0
LINE
  8
0
 62
     0
 10
1.84657
 20
1.28984
 30
0.0
 11
1.55856
 21
1.55718
 31
0.0
  0
LINE
  8
0
 62
     0
 10
1.55856
 20
1.55718
 30
0.0
 11
1.29122
 21
1.84519
 31
0.0
  0
LINE
  8
0
 62
     0
 10
1.29122
 20
1.84519
 30
0.0
 11
1.04869
 21
2.15387
 31
0.0
  0
LINE
  8
0
 62
     0
 10
1.04869
 20
2.15387
 30
0.0
 11
0.830957
 21
2.48047
 31
0.0
  0
LINE
  8
0
 62
     0
 10
0.830957
 20
2.48047
 30
0.0
 11
0.63941
 21
2.8236
 31
0.0
  0
LINE
  8
0
 62
     0
 10
0.63941
 20
2.8236
 30
0.0
 11
0.475424
 21
3.17913
 31
0.0
  0
LINE
  8
0
 62
     0
 10
0.475424
 20
3.17913
 30
0.0
 11
0.338998
 21
3.54707
 31
0.0
  0
LINE
  8
0
 62
     0
 10
0.338998
 20
3.54707
 30
0.0
 11
0.232888
 21
3.92465
 31
0.0
  0
LINE
  8
0
 62
     0
 10
0.232888
 20
3.92465
 30
0.0
 11
0.155718
 21
4.31052
 31
0.0
  0
LINE
  8
0
 62
     0
 10
0.155718
 20
4.31052
 30
0.0
 11
0.110243
 21
4.70048
 31
0.0
  0
LINE
  8
0
 62
     0
 10
0.110243
 20
4.70048
 30
0.0
 11
0.0937066
 21
5.09323
 31
0.0
  0
LINE
  8
0
 62
     0
 10
0.0937066
 20
5.09323
 30
0.0
 11
0.0950846
 21
100.343
 31
0.0
  0
LINE
  8
0
 62
     0
 10
0.0950846
 20
100.343
 30
0.0
 11
0.110243
 21
100.736
 31
0.0
  0
LINE
  8
0
 62
     0
 10
0.110243
 20
100.736
 30
0.0
 11
0.155718
 21
101.126
 31
0.0
  0
LINE
  8
0
 62
     0
 10
0.155718
 20
101.126
 30
0.0
 11
0.232888
 21
101.51
 31
0.0
  0
LINE
  8
0
 62
     0
 10
0.232888
 20
101.51
 30
0.0
 11
0.338998
 21
101.889
 31
0.0
  0
LINE
  8
0
 62
     0
 10
0.338998
 20
101.889
 30
0.0
 11
0.475424
 21
102.257
 31
0.0
  0
LINE
  8
0
 62
     0
 10
0.475424
 20
102.257
 30
0.0
 11
0.63941
 21
102.613
 31
0.0
  0
LINE
  8
0
 62
     0
 10
0.63941
 20
102.613
 30
0.0
 11
0.830957
 21
102.956
 31
0.0
  0
LINE
  8
0
 62
     0
 10
0.830957
 20
102.956
 30
0.0
 11
1.04869
 21
103.283
 31
0.0
  0
LINE
  8
0
 62
     0
 10
1.04869
 20
103.283
 30
0.0
 11
1.29122
 21
103.591
 31
0.0
  0
LINE
  8
0
 62
     0
 10
1.29122
 20
103.591
 30
0.0
 11
1.55856
 21
103.879
 31
0.0
  0
LINE
  8
0
 62
     0
 10
1.55856
 20
103.879
 30
0.0
 11
1.84657
 21
104.147
 31
0.0
  0
LINE
  8
0
 62
     0
 10
1.84657
 20
104.147
 30
0.0
 11
2.15525
 21
104.389
 31
0.0
  0
LINE
  8
0
 62
     0
 10
2.15525
 20
104.389
 30
0.0
 11
2.48185
 21
104.607
 31
0.0
  0
LINE
  8
0
 62
     0
 10
2.48185
 20
104.607
 30
0.0
 11
2.82498
 21
104.798
 31
0.0
  0
LINE
  8
0
 62
     0
 10
2.82498
 20
104.798
 30
0.0
 11
3.18051
 21
104.962
 31
0.0
  0
LINE
  8
0
 62
     0
 10
3.18051
 20
104.962
 30
0.0
 11
3.54845
 21
105.099
 31
0.0
  0
LINE
  8
0
 62
     0
 10
3.54845
 20
105.099
 30
0.0
 11
3.9274
 21
105.205
 31
0.0
  0
LINE
  8
0
 62
     0
 10
3.9274
 20
105.205
 30
0.0
 11
4.3119
 21
105.282
 31
0.0
  0
LINE
  8
0
 62
     0
 10
4.3119
 20
105.282
 30
0.0
 11
4.70186
 21
105.327
 31
0.0
  0
LINE
  8
0
 62
     0
 10
4.70186
 20
105.327
 30
0.0
 11
5.0946
 21
105.344
 31
0.0
  0
LINE
  8
0
 62
     0
 10
5.0946
 20
105.344
 30
0.0
 11
338.471
 21
105.343
 31
0.0
  0
LINE
  8
0
 62
     0
 10
148.113
 20
21.6187
 30
0.0
 11
148.113
 21
20.6182
 31
0.0
  0
LINE
  8
0
 62
     0
 10
148.113
 20
20.6182
 30
0.0
 11
147.312
 21
20.6182
 31
0.0
  0
LINE
  8
0
 62
     0
 10
147.312
 20
20.6182
 30
0.0
 11
147.312
 21
17.519
 31
0.0
  0
LINE
  8
0
 62
     0
 10
147.312
 20
17.519
 30
0.0
 11
148.113
 21
17.519
 31
0.0
  0
LINE
  8
0
 62
     0
 10
148.113
 20
17.519
 30
0.0
 11
148.113
 21
16.9182
 31
0.0
  0
LINE
  8
0
 62
     0
 10
148.113
 20
16.9182
 30
0.0
 11
108.487
 21
16.9182
 31
0.0
  0
LINE
  8
0
 62
     0
 10
108.487
 20
16.9182
 30
0.0
 11
108.487
 21
20.1483
 31
0.0
  0
LINE
  8
0
 62
     0
 10
108.487
 20
20.1483
 30
0.0
 11
106.762
 21
20.1483
 31
0.0
  0
LINE
  8
0
 62
     0
 10
106.762
 20
20.1483
 30
0.0
 11
106.762
 21
21.0688
 31
0.0
  0
LINE
  8
0
 62
     0
 10
106.762
 20
21.0688
 30
0.0
 11
103.463
 21
21.0688
 31
0.0
  0
LINE
  8
0
 62
     0
 10
103.463
 20
21.0688
 30
0.0
 11
103.463
 21
20.1483
 31
0.0
  0
LINE
  8
0
 62
     0
 10
103.463
 20
20.1483
 30
0.0
 11
101.738
 21
20.1483
 31
0.0
  0
LINE
  8
0
 62
     0
 10
101.738
 20
20.1483
 30
0.0
 11
101.738
 21
16.9182
 31
0.0
  0
LINE
  8
0
 62
     0
 10
101.738
 20
16.9182
 30
0.0
 11
100.912
 21
16.9182
 31
0.0
  0
LINE
  8
0
 62
     0
 10
100.912
 20
16.9182
 30
0.0
 11
100.912
 21
14.118
 31
0.0
  0
LINE
  8
0
 62
     0
 10
100.912
 20
14.118
 30
0.0
 11
101.738
 21
14.118
 31
0.0
  0
LINE
  8
0
 62
     0
 10
101.738
 20
14.118
 30
0.0
 11
101.738
 21
7.84931
 31
0.0
  0
LINE
  8
0
 62
     0
 10
101.738
 20
7.84931
 30
0.0
 11
103.463
 21
7.84931
 31
0.0
  0
LINE
  8
0
 62
     0
 10
103.463
 20
7.84931
 30
0.0
 11
103.463
 21
6.86816
 31
0.0
  0
LINE
  8
0
 62
     0
 10
103.463
 20
6.86816
 30
0.0
 11
106.762
 21
6.86816
 31
0.0
  0
LINE
  8
0
 62
     0
 10
106.762
 20
6.86816
 30
0.0
 11
106.762
 21
7.84931
 31
0.0
  0
LINE
  8
0
 62
     0
 10
106.762
 20
7.84931
 30
0.0
 11
108.487
 21
7.84931
 31
0.0
  0
LINE
  8
0
 62
     0
 10
108.487
 20
7.84931
 30
0.0
 11
108.487
 21
12.3197
 31
0.0
  0
LINE
  8
0
 62
     0
 10
108.487
 20
12.3197
 30
0.0
 11
148.113
 21
12.3197
 31
0.0
  0
LINE
  8
0
 62
     0
 10
148.113
 20
12.3197
 30
0.0
 11
148.113
 21
11.7174
 31
0.0
  0
LINE
  8
0
 62
     0
 10
148.113
 20
11.7174
 30
0.0
 11
147.312
 21
11.7174
 31
0.0
  0
LINE
  8
0
 62
     0
 10
147.312
 20
11.7174
 30
0.0
 11
147.312
 21
8.61826
 31
0.0
  0
LINE
  8
0
 62
     0
 10
147.312
 20
8.61826
 30
0.0
 11
148.113
 21
8.61826
 31
0.0
  0
LINE
  8
0
 62
     0
 10
148.113
 20
8.61826
 30
0.0
 11
148.113
 21
7.61781
 31
0.0
  0
LINE
  8
0
 62
     0
 10
148.113
 20
7.61781
 30
0.0
 11
162.112
 21
7.61781
 31
0.0
  0
LINE
  8
0
 62
     0
 10
162.112
 20
7.61781
 30
0.0
 11
162.112
 21
8.61826
 31
0.0
  0
LINE
  8
0
 62
     0
 10
162.112
 20
8.61826
 30
0.0
 11
162.913
 21
8.61826
 31
0.0
  0
LINE
  8
0
 62
     0
 10
162.913
 20
8.61826
 30
0.0
 11
162.913
 21
11.7174
 31
0.0
  0
LINE
  8
0
 62
     0
 10
162.913
 20
11.7174
 30
0.0
 11
162.112
 21
11.7174
 31
0.0
  0
LINE
  8
0
 62
     0
 10
162.112
 20
11.7174
 30
0.0
 11
162.112
 21
12.3197
 31
0.0
  0
LINE
  8
0
 62
     0
 10
162.112
 20
12.3197
 30
0.0
 11
201.738
 21
12.3197
 31
0.0
  0
LINE
  8
0
 62
     0
 10
201.738
 20
12.3197
 30
0.0
 11
201.738
 21
7.84931
 31
0.0
  0
LINE
  8
0
 62
     0
 10
201.738
 20
7.84931
 30
0.0
 11
203.463
 21
7.84931
 31
0.0
  0
LINE
  8
0
 62
     0
 10
203.463
 20
7.84931
 30
0.0
 11
203.463
 21
6.86816
 31
0.0
  0
LINE
  8
0
 62
     0
 10
203.463
 20
6.86816
 30
0.0
 11
206.762
 21
6.86816
 31
0.0
  0
LINE
  8
0
 62
     0
 10
206.762
 20
6.86816
 30
0.0
 11
206.762
 21
7.84931
 31
0.0
  0
LINE
  8
0
 62
     0
 10
206.762
 20
7.84931
 30
0.0
 11
208.487
 21
7.84931
 31
0.0
  0
LINE
  8
0
 62
     0
 10
208.487
 20
7.84931
 30
0.0
 11
208.487
 21
14.118
 31
0.0
  0
LINE
  8
0
 62
     0
 10
208.487
 20
14.118
 30
0.0
 11
209.313
 21
14.118
 31
0.0
  0
LINE
  8
0
 62
     0
 10
209.313
 20
14.118
 30
0.0
 11
209.313
 21
16.9182
 31
0.0
  0
LINE
  8
0
 62
     0
 10
209.313
 20
16.9182
 30
0.0
 11
208.487
 21
16.9182
 31
0.0
  0
LINE
  8
0
 62
     0
 10
208.487
 20
16.9182
 30
0.0
 11
208.487
 21
20.1483
 31
0.0
  0
LINE
  8
0
 62
     0
 10
208.487
 20
20.1483
 30
0.0
 11
206.762
 21
20.1483
 31
0.0
  0
LINE
  8
0
 62
     0
 10
206.762
 20
20.1483
 30
0.0
 11
206.762
 21
21.0688
 31
0.0
  0
LINE
  8
0
 62
     0
 10
206.762
 20
21.0688
 30
0.0
 11
203.463
 21
21.0688
 31
0.0
  0
LINE
  8
0
 62
     0
 10
203.463
 20
21.0688
 30
0.0
 11
203.463
 21
20.1483
 31
0.0
  0
LINE
  8
0
 62
     0
 10
203.463
 20
20.1483
 30
0.0
 11
201.738
 21
20.1483
 31
0.0
  0
LINE
  8
0
 62
     0
 10
201.738
 20
20.1483
 30
0.0
 11
201.738
 21
16.9182
 31
0.0
  0
LINE
  8
0
 62
     0
 10
201.738
 20
16.9182
 30
0.0
 11
162.112
 21
16.9182
 31
0.0
  0
LINE
  8
0
 62
     0
 10
162.112
 20
16.9182
 30
0.0
 11
162.112
 21
17.519
 31
0.0
  0
LINE
  8
0
 62
     0
 10
162.112
 20
17.519
 30
0.0
 11
162.913
 21
17.519
 31
0.0
  0
LINE
  8
0
 62
     0
 10
162.913
 20
17.519
 30
0.0
 11
162.913
 21
20.6182
 31
0.0
  0
LINE
  8
0
 62
     0
 10
162.913
 20
20.6182
 30
0.0
 11
162.112
 21
20.6182
 31
0.0
  0
LINE
  8
0
 62
     0
 10
162.112
 20
20.6182
 30
0.0
 11
162.112
 21
21.6187
 31
0.0
  0
LINE
  8
0
 62
     0
 10
162.112
 20
21.6187
 30
0.0
 11
148.113
 21
21.6187
 31
0.0
  0
LINE
  8
0
 62
     0
 10
10.0004
 20
21.6187
 30
0.0
 11
10.0004
 21
20.6182
 31
0.0
  0
LINE
  8
0
 62
     0
 10
10.0004
 20
20.6182
 30
0.0
 11
9.20115
 21
20.6182
 31
0.0
  0
LINE
  8
0
 62
     0
 10
9.20115
 20
20.6182
 30
0.0
 11
9.20115
 21
17.519
 31
0.0
  0
LINE
  8
0
 62
     0
 10
9.20115
 20
17.519
 30
0.0
 11
10.0004
 21
17.519
 31
0.0
  0
LINE
  8
0
 62
     0
 10
10.0004
 20
17.519
 30
0.0
 11
10.0004
 21
11.7174
 31
0.0
  0
LINE
  8
0
 62
     0
 10
10.0004
 20
11.7174
 30
0.0
 11
9.20115
 21
11.7174
 31
0.0
  0
LINE
  8
0
 62
     0
 10
9.20115
 20
11.7174
 30
0.0
 11
9.20115
 21
8.61826
 31
0.0
  0
LINE
  8
0
 62
     0
 10
9.20115
 20
8.61826
 30
0.0
 11
10.0004
 21
8.61826
 31
0.0
  0
LINE
  8
0
 62
     0
 10
10.0004
 20
8.61826
 30
0.0
 11
10.0004
 21
7.61781
 31
0.0
  0
LINE
  8
0
 62
     0
 10
10.0004
 20
7.61781
 30
0.0
 11
24.0013
 21
7.61781
 31
0.0
  0
LINE
  8
0
 62
     0
 10
24.0013
 20
7.61781
 30
0.0
 11
24.0013
 21
8.61826
 31
0.0
  0
LINE
  8
0
 62
     0
 10
24.0013
 20
8.61826
 30
0.0
 11
24.8006
 21
8.61826
 31
0.0
  0
LINE
  8
0
 62
     0
 10
24.8006
 20
8.61826
 30
0.0
 11
24.8006
 21
11.7174
 31
0.0
  0
LINE
  8
0
 62
     0
 10
24.8006
 20
11.7174
 30
0.0
 11
24.0013
 21
11.7174
 31
0.0
  0
LINE
  8
0
 62
     0
 10
24.0013
 20
11.7174
 30
0.0
 11
24.0013
 21
17.519
 31
0.0
  0
LINE
  8
0
 62
     0
 10
24.0013
 20
17.519
 30
0.0
 11
24.8006
 21
17.519
 31
0.0
  0
LINE
  8
0
 62
     0
 10
24.8006
 20
17.519
 30
0.0
 11
24.8006
 21
20.6182
 31
0.0
  0
LINE
  8
0
 62
     0
 10
24.8006
 20
20.6182
 30
0.0
 11
24.0013
 21
20.6182
 31
0.0
  0
LINE
  8
0
 62
     0
 10
24.0013
 20
20.6182
 30
0.0
 11
24.0013
 21
21.6187
 31
0.0
  0
LINE
  8
0
 62
     0
 10
24.0013
 20
21.6187
 30
0.0
 11
10.0004
 21
21.6187
 31
0.0
  0
LINE
  8
0
 62
     0
 10
31.4317
 20
21.6187
 30
0.0
 11
31.4317
 21
20.6182
 31
0.0
  0
LINE
  8
0
 62
     0
 10
31.4317
 20
20.6182
 30
0.0
 11
30.6324
 21
20.6182
 31
0.0
  0
LINE
  8
0
 62
     0
 10
30.6324
 20
20.6182
 30
0.0
 11
30.6324
 21
17.519
 31
0.0
  0
LINE
  8
0
 62
     0
 10
30.6324
 20
17.519
 30
0.0
 11
31.4317
 21
17.519
 31
0.0
  0
LINE
  8
0
 62
     0
 10
31.4317
 20
17.519
 30
0.0
 11
31.4317
 21
11.7174
 31
0.0
  0
LINE
  8
0
 62
     0
 10
31.4317
 20
11.7174
 30
0.0
 11
30.6324
 21
11.7174
 31
0.0
  0
LINE
  8
0
 62
     0
 10
30.6324
 20
11.7174
 30
0.0
 11
30.6324
 21
8.61826
 31
0.0
  0
LINE
  8
0
 62
     0
 10
30.6324
 20
8.61826
 30
0.0
 11
31.4317
 21
8.61826
 31
0.0
  0
LINE
  8
0
 62
     0
 10
31.4317
 20
8.61826
 30
0.0
 11
31.4317
 21
7.61781
 31
0.0
  0
LINE
  8
0
 62
     0
 10
31.4317
 20
7.61781
 30
0.0
 11
45.4311
 21
7.61781
 31
0.0
  0
LINE
  8
0
 62
     0
 10
45.4311
 20
7.61781
 30
0.0
 11
45.4311
 21
8.61826
 31
0.0
  0
LINE
  8
0
 62
     0
 10
45.4311
 20
8.61826
 30
0.0
 11
46.2319
 21
8.61826
 31
0.0
  0
LINE
  8
0
 62
     0
 10
46.2319
 20
8.61826
 30
0.0
 11
46.2319
 21
11.7174
 31
0.0
  0
LINE
  8
0
 62
     0
 10
46.2319
 20
11.7174
 30
0.0
 11
45.4311
 21
11.7174
 31
0.0
  0
LINE
  8
0
 62
     0
 10
45.4311
 20
11.7174
 30
0.0
 11
45.4311
 21
17.519
 31
0.0
  0
LINE
  8
0
 62
     0
 10
45.4311
 20
17.519
 30
0.0
 11
46.2319
 21
17.519
 31
0.0
  0
LINE
  8
0
 62
     0
 10
46.2319
 20
17.519
 30
0.0
 11
46.2319
 21
20.6182
 31
0.0
  0
LINE
  8
0
 62
     0
 10
46.2319
 20
20.6182
 30
0.0
 11
45.4311
 21
20.6182
 31
0.0
  0
LINE
  8
0
 62
     0
 10
45.4311
 20
20.6182
 30
0.0
 11
45.4311
 21
21.6187
 31
0.0
  0
LINE
  8
0
 62
     0
 10
45.4311
 20
21.6187
 30
0.0
 11
31.4317
 21
21.6187
 31
0.0
  0
LINE
  8
0
 62
     0
 10
52.863
 20
21.6187
 30
0.0
 11
52.863
 21
20.6182
 31
0.0
  0
LINE
  8
0
 62
     0
 10
52.863
 20
20.6182
 30
0.0
 11
52.0622
 21
20.6182
 31
0.0
  0
LINE
  8
0
 62
     0
 10
52.0622
 20
20.6182
 30
0.0
 11
52.0622
 21
17.519
 31
0.0
  0
LINE
  8
0
 62
     0
 10
52.0622
 20
17.519
 30
0.0
 11
52.863
 21
17.519
 31
0.0
  0
LINE
  8
0
 62
     0
 10
52.863
 20
17.519
 30
0.0
 11
52.863
 21
11.7174
 31
0.0
  0
LINE
  8
0
 62
     0
 10
52.863
 20
11.7174
 30
0.0
 11
52.0622
 21
11.7174
 31
0.0
  0
LINE
  8
0
 62
     0
 10
52.0622
 20
11.7174
 30
0.0
 11
52.0622
 21
8.61826
 31
0.0
  0
LINE
  8
0
 62
     0
 10
52.0622
 20
8.61826
 30
0.0
 11
52.863
 21
8.61826
 31
0.0
  0
LINE
  8
0
 62
     0
 10
52.863
 20
8.61826
 30
0.0
 11
52.863
 21
7.61781
 31
0.0
  0
LINE
  8
0
 62
     0
 10
52.863
 20
7.61781
 30
0.0
 11
66.8623
 21
7.61781
 31
0.0
  0
LINE
  8
0
 62
     0
 10
66.8623
 20
7.61781
 30
0.0
 11
66.8623
 21
8.61826
 31
0.0
  0
LINE
  8
0
 62
     0
 10
66.8623
 20
8.61826
 30
0.0
 11
67.6631
 21
8.61826
 31
0.0
  0
LINE
  8
0
 62
     0
 10
67.6631
 20
8.61826
 30
0.0
 11
67.6631
 21
11.7174
 31
0.0
  0
LINE
  8
0
 62
     0
 10
67.6631
 20
11.7174
 30
0.0
 11
66.8623
 21
11.7174
 31
0.0
  0
LINE
  8
0
 62
     0
 10
66.8623
 20
11.7174
 30
0.0
 11
66.8623
 21
17.519
 31
0.0
  0
LINE
  8
0
 62
     0
 10
66.8623
 20
17.519
 30
0.0
 11
67.6631
 21
17.519
 31
0.0
  0
LINE
  8
0
 62
     0
 10
67.6631
 20
17.519
 30
0.0
 11
67.6631
 21
20.6182
 31
0.0
  0
LINE
  8
0
 62
     0
 10
67.6631
 20
20.6182
 30
0.0
 11
66.8623
 21
20.6182
 31
0.0
  0
LINE
  8
0
 62
     0
 10
66.8623
 20
20.6182
 30
0.0
 11
66.8623
 21
21.6187
 31
0.0
  0
LINE
  8
0
 62
     0
 10
66.8623
 20
21.6187
 30
0.0
 11
52.863
 21
21.6187
 31
0.0
  0
LINE
  8
0
 62
     0
 10
76.6755
 20
21.6187
 30
0.0
 11
76.6755
 21
20.6182
 31
0.0
  0
LINE
  8
0
 62
     0
 10
76.6755
 20
20.6182
 30
0.0
 11
75.8762
 21
20.6182
 31
0.0
  0
LINE
  8
0
 62
     0
 10
75.8762
 20
20.6182
 30
0.0
 11
75.8762
 21
17.519
 31
0.0
  0
LINE
  8
0
 62
     0
 10
75.8762
 20
17.519
 30
0.0
 11
76.6755
 21
17.519
 31
0.0
  0
LINE
  8
0
 62
     0
 10
76.6755
 20
17.519
 30
0.0
 11
76.6755
 21
11.7174
 31
0.0
  0
LINE
  8
0
 62
     0
 10
76.6755
 20
11.7174
 30
0.0
 11
75.8762
 21
11.7174
 31
0.0
  0
LINE
  8
0
 62
     0
 10
75.8762
 20
11.7174
 30
0.0
 11
75.8762
 21
8.61826
 31
0.0
  0
LINE
  8
0
 62
     0
 10
75.8762
 20
8.61826
 30
0.0
 11
76.6755
 21
8.61826
 31
0.0
  0
LINE
  8
0
 62
     0
 10
76.6755
 20
8.61826
 30
0.0
 11
76.6755
 21
7.61781
 31
0.0
  0
LINE
  8
0
 62
     0
 10
76.6755
 20
7.61781
 30
0.0
 11
90.6762
 21
7.61781
 31
0.0
  0
LINE
  8
0
 62
     0
 10
90.6762
 20
7.61781
 30
0.0
 11
90.6762
 21
8.61826
 31
0.0
  0
LINE
  8
0
 62
     0
 10
90.6762
 20
8.61826
 30
0.0
 11
91.4756
 21
8.61826
 31
0.0
  0
LINE
  8
0
 62
     0
 10
91.4756
 20
8.61826
 30
0.0
 11
91.4756
 21
11.7174
 31
0.0
  0
LINE
  8
0
 62
     0
 10
91.4756
 20
11.7174
 30
0.0
 11
90.6762
 21
11.7174
 31
0.0
  0
LINE
  8
0
 62
     0
 10
90.6762
 20
11.7174
 30
0.0
 11
90.6762
 21
17.519
 31
0.0
  0
LINE
  8
0
 62
     0
 10
90.6762
 20
17.519
 30
0.0
 11
91.4756
 21
17.519
 31
0.0
  0
LINE
  8
0
 62
     0
 10
91.4756
 20
17.519
 30
0.0
 11
91.4756
 21
20.6182
 31
0.0
  0
LINE
  8
0
 62
     0
 10
91.4756
 20
20.6182
 30
0.0
 11
90.6762
 21
20.6182
 31
0.0
  0
LINE
  8
0
 62
     0
 10
90.6762
 20
20.6182
 30
0.0
 11
90.6762
 21
21.6187
 31
0.0
  0
LINE
  8
0
 62
     0
 10
90.6762
 20
21.6187
 30
0.0
 11
76.6755
 21
21.6187
 31
0.0
  0
LINE
  8
0
 62
     0
 10
217.169
 20
21.6187
 30
0.0
 11
217.169
 21
20.6182
 31
0.0
  0
LINE
  8
0
 62
     0
 10
217.169
 20
20.6182
 30
0.0
 11
216.37
 21
20.6182
 31
0.0
  0
LINE
  8
0
 62
     0
 10
216.37
 20
20.6182
 30
0.0
 11
216.37
 21
17.519
 31
0.0
  0
LINE
  8
0
 62
     0
 10
216.37
 20
17.519
 30
0.0
 11
217.169
 21
17.519
 31
0.0
  0
LINE
  8
0
 62
     0
 10
217.169
 20
17.519
 30
0.0
 11
217.169
 21
11.7174
 31
0.0
  0
LINE
  8
0
 62
     0
 10
217.169
 20
11.7174
 30
0.0
 11
216.37
 21
11.7174
 31
0.0
  0
LINE
  8
0
 62
     0
 10
216.37
 20
11.7174
 30
0.0
 11
216.37
 21
8.61826
 31
0.0
  0
LINE
  8
0
 62
     0
 10
216.37
 20
8.61826
 30
0.0
 11
217.169
 21
8.61826
 31
0.0
  0
LINE
  8
0
 62
     0
 10
217.169
 20
8.61826
 30
0.0
 11
217.169
 21
7.61781
 31
0.0
  0
LINE
  8
0
 62
     0
 10
217.169
 20
7.61781
 30
0.0
 11
231.17
 21
7.61781
 31
0.0
  0
LINE
  8
0
 62
     0
 10
231.17
 20
7.61781
 30
0.0
 11
231.17
 21
8.61826
 31
0.0
  0
LINE
  8
0
 62
     0
 10
231.17
 20
8.61826
 30
0.0
 11
231.969
 21
8.61826
 31
0.0
  0
LINE
  8
0
 62
     0
 10
231.969
 20
8.61826
 30
0.0
 11
231.969
 21
11.7174
 31
0.0
  0
LINE
  8
0
 62
     0
 10
231.969
 20
11.7174
 30
0.0
 11
231.17
 21
11.7174
 31
0.0
  0
LINE
  8
0
 62
     0
 10
231.17
 20
11.7174
 30
0.0
 11
231.17
 21
17.519
 31
0.0
  0
LINE
  8
0
 62
     0
 10
231.17
 20
17.519
 30
0.0
 11
231.969
 21
17.519
 31
0.0
  0
LINE
  8
0
 62
     0
 10
231.969
 20
17.519
 30
0.0
 11
231.969
 21
20.6182
 31
0.0
  0
LINE
  8
0
 62
     0
 10
231.969
 20
20.6182
 30
0.0
 11
231.17
 21
20.6182
 31
0.0
  0
LINE
  8
0
 62
     0
 10
231.17
 20
20.6182
 30
0.0
 11
231.17
 21
21.6187
 31
0.0
  0
LINE
  8
0
 62
     0
 10
231.17
 20
21.6187
 30
0.0
 11
217.169
 21
21.6187
 31
0.0
  0
LINE
  8
0
 62
     0
 10
236.219
 20
21.6187
 30
0.0
 11
236.219
 21
20.6182
 31
0.0
  0
LINE
  8
0
 62
     0
 10
236.219
 20
20.6182
 30
0.0
 11
235.42
 21
20.6182
 31
0.0
  0
LINE
  8
0
 62
     0
 10
235.42
 20
20.6182
 30
0.0
 11
235.42
 21
17.519
 31
0.0
  0
LINE
  8
0
 62
     0
 10
235.42
 20
17.519
 30
0.0
 11
236.219
 21
17.519
 31
0.0
  0
LINE
  8
0
 62
     0
 10
236.219
 20
17.519
 30
0.0
 11
236.219
 21
11.7174
 31
0.0
  0
LINE
  8
0
 62
     0
 10
236.219
 20
11.7174
 30
0.0
 11
235.42
 21
11.7174
 31
0.0
  0
LINE
  8
0
 62
     0
 10
235.42
 20
11.7174
 30
0.0
 11
235.42
 21
8.61826
 31
0.0
  0
LINE
  8
0
 62
     0
 10
235.42
 20
8.61826
 30
0.0
 11
236.219
 21
8.61826
 31
0.0
  0
LINE
  8
0
 62
     0
 10
236.219
 20
8.61826
 30
0.0
 11
236.219
 21
7.61781
 31
0.0
  0
LINE
  8
0
 62
     0
 10
236.219
 20
7.61781
 30
0.0
 11
250.22
 21
7.61781
 31
0.0
  0
LINE
  8
0
 62
     0
 10
250.22
 20
7.61781
 30
0.0
 11
250.22
 21
8.61826
 31
0.0
  0
LINE
  8
0
 62
     0
 10
250.22
 20
8.61826
 30
0.0
 11
251.019
 21
8.61826
 31
0.0
  0
LINE
  8
0
 62
     0
 10
251.019
 20
8.61826
 30
0.0
 11
251.019
 21
11.7174
 31
0.0
  0
LINE
  8
0
 62
     0
 10
251.019
 20
11.7174
 30
0.0
 11
250.22
 21
11.7174
 31
0.0
  0
LINE
  8
0
 62
     0
 10
250.22
 20
11.7174
 30
0.0
 11
250.22
 21
17.519
 31
0.0
  0
LINE
  8
0
 62
     0
 10
250.22
 20
17.519
 30
0.0
 11
251.019
 21
17.519
 31
0.0
  0
LINE
  8
0
 62
     0
 10
251.019
 20
17.519
 30
0.0
 11
251.019
 21
20.6182
 31
0.0
  0
LINE
  8
0
 62
     0
 10
251.019
 20
20.6182
 30
0.0
 11
250.22
 21
20.6182
 31
0.0
  0
LINE
  8
0
 62
     0
 10
250.22
 20
20.6182
 30
0.0
 11
250.22
 21
21.6187
 31
0.0
  0
LINE
  8
0
 62
     0
 10
250.22
 20
21.6187
 30
0.0
 11
236.219
 21
21.6187
 31
0.0
  0
LINE
  8
0
 62
     0
 10
255.269
 20
21.6187
 30
0.0
 11
255.269
 21
20.6182
 31
0.0
  0
LINE
  8
0
 62
     0
 10
255.269
 20
20.6182
 30
0.0
 11
254.47
 21
20.6182
 31
0.0
  0
LINE
  8
0
 62
     0
 10
254.47
 20
20.6182
 30
0.0
 11
254.47
 21
17.519
 31
0.0
  0
LINE
  8
0
 62
     0
 10
254.47
 20
17.519
 30
0.0
 11
255.269
 21
17.519
 31
0.0
  0
LINE
  8
0
 62
     0
 10
255.269
 20
17.519
 30
0.0
 11
255.269
 21
11.7174
 31
0.0
  0
LINE
  8
0
 62
     0
 10
255.269
 20
11.7174
 30
0.0
 11
254.47
 21
11.7174
 31
0.0
  0
LINE
  8
0
 62
     0
 10
254.47
 20
11.7174
 30
0.0
 11
254.47
 21
8.61826
 31
0.0
  0
LINE
  8
0
 62
     0
 10
254.47
 20
8.61826
 30
0.0
 11
255.269
 21
8.61826
 31
0.0
  0
LINE
  8
0
 62
     0
 10
255.269
 20
8.61826
 30
0.0
 11
255.269
 21
7.61781
 31
0.0
  0
LINE
  8
0
 62
     0
 10
255.269
 20
7.61781
 30
0.0
 11
269.27
 21
7.61781
 31
0.0
  0
LINE
  8
0
 62
     0
 10
269.27
 20
7.61781
 30
0.0
 11
269.27
 21
8.61826
 31
0.0
  0
LINE
  8
0
 62
     0
 10
269.27
 20
8.61826
 30
0.0
 11
270.069
 21
8.61826
 31
0.0
  0
LINE
  8
0
 62
     0
 10
270.069
 20
8.61826
 30
0.0
 11
270.069
 21
11.7174
 31
0.0
  0
LINE
  8
0
 62
     0
 10
270.069
 20
11.7174
 30
0.0
 11
269.27
 21
11.7174
 31
0.0
  0
LINE
  8
0
 62
     0
 10
269.27
 20
11.7174
 30
0.0
 11
269.27
 21
17.519
 31
0.0
  0
LINE
  8
0
 62
     0
 10
269.27
 20
17.519
 30
0.0
 11
270.069
 21
17.519
 31
0.0
  0
LINE
  8
0
 62
     0
 10
270.069
 20
17.519
 30
0.0
 11
270.069
 21
20.6182
 31
0.0
  0
LINE
  8
0
 62
     0
 10
270.069
 20
20.6182
 30
0.0
 11
269.27
 21
20.6182
 31
0.0
  0
LINE
  8
0
 62
     0
 10
269.27
 20
20.6182
 30
0.0
 11
269.27
 21
21.6187
 31
0.0
  0
LINE
  8
0
 62
     0
 10
269.27
 20
21.6187
 30
0.0
 11
255.269
 21
21.6187
 31
0.0
  0
LINE
  8
0
 62
     0
 10
274.319
 20
21.6187
 30
0.0
 11
274.319
 21
20.6182
 31
0.0
  0
LINE
  8
0
 62
     0
 10
274.319
 20
20.6182
 30
0.0
 11
273.52
 21
20.6182
 31
0.0
  0
LINE
  8
0
 62
     0
 10
273.52
 20
20.6182
 30
0.0
 11
273.52
 21
17.519
 31
0.0
  0
LINE
  8
0
 62
     0
 10
273.52
 20
17.519
 30
0.0
 11
274.319
 21
17.519
 31
0.0
  0
LINE
  8
0
 62
     0
 10
274.319
 20
17.519
 30
0.0
 11
274.319
 21
11.7174
 31
0.0
  0
LINE
  8
0
 62
     0
 10
274.319
 20
11.7174
 30
0.0
 11
273.52
 21
11.7174
 31
0.0
  0
LINE
  8
0
 62
     0
 10
273.52
 20
11.7174
 30
0.0
 11
273.52
 21
8.61826
 31
0.0
  0
LINE
  8
0
 62
     0
 10
273.52
 20
8.61826
 30
0.0
 11
274.319
 21
8.61826
 31
0.0
  0
LINE
  8
0
 62
     0
 10
274.319
 20
8.61826
 30
0.0
 11
274.319
 21
7.61781
 31
0.0
  0
LINE
  8
0
 62
     0
 10
274.319
 20
7.61781
 30
0.0
 11
288.32
 21
7.61781
 31
0.0
  0
LINE
  8
0
 62
     0
 10
288.32
 20
7.61781
 30
0.0
 11
288.32
 21
8.61826
 31
0.0
  0
LINE
  8
0
 62
     0
 10
288.32
 20
8.61826
 30
0.0
 11
289.119
 21
8.61826
 31
0.0
  0
LINE
  8
0
 62
     0
 10
289.119
 20
8.61826
 30
0.0
 11
289.119
 21
11.7174
 31
0.0
  0
LINE
  8
0
 62
     0
 10
289.119
 20
11.7174
 30
0.0
 11
288.32
 21
11.7174
 31
0.0
  0
LINE
  8
0
 62
     0
 10
288.32
 20
11.7174
 30
0.0
 11
288.32
 21
17.519
 31
0.0
  0
LINE
  8
0
 62
     0
 10
288.32
 20
17.519
 30
0.0
 11
289.119
 21
17.519
 31
0.0
  0
LINE
  8
0
 62
     0
 10
289.119
 20
17.519
 30
0.0
 11
289.119
 21
20.6182
 31
0.0
  0
LINE
  8
0
 62
     0
 10
289.119
 20
20.6182
 30
0.0
 11
288.32
 21
20.6182
 31
0.0
  0
LINE
  8
0
 62
     0
 10
288.32
 20
20.6182
 30
0.0
 11
288.32
 21
21.6187
 31
0.0
  0
LINE
  8
0
 62
     0
 10
288.32
 20
21.6187
 30
0.0
 11
274.319
 21
21.6187
 31
0.0
  0
LINE
  8
0
 62
     0
 10
302.894
 20
21.6187
 30
0.0
 11
302.894
 21
20.6182
 31
0.0
  0
LINE
  8
0
 62
     0
 10
302.894
 20
20.6182
 30
0.0
 11
302.093
 21
20.6182
 31
0.0
  0
LINE
  8
0
 62
     0
 10
302.093
 20
20.6182
 30
0.0
 11
302.093
 21
17.5176
 31
0.0
  0
LINE
  8
0
 62
     0
 10
302.093
 20
17.5176
 30
0.0
 11
302.894
 21
17.5176
 31
0.0
  0
LINE
  8
0
 62
     0
 10
302.894
 20
17.5176
 30
0.0
 11
302.894
 21
11.7174
 31
0.0
  0
LINE
  8
0
 62
     0
 10
302.894
 20
11.7174
 30
0.0
 11
302.093
 21
11.7174
 31
0.0
  0
LINE
  8
0
 62
     0
 10
302.093
 20
11.7174
 30
0.0
 11
302.093
 21
8.61826
 31
0.0
  0
LINE
  8
0
 62
     0
 10
302.093
 20
8.61826
 30
0.0
 11
302.894
 21
8.61826
 31
0.0
  0
LINE
  8
0
 62
     0
 10
302.894
 20
8.61826
 30
0.0
 11
302.894
 21
7.61781
 31
0.0
  0
LINE
  8
0
 62
     0
 10
302.894
 20
7.61781
 30
0.0
 11
316.894
 21
7.61781
 31
0.0
  0
LINE
  8
0
 62
     0
 10
316.894
 20
7.61781
 30
0.0
 11
316.894
 21
8.61826
 31
0.0
  0
LINE
  8
0
 62
     0
 10
316.894
 20
8.61826
 30
0.0
 11
317.694
 21
8.61826
 31
0.0
  0
LINE
  8
0
 62
     0
 10
317.694
 20
8.61826
 30
0.0
 11
317.694
 21
11.7174
 31
0.0
  0
LINE
  8
0
 62
     0
 10
317.694
 20
11.7174
 30
0.0
 11
316.894
 21
11.7174
 31
0.0
  0
LINE
  8
0
 62
     0
 10
316.894
 20
11.7174
 30
0.0
 11
316.894
 21
17.5176
 31
0.0
  0
LINE
  8
0
 62
     0
 10
316.894
 20
17.5176
 30
0.0
 11
317.694
 21
17.5176
 31
0.0
  0
LINE
  8
0
 62
     0
 10
317.694
 20
17.5176
 30
0.0
 11
317.694
 21
20.6182
 31
0.0
  0
LINE
  8
0
 62
     0
 10
317.694
 20
20.6182
 30
0.0
 11
316.894
 21
20.6182
 31
0.0
  0
LINE
  8
0
 62
     0
 10
316.894
 20
20.6182
 30
0.0
 11
316.894
 21
21.6187
 31
0.0
  0
LINE
  8
0
 62
     0
 10
316.894
 20
21.6187
 30
0.0
 11
302.894
 21
21.6187
 31
0.0
  0
LINE
  8
0
 62
     0
 10
321.944
 20
21.6187
 30
0.0
 11
321.944
 21
20.6182
 31
0.0
  0
LINE
  8
0
 62
     0
 10
321.944
 20
20.6182
 30
0.0
 11
321.143
 21
20.6182
 31
0.0
  0
LINE
  8
0
 62
     0
 10
321.143
 20
20.6182
 30
0.0
 11
321.143
 21
17.5176
 31
0.0
  0
LINE
  8
0
 62
     0
 10
321.143
 20
17.5176
 30
0.0
 11
321.944
 21
17.5176
 31
0.0
  0
LINE
  8
0
 62
     0
 10
321.944
 20
17.5176
 30
0.0
 11
321.944
 21
11.7174
 31
0.0
  0
LINE
  8
0
 62
     0
 10
321.944
 20
11.7174
 30
0.0
 11
321.143
 21
11.7174
 31
0.0
  0
LINE
  8
0
 62
     0
 10
321.143
 20
11.7174
 30
0.0
 11
321.143
 21
8.61826
 31
0.0
  0
LINE
  8
0
 62
     0
 10
321.143
 20
8.61826
 30
0.0
 11
321.944
 21
8.61826
 31
0.0
  0
LINE
  8
0
 62
     0
 10
321.944
 20
8.61826
 30
0.0
 11
321.944
 21
7.61781
 31
0.0
  0
LINE
  8
0
 62
     0
 10
321.944
 20
7.61781
 30
0.0
 11
335.944
 21
7.61781
 31
0.0
  0
LINE
  8
0
 62
     0
 10
335.944
 20
7.61781
 30
0.0
 11
335.944
 21
8.61826
 31
0.0
  0
LINE
  8
0
 62
     0
 10
335.944
 20
8.61826
 30
0.0
 11
336.744
 21
8.61826
 31
0.0
  0
LINE
  8
0
 62
     0
 10
336.744
 20
8.61826
 30
0.0
 11
336.744
 21
11.7174
 31
0.0
  0
LINE
  8
0
 62
     0
 10
336.744
 20
11.7174
 30
0.0
 11
335.944
 21
11.7174
 31
0.0
  0
LINE
  8
0
 62
     0
 10
335.944
 20
11.7174
 30
0.0
 11
335.944
 21
17.5176
 31
0.0
  0
LINE
  8
0
 62
     0
 10
335.944
 20
17.5176
 30
0.0
 11
336.744
 21
17.5176
 31
0.0
  0
LINE
  8
0
 62
     0
 10
336.744
 20
17.5176
 30
0.0
 11
336.744
 21
20.6182
 31
0.0
  0
LINE
  8
0
 62
     0
 10
336.744
 20
20.6182
 30
0.0
 11
335.944
 21
20.6182
 31
0.0
  0
LINE
  8
0
 62
     0
 10
335.944
 20
20.6182
 30
0.0
 11
335.944
 21
21.6187
 31
0.0
  0
LINE
  8
0
 62
     0
 10
335.944
 20
21.6187
 30
0.0
 11
321.944
 21
21.6187
 31
0.0
  0
LINE
  8
0
 62
     0
 10
19.5254
 20
40.6686
 30
0.0
 11
19.5254
 21
39.6681
 31
0.0
  0
LINE
  8
0
 62
     0
 10
19.5254
 20
39.6681
 30
0.0
 11
18.7262
 21
39.6681
 31
0.0
  0
LINE
  8
0
 62
     0
 10
18.7262
 20
39.6681
 30
0.0
 11
18.7262
 21
36.5689
 31
0.0
  0
LINE
  8
0
 62
     0
 10
18.7262
 20
36.5689
 30
0.0
 11
19.5254
 21
36.5689
 31
0.0
  0
LINE
  8
0
 62
     0
 10
19.5254
 20
36.5689
 30
0.0
 11
19.5254
 21
35.9682
 31
0.0
  0
LINE
  8
0
 62
     0
 10
19.5254
 20
35.9682
 30
0.0
 11
18.0013
 21
35.9682
 31
0.0
  0
LINE
  8
0
 62
     0
 10
18.0013
 20
35.9682
 30
0.0
 11
18.0013
 21
39.1982
 31
0.0
  0
LINE
  8
0
 62
     0
 10
18.0013
 20
39.1982
 30
0.0
 11
16.276
 21
39.1982
 31
0.0
  0
LINE
  8
0
 62
     0
 10
16.276
 20
39.1982
 30
0.0
 11
16.276
 21
40.1175
 31
0.0
  0
LINE
  8
0
 62
     0
 10
16.276
 20
40.1175
 30
0.0
 11
12.9756
 21
40.1175
 31
0.0
  0
LINE
  8
0
 62
     0
 10
12.9756
 20
40.1175
 30
0.0
 11
12.9756
 21
39.1982
 31
0.0
  0
LINE
  8
0
 62
     0
 10
12.9756
 20
39.1982
 30
0.0
 11
11.2503
 21
39.1982
 31
0.0
  0
LINE
  8
0
 62
     0
 10
11.2503
 20
39.1982
 30
0.0
 11
11.2503
 21
35.9682
 31
0.0
  0
LINE
  8
0
 62
     0
 10
11.2503
 20
35.9682
 30
0.0
 11
10.4262
 21
35.9682
 31
0.0
  0
LINE
  8
0
 62
     0
 10
10.4262
 20
35.9682
 30
0.0
 11
10.4262
 21
33.168
 31
0.0
  0
LINE
  8
0
 62
     0
 10
10.4262
 20
33.168
 30
0.0
 11
11.2503
 21
33.168
 31
0.0
  0
LINE
  8
0
 62
     0
 10
11.2503
 20
33.168
 30
0.0
 11
11.2503
 21
26.8979
 31
0.0
  0
LINE
  8
0
 62
     0
 10
11.2503
 20
26.8979
 30
0.0
 11
12.9756
 21
26.8979
 31
0.0
  0
LINE
  8
0
 62
     0
 10
12.9756
 20
26.8979
 30
0.0
 11
12.9756
 21
25.9182
 31
0.0
  0
LINE
  8
0
 62
     0
 10
12.9756
 20
25.9182
 30
0.0
 11
16.276
 21
25.9182
 31
0.0
  0
LINE
  8
0
 62
     0
 10
16.276
 20
25.9182
 30
0.0
 11
16.276
 21
26.8979
 31
0.0
  0
LINE
  8
0
 62
     0
 10
16.276
 20
26.8979
 30
0.0
 11
18.0013
 21
26.8979
 31
0.0
  0
LINE
  8
0
 62
     0
 10
18.0013
 20
26.8979
 30
0.0
 11
18.0013
 21
31.3683
 31
0.0
  0
LINE
  8
0
 62
     0
 10
18.0013
 20
31.3683
 30
0.0
 11
19.5254
 21
31.3683
 31
0.0
  0
LINE
  8
0
 62
     0
 10
19.5254
 20
31.3683
 30
0.0
 11
19.5254
 21
30.7674
 31
0.0
  0
LINE
  8
0
 62
     0
 10
19.5254
 20
30.7674
 30
0.0
 11
18.7262
 21
30.7674
 31
0.0
  0
LINE
  8
0
 62
     0
 10
18.7262
 20
30.7674
 30
0.0
 11
18.7262
 21
27.6683
 31
0.0
  0
LINE
  8
0
 62
     0
 10
18.7262
 20
27.6683
 30
0.0
 11
19.5254
 21
27.6683
 31
0.0
  0
LINE
  8
0
 62
     0
 10
19.5254
 20
27.6683
 30
0.0
 11
19.5254
 21
26.6678
 31
0.0
  0
LINE
  8
0
 62
     0
 10
19.5254
 20
26.6678
 30
0.0
 11
33.5263
 21
26.6678
 31
0.0
  0
LINE
  8
0
 62
     0
 10
33.5263
 20
26.6678
 30
0.0
 11
33.5263
 21
27.6683
 31
0.0
  0
LINE
  8
0
 62
     0
 10
33.5263
 20
27.6683
 30
0.0
 11
34.3256
 21
27.6683
 31
0.0
  0
LINE
  8
0
 62
     0
 10
34.3256
 20
27.6683
 30
0.0
 11
34.3256
 21
30.7674
 31
0.0
  0
LINE
  8
0
 62
     0
 10
34.3256
 20
30.7674
 30
0.0
 11
33.5263
 21
30.7674
 31
0.0
  0
LINE
  8
0
 62
     0
 10
33.5263
 20
30.7674
 30
0.0
 11
33.5263
 21
31.3683
 31
0.0
  0
LINE
  8
0
 62
     0
 10
33.5263
 20
31.3683
 30
0.0
 11
35.0504
 21
31.3683
 31
0.0
  0
LINE
  8
0
 62
     0
 10
35.0504
 20
31.3683
 30
0.0
 11
35.0504
 21
26.8979
 31
0.0
  0
LINE
  8
0
 62
     0
 10
35.0504
 20
26.8979
 30
0.0
 11
36.7757
 21
26.8979
 31
0.0
  0
LINE
  8
0
 62
     0
 10
36.7757
 20
26.8979
 30
0.0
 11
36.7757
 21
25.9182
 31
0.0
  0
LINE
  8
0
 62
     0
 10
36.7757
 20
25.9182
 30
0.0
 11
40.0763
 21
25.9182
 31
0.0
  0
LINE
  8
0
 62
     0
 10
40.0763
 20
25.9182
 30
0.0
 11
40.0763
 21
26.8979
 31
0.0
  0
LINE
  8
0
 62
     0
 10
40.0763
 20
26.8979
 30
0.0
 11
41.8013
 21
26.8979
 31
0.0
  0
LINE
  8
0
 62
     0
 10
41.8013
 20
26.8979
 30
0.0
 11
41.8013
 21
33.168
 31
0.0
  0
LINE
  8
0
 62
     0
 10
41.8013
 20
33.168
 30
0.0
 11
42.6254
 21
33.168
 31
0.0
  0
LINE
  8
0
 62
     0
 10
42.6254
 20
33.168
 30
0.0
 11
42.6254
 21
35.9682
 31
0.0
  0
LINE
  8
0
 62
     0
 10
42.6254
 20
35.9682
 30
0.0
 11
41.8013
 21
35.9682
 31
0.0
  0
LINE
  8
0
 62
     0
 10
41.8013
 20
35.9682
 30
0.0
 11
41.8013
 21
39.1982
 31
0.0
  0
LINE
  8
0
 62
     0
 10
41.8013
 20
39.1982
 30
0.0
 11
40.0763
 21
39.1982
 31
0.0
  0
LINE
  8
0
 62
     0
 10
40.0763
 20
39.1982
 30
0.0
 11
40.0763
 21
40.1175
 31
0.0
  0
LINE
  8
0
 62
     0
 10
40.0763
 20
40.1175
 30
0.0
 11
36.7757
 21
40.1175
 31
0.0
  0
LINE
  8
0
 62
     0
 10
36.7757
 20
40.1175
 30
0.0
 11
36.7757
 21
39.1982
 31
0.0
  0
LINE
  8
0
 62
     0
 10
36.7757
 20
39.1982
 30
0.0
 11
35.0504
 21
39.1982
 31
0.0
  0
LINE
  8
0
 62
     0
 10
35.0504
 20
39.1982
 30
0.0
 11
35.0504
 21
35.9682
 31
0.0
  0
LINE
  8
0
 62
     0
 10
35.0504
 20
35.9682
 30
0.0
 11
33.5263
 21
35.9682
 31
0.0
  0
LINE
  8
0
 62
     0
 10
33.5263
 20
35.9682
 30
0.0
 11
33.5263
 21
36.5689
 31
0.0
  0
LINE
  8
0
 62
     0
 10
33.5263
 20
36.5689
 30
0.0
 11
34.3256
 21
36.5689
 31
0.0
  0
LINE
  8
0
 62
     0
 10
34.3256
 20
36.5689
 30
0.0
 11
34.3256
 21
39.6681
 31
0.0
  0
LINE
  8
0
 62
     0
 10
34.3256
 20
39.6681
 30
0.0
 11
33.5263
 21
39.6681
 31
0.0
  0
LINE
  8
0
 62
     0
 10
33.5263
 20
39.6681
 30
0.0
 11
33.5263
 21
40.6686
 31
0.0
  0
LINE
  8
0
 62
     0
 10
33.5263
 20
40.6686
 30
0.0
 11
19.5254
 21
40.6686
 31
0.0
  0
LINE
  8
0
 62
     0
 10
50.4818
 20
40.6686
 30
0.0
 11
50.4818
 21
39.6681
 31
0.0
  0
LINE
  8
0
 62
     0
 10
50.4818
 20
39.6681
 30
0.0
 11
49.6824
 21
39.6681
 31
0.0
  0
LINE
  8
0
 62
     0
 10
49.6824
 20
39.6681
 30
0.0
 11
49.6824
 21
36.5689
 31
0.0
  0
LINE
  8
0
 62
     0
 10
49.6824
 20
36.5689
 30
0.0
 11
50.4818
 21
36.5689
 31
0.0
  0
LINE
  8
0
 62
     0
 10
50.4818
 20
36.5689
 30
0.0
 11
50.4818
 21
30.7674
 31
0.0
  0
LINE
  8
0
 62
     0
 10
50.4818
 20
30.7674
 30
0.0
 11
49.6824
 21
30.7674
 31
0.0
  0
LINE
  8
0
 62
     0
 10
49.6824
 20
30.7674
 30
0.0
 11
49.6824
 21
27.6683
 31
0.0
  0
LINE
  8
0
 62
     0
 10
49.6824
 20
27.6683
 30
0.0
 11
50.4818
 21
27.6683
 31
0.0
  0
LINE
  8
0
 62
     0
 10
50.4818
 20
27.6683
 30
0.0
 11
50.4818
 21
26.6678
 31
0.0
  0
LINE
  8
0
 62
     0
 10
50.4818
 20
26.6678
 30
0.0
 11
64.4811
 21
26.6678
 31
0.0
  0
LINE
  8
0
 62
     0
 10
64.4811
 20
26.6678
 30
0.0
 11
64.4811
 21
27.6683
 31
0.0
  0
LINE
  8
0
 62
     0
 10
64.4811
 20
27.6683
 30
0.0
 11
65.2819
 21
27.6683
 31
0.0
  0
LINE
  8
0
 62
     0
 10
65.2819
 20
27.6683
 30
0.0
 11
65.2819
 21
30.7674
 31
0.0
  0
LINE
  8
0
 62
     0
 10
65.2819
 20
30.7674
 30
0.0
 11
64.4811
 21
30.7674
 31
0.0
  0
LINE
  8
0
 62
     0
 10
64.4811
 20
30.7674
 30
0.0
 11
64.4811
 21
36.5689
 31
0.0
  0
LINE
  8
0
 62
     0
 10
64.4811
 20
36.5689
 30
0.0
 11
65.2819
 21
36.5689
 31
0.0
  0
LINE
  8
0
 62
     0
 10
65.2819
 20
36.5689
 30
0.0
 11
65.2819
 21
39.6681
 31
0.0
  0
LINE
  8
0
 62
     0
 10
65.2819
 20
39.6681
 30
0.0
 11
64.4811
 21
39.6681
 31
0.0
  0
LINE
  8
0
 62
     0
 10
64.4811
 20
39.6681
 30
0.0
 11
64.4811
 21
40.6686
 31
0.0
  0
LINE
  8
0
 62
     0
 10
64.4811
 20
40.6686
 30
0.0
 11
50.4818
 21
40.6686
 31
0.0
  0
LINE
  8
0
 62
     0
 10
69.5318
 20
40.6686
 30
0.0
 11
69.5318
 21
39.6681
 31
0.0
  0
LINE
  8
0
 62
     0
 10
69.5318
 20
39.6681
 30
0.0
 11
68.7324
 21
39.6681
 31
0.0
  0
LINE
  8
0
 62
     0
 10
68.7324
 20
39.6681
 30
0.0
 11
68.7324
 21
36.5689
 31
0.0
  0
LINE
  8
0
 62
     0
 10
68.7324
 20
36.5689
 30
0.0
 11
69.5318
 21
36.5689
 31
0.0
  0
LINE
  8
0
 62
     0
 10
69.5318
 20
36.5689
 30
0.0
 11
69.5318
 21
30.7674
 31
0.0
  0
LINE
  8
0
 62
     0
 10
69.5318
 20
30.7674
 30
0.0
 11
68.7324
 21
30.7674
 31
0.0
  0
LINE
  8
0
 62
     0
 10
68.7324
 20
30.7674
 30
0.0
 11
68.7324
 21
27.6683
 31
0.0
  0
LINE
  8
0
 62
     0
 10
68.7324
 20
27.6683
 30
0.0
 11
69.5318
 21
27.6683
 31
0.0
  0
LINE
  8
0
 62
     0
 10
69.5318
 20
27.6683
 30
0.0
 11
69.5318
 21
26.6678
 31
0.0
  0
LINE
  8
0
 62
     0
 10
69.5318
 20
26.6678
 30
0.0
 11
83.5311
 21
26.6678
 31
0.0
  0
LINE
  8
0
 62
     0
 10
83.5311
 20
26.6678
 30
0.0
 11
83.5311
 21
27.6683
 31
0.0
  0
LINE
  8
0
 62
     0
 10
83.5311
 20
27.6683
 30
0.0
 11
84.3319
 21
27.6683
 31
0.0
  0
LINE
  8
0
 62
     0
 10
84.3319
 20
27.6683
 30
0.0
 11
84.3319
 21
30.7674
 31
0.0
  0
LINE
  8
0
 62
     0
 10
84.3319
 20
30.7674
 30
0.0
 11
83.5311
 21
30.7674
 31
0.0
  0
LINE
  8
0
 62
     0
 10
83.5311
 20
30.7674
 30
0.0
 11
83.5311
 21
36.5689
 31
0.0
  0
LINE
  8
0
 62
     0
 10
83.5311
 20
36.5689
 30
0.0
 11
84.3319
 21
36.5689
 31
0.0
  0
LINE
  8
0
 62
     0
 10
84.3319
 20
36.5689
 30
0.0
 11
84.3319
 21
39.6681
 31
0.0
  0
LINE
  8
0
 62
     0
 10
84.3319
 20
39.6681
 30
0.0
 11
83.5311
 21
39.6681
 31
0.0
  0
LINE
  8
0
 62
     0
 10
83.5311
 20
39.6681
 30
0.0
 11
83.5311
 21
40.6686
 31
0.0
  0
LINE
  8
0
 62
     0
 10
83.5311
 20
40.6686
 30
0.0
 11
69.5318
 21
40.6686
 31
0.0
  0
LINE
  8
0
 62
     0
 10
88.5818
 20
40.6686
 30
0.0
 11
88.5818
 21
39.6681
 31
0.0
  0
LINE
  8
0
 62
     0
 10
88.5818
 20
39.6681
 30
0.0
 11
87.7824
 21
39.6681
 31
0.0
  0
LINE
  8
0
 62
     0
 10
87.7824
 20
39.6681
 30
0.0
 11
87.7824
 21
36.5689
 31
0.0
  0
LINE
  8
0
 62
     0
 10
87.7824
 20
36.5689
 30
0.0
 11
88.5818
 21
36.5689
 31
0.0
  0
LINE
  8
0
 62
     0
 10
88.5818
 20
36.5689
 30
0.0
 11
88.5818
 21
30.7674
 31
0.0
  0
LINE
  8
0
 62
     0
 10
88.5818
 20
30.7674
 30
0.0
 11
87.7824
 21
30.7674
 31
0.0
  0
LINE
  8
0
 62
     0
 10
87.7824
 20
30.7674
 30
0.0
 11
87.7824
 21
27.6683
 31
0.0
  0
LINE
  8
0
 62
     0
 10
87.7824
 20
27.6683
 30
0.0
 11
88.5818
 21
27.6683
 31
0.0
  0
LINE
  8
0
 62
     0
 10
88.5818
 20
27.6683
 30
0.0
 11
88.5818
 21
26.6678
 31
0.0
  0
LINE
  8
0
 62
     0
 10
88.5818
 20
26.6678
 30
0.0
 11
102.581
 21
26.6678
 31
0.0
  0
LINE
  8
0
 62
     0
 10
102.581
 20
26.6678
 30
0.0
 11
102.581
 21
27.6683
 31
0.0
  0
LINE
  8
0
 62
     0
 10
102.581
 20
27.6683
 30
0.0
 11
103.382
 21
27.6683
 31
0.0
  0
LINE
  8
0
 62
     0
 10
103.382
 20
27.6683
 30
0.0
 11
103.382
 21
30.7674
 31
0.0
  0
LINE
  8
0
 62
     0
 10
103.382
 20
30.7674
 30
0.0
 11
102.581
 21
30.7674
 31
0.0
  0
LINE
  8
0
 62
     0
 10
102.581
 20
30.7674
 30
0.0
 11
102.581
 21
36.5689
 31
0.0
  0
LINE
  8
0
 62
     0
 10
102.581
 20
36.5689
 30
0.0
 11
103.382
 21
36.5689
 31
0.0
  0
LINE
  8
0
 62
     0
 10
103.382
 20
36.5689
 30
0.0
 11
103.382
 21
39.6681
 31
0.0
  0
LINE
  8
0
 62
     0
 10
103.382
 20
39.6681
 30
0.0
 11
102.581
 21
39.6681
 31
0.0
  0
LINE
  8
0
 62
     0
 10
102.581
 20
39.6681
 30
0.0
 11
102.581
 21
40.6686
 31
0.0
  0
LINE
  8
0
 62
     0
 10
102.581
 20
40.6686
 30
0.0
 11
88.5818
 21
40.6686
 31
0.0
  0
LINE
  8
0
 62
     0
 10
107.632
 20
40.6686
 30
0.0
 11
107.632
 21
39.6681
 31
0.0
  0
LINE
  8
0
 62
     0
 10
107.632
 20
39.6681
 30
0.0
 11
106.832
 21
39.6681
 31
0.0
  0
LINE
  8
0
 62
     0
 10
106.832
 20
39.6681
 30
0.0
 11
106.832
 21
36.5689
 31
0.0
  0
LINE
  8
0
 62
     0
 10
106.832
 20
36.5689
 30
0.0
 11
107.632
 21
36.5689
 31
0.0
  0
LINE
  8
0
 62
     0
 10
107.632
 20
36.5689
 30
0.0
 11
107.632
 21
30.7674
 31
0.0
  0
LINE
  8
0
 62
     0
 10
107.632
 20
30.7674
 30
0.0
 11
106.832
 21
30.7674
 31
0.0
  0
LINE
  8
0
 62
     0
 10
106.832
 20
30.7674
 30
0.0
 11
106.832
 21
27.6683
 31
0.0
  0
LINE
  8
0
 62
     0
 10
106.832
 20
27.6683
 30
0.0
 11
107.632
 21
27.6683
 31
0.0
  0
LINE
  8
0
 62
     0
 10
107.632
 20
27.6683
 30
0.0
 11
107.632
 21
26.6678
 31
0.0
  0
LINE
  8
0
 62
     0
 10
107.632
 20
26.6678
 30
0.0
 11
121.631
 21
26.6678
 31
0.0
  0
LINE
  8
0
 62
     0
 10
121.631
 20
26.6678
 30
0.0
 11
121.631
 21
27.6683
 31
0.0
  0
LINE
  8
0
 62
     0
 10
121.631
 20
27.6683
 30
0.0
 11
122.432
 21
27.6683
 31
0.0
  0
LINE
  8
0
 62
     0
 10
122.432
 20
27.6683
 30
0.0
 11
122.432
 21
30.7674
 31
0.0
  0
LINE
  8
0
 62
     0
 10
122.432
 20
30.7674
 30
0.0
 11
121.631
 21
30.7674
 31
0.0
  0
LINE
  8
0
 62
     0
 10
121.631
 20
30.7674
 30
0.0
 11
121.631
 21
36.5689
 31
0.0
  0
LINE
  8
0
 62
     0
 10
121.631
 20
36.5689
 30
0.0
 11
122.432
 21
36.5689
 31
0.0
  0
LINE
  8
0
 62
     0
 10
122.432
 20
36.5689
 30
0.0
 11
122.432
 21
39.6681
 31
0.0
  0
LINE
  8
0
 62
     0
 10
122.432
 20
39.6681
 30
0.0
 11
121.631
 21
39.6681
 31
0.0
  0
LINE
  8
0
 62
     0
 10
121.631
 20
39.6681
 30
0.0
 11
121.631
 21
40.6686
 31
0.0
  0
LINE
  8
0
 62
     0
 10
121.631
 20
40.6686
 30
0.0
 11
107.632
 21
40.6686
 31
0.0
  0
LINE
  8
0
 62
     0
 10
126.682
 20
40.6686
 30
0.0
 11
126.682
 21
39.6681
 31
0.0
  0
LINE
  8
0
 62
     0
 10
126.682
 20
39.6681
 30
0.0
 11
125.882
 21
39.6681
 31
0.0
  0
LINE
  8
0
 62
     0
 10
125.882
 20
39.6681
 30
0.0
 11
125.882
 21
36.5689
 31
0.0
  0
LINE
  8
0
 62
     0
 10
125.882
 20
36.5689
 30
0.0
 11
126.682
 21
36.5689
 31
0.0
  0
LINE
  8
0
 62
     0
 10
126.682
 20
36.5689
 30
0.0
 11
126.682
 21
30.7674
 31
0.0
  0
LINE
  8
0
 62
     0
 10
126.682
 20
30.7674
 30
0.0
 11
125.882
 21
30.7674
 31
0.0
  0
LINE
  8
0
 62
     0
 10
125.882
 20
30.7674
 30
0.0
 11
125.882
 21
27.6683
 31
0.0
  0
LINE
  8
0
 62
     0
 10
125.882
 20
27.6683
 30
0.0
 11
126.682
 21
27.6683
 31
0.0
  0
LINE
  8
0
 62
     0
 10
126.682
 20
27.6683
 30
0.0
 11
126.682
 21
26.6678
 31
0.0
  0
LINE
  8
0
 62
     0
 10
126.682
 20
26.6678
 30
0.0
 11
140.681
 21
26.6678
 31
0.0
  0
LINE
  8
0
 62
     0
 10
140.681
 20
26.6678
 30
0.0
 11
140.681
 21
27.6683
 31
0.0
  0
LINE
  8
0
 62
     0
 10
140.681
 20
27.6683
 30
0.0
 11
141.482
 21
27.6683
 31
0.0
  0
LINE
  8
0
 62
     0
 10
141.482
 20
27.6683
 30
0.0
 11
141.482
 21
30.7674
 31
0.0
  0
LINE
  8
0
 62
     0
 10
141.482
 20
30.7674
 30
0.0
 11
140.681
 21
30.7674
 31
0.0
  0
LINE
  8
0
 62
     0
 10
140.681
 20
30.7674
 30
0.0
 11
140.681
 21
36.5689
 31
0.0
  0
LINE
  8
0
 62
     0
 10
140.681
 20
36.5689
 30
0.0
 11
141.482
 21
36.5689
 31
0.0
  0
LINE
  8
0
 62
     0
 10
141.482
 20
36.5689
 30
0.0
 11
141.482
 21
39.6681
 31
0.0
  0
LINE
  8
0
 62
     0
 10
141.482
 20
39.6681
 30
0.0
 11
140.681
 21
39.6681
 31
0.0
  0
LINE
  8
0
 62
     0
 10
140.681
 20
39.6681
 30
0.0
 11
140.681
 21
40.6686
 31
0.0
  0
LINE
  8
0
 62
     0
 10
140.681
 20
40.6686
 30
0.0
 11
126.682
 21
40.6686
 31
0.0
  0
LINE
  8
0
 62
     0
 10
145.732
 20
40.6686
 30
0.0
 11
145.732
 21
39.6681
 31
0.0
  0
LINE
  8
0
 62
     0
 10
145.732
 20
39.6681
 30
0.0
 11
144.932
 21
39.6681
 31
0.0
  0
LINE
  8
0
 62
     0
 10
144.932
 20
39.6681
 30
0.0
 11
144.932
 21
36.5689
 31
0.0
  0
LINE
  8
0
 62
     0
 10
144.932
 20
36.5689
 30
0.0
 11
145.732
 21
36.5689
 31
0.0
  0
LINE
  8
0
 62
     0
 10
145.732
 20
36.5689
 30
0.0
 11
145.732
 21
30.7674
 31
0.0
  0
LINE
  8
0
 62
     0
 10
145.732
 20
30.7674
 30
0.0
 11
144.932
 21
30.7674
 31
0.0
  0
LINE
  8
0
 62
     0
 10
144.932
 20
30.7674
 30
0.0
 11
144.932
 21
27.6683
 31
0.0
  0
LINE
  8
0
 62
     0
 10
144.932
 20
27.6683
 30
0.0
 11
145.732
 21
27.6683
 31
0.0
  0
LINE
  8
0
 62
     0
 10
145.732
 20
27.6683
 30
0.0
 11
145.732
 21
26.6678
 31
0.0
  0
LINE
  8
0
 62
     0
 10
145.732
 20
26.6678
 30
0.0
 11
159.731
 21
26.6678
 31
0.0
  0
LINE
  8
0
 62
     0
 10
159.731
 20
26.6678
 30
0.0
 11
159.731
 21
27.6683
 31
0.0
  0
LINE
  8
0
 62
     0
 10
159.731
 20
27.6683
 30
0.0
 11
160.532
 21
27.6683
 31
0.0
  0
LINE
  8
0
 62
     0
 10
160.532
 20
27.6683
 30
0.0
 11
160.532
 21
30.7674
 31
0.0
  0
LINE
  8
0
 62
     0
 10
160.532
 20
30.7674
 30
0.0
 11
159.731
 21
30.7674
 31
0.0
  0
LINE
  8
0
 62
     0
 10
159.731
 20
30.7674
 30
0.0
 11
159.731
 21
36.5689
 31
0.0
  0
LINE
  8
0
 62
     0
 10
159.731
 20
36.5689
 30
0.0
 11
160.532
 21
36.5689
 31
0.0
  0
LINE
  8
0
 62
     0
 10
160.532
 20
36.5689
 30
0.0
 11
160.532
 21
39.6681
 31
0.0
  0
LINE
  8
0
 62
     0
 10
160.532
 20
39.6681
 30
0.0
 11
159.731
 21
39.6681
 31
0.0
  0
LINE
  8
0
 62
     0
 10
159.731
 20
39.6681
 30
0.0
 11
159.731
 21
40.6686
 31
0.0
  0
LINE
  8
0
 62
     0
 10
159.731
 20
40.6686
 30
0.0
 11
145.732
 21
40.6686
 31
0.0
  0
LINE
  8
0
 62
     0
 10
164.782
 20
40.6686
 30
0.0
 11
164.782
 21
39.6681
 31
0.0
  0
LINE
  8
0
 62
     0
 10
164.782
 20
39.6681
 30
0.0
 11
163.982
 21
39.6681
 31
0.0
  0
LINE
  8
0
 62
     0
 10
163.982
 20
39.6681
 30
0.0
 11
163.982
 21
36.5689
 31
0.0
  0
LINE
  8
0
 62
     0
 10
163.982
 20
36.5689
 30
0.0
 11
164.782
 21
36.5689
 31
0.0
  0
LINE
  8
0
 62
     0
 10
164.782
 20
36.5689
 30
0.0
 11
164.782
 21
30.7674
 31
0.0
  0
LINE
  8
0
 62
     0
 10
164.782
 20
30.7674
 30
0.0
 11
163.982
 21
30.7674
 31
0.0
  0
LINE
  8
0
 62
     0
 10
163.982
 20
30.7674
 30
0.0
 11
163.982
 21
27.6683
 31
0.0
  0
LINE
  8
0
 62
     0
 10
163.982
 20
27.6683
 30
0.0
 11
164.782
 21
27.6683
 31
0.0
  0
LINE
  8
0
 62
     0
 10
164.782
 20
27.6683
 30
0.0
 11
164.782
 21
26.6678
 31
0.0
  0
LINE
  8
0
 62
     0
 10
164.782
 20
26.6678
 30
0.0
 11
178.781
 21
26.6678
 31
0.0
  0
LINE
  8
0
 62
     0
 10
178.781
 20
26.6678
 30
0.0
 11
178.781
 21
27.6683
 31
0.0
  0
LINE
  8
0
 62
     0
 10
178.781
 20
27.6683
 30
0.0
 11
179.582
 21
27.6683
 31
0.0
  0
LINE
  8
0
 62
     0
 10
179.582
 20
27.6683
 30
0.0
 11
179.582
 21
30.7674
 31
0.0
  0
LINE
  8
0
 62
     0
 10
179.582
 20
30.7674
 30
0.0
 11
178.781
 21
30.7674
 31
0.0
  0
LINE
  8
0
 62
     0
 10
178.781
 20
30.7674
 30
0.0
 11
178.781
 21
36.5689
 31
0.0
  0
LINE
  8
0
 62
     0
 10
178.781
 20
36.5689
 30
0.0
 11
179.582
 21
36.5689
 31
0.0
  0
LINE
  8
0
 62
     0
 10
179.582
 20
36.5689
 30
0.0
 11
179.582
 21
39.6681
 31
0.0
  0
LINE
  8
0
 62
     0
 10
179.582
 20
39.6681
 30
0.0
 11
178.781
 21
39.6681
 31
0.0
  0
LINE
  8
0
 62
     0
 10
178.781
 20
39.6681
 30
0.0
 11
178.781
 21
40.6686
 31
0.0
  0
LINE
  8
0
 62
     0
 10
178.781
 20
40.6686
 30
0.0
 11
164.782
 21
40.6686
 31
0.0
  0
LINE
  8
0
 62
     0
 10
183.832
 20
40.6686
 30
0.0
 11
183.832
 21
39.6681
 31
0.0
  0
LINE
  8
0
 62
     0
 10
183.832
 20
39.6681
 30
0.0
 11
183.032
 21
39.6681
 31
0.0
  0
LINE
  8
0
 62
     0
 10
183.032
 20
39.6681
 30
0.0
 11
183.032
 21
36.5689
 31
0.0
  0
LINE
  8
0
 62
     0
 10
183.032
 20
36.5689
 30
0.0
 11
183.832
 21
36.5689
 31
0.0
  0
LINE
  8
0
 62
     0
 10
183.832
 20
36.5689
 30
0.0
 11
183.832
 21
30.7674
 31
0.0
  0
LINE
  8
0
 62
     0
 10
183.832
 20
30.7674
 30
0.0
 11
183.032
 21
30.7674
 31
0.0
  0
LINE
  8
0
 62
     0
 10
183.032
 20
30.7674
 30
0.0
 11
183.032
 21
27.6683
 31
0.0
  0
LINE
  8
0
 62
     0
 10
183.032
 20
27.6683
 30
0.0
 11
183.832
 21
27.6683
 31
0.0
  0
LINE
  8
0
 62
     0
 10
183.832
 20
27.6683
 30
0.0
 11
183.832
 21
26.6678
 31
0.0
  0
LINE
  8
0
 62
     0
 10
183.832
 20
26.6678
 30
0.0
 11
197.831
 21
26.6678
 31
0.0
  0
LINE
  8
0
 62
     0
 10
197.831
 20
26.6678
 30
0.0
 11
197.831
 21
27.6683
 31
0.0
  0
LINE
  8
0
 62
     0
 10
197.831
 20
27.6683
 30
0.0
 11
198.632
 21
27.6683
 31
0.0
  0
LINE
  8
0
 62
     0
 10
198.632
 20
27.6683
 30
0.0
 11
198.632
 21
30.7674
 31
0.0
  0
LINE
  8
0
 62
     0
 10
198.632
 20
30.7674
 30
0.0
 11
197.831
 21
30.7674
 31
0.0
  0
LINE
  8
0
 62
     0
 10
197.831
 20
30.7674
 30
0.0
 11
197.831
 21
36.5689
 31
0.0
  0
LINE
  8
0
 62
     0
 10
197.831
 20
36.5689
 30
0.0
 11
198.632
 21
36.5689
 31
0.0
  0
LINE
  8
0
 62
     0
 10
198.632
 20
36.5689
 30
0.0
 11
198.632
 21
39.6681
 31
0.0
  0
LINE
  8
0
 62
     0
 10
198.632
 20
39.6681
 30
0.0
 11
197.831
 21
39.6681
 31
0.0
  0
LINE
  8
0
 62
     0
 10
197.831
 20
39.6681
 30
0.0
 11
197.831
 21
40.6686
 31
0.0
  0
LINE
  8
0
 62
     0
 10
197.831
 20
40.6686
 30
0.0
 11
183.832
 21
40.6686
 31
0.0
  0
LINE
  8
0
 62
     0
 10
202.882
 20
40.6686
 30
0.0
 11
202.882
 21
39.6681
 31
0.0
  0
LINE
  8
0
 62
     0
 10
202.882
 20
39.6681
 30
0.0
 11
202.082
 21
39.6681
 31
0.0
  0
LINE
  8
0
 62
     0
 10
202.082
 20
39.6681
 30
0.0
 11
202.082
 21
36.5689
 31
0.0
  0
LINE
  8
0
 62
     0
 10
202.082
 20
36.5689
 30
0.0
 11
202.882
 21
36.5689
 31
0.0
  0
LINE
  8
0
 62
     0
 10
202.882
 20
36.5689
 30
0.0
 11
202.882
 21
30.7674
 31
0.0
  0
LINE
  8
0
 62
     0
 10
202.882
 20
30.7674
 30
0.0
 11
202.082
 21
30.7674
 31
0.0
  0
LINE
  8
0
 62
     0
 10
202.082
 20
30.7674
 30
0.0
 11
202.082
 21
27.6683
 31
0.0
  0
LINE
  8
0
 62
     0
 10
202.082
 20
27.6683
 30
0.0
 11
202.882
 21
27.6683
 31
0.0
  0
LINE
  8
0
 62
     0
 10
202.882
 20
27.6683
 30
0.0
 11
202.882
 21
26.6678
 31
0.0
  0
LINE
  8
0
 62
     0
 10
202.882
 20
26.6678
 30
0.0
 11
216.881
 21
26.6678
 31
0.0
  0
LINE
  8
0
 62
     0
 10
216.881
 20
26.6678
 30
0.0
 11
216.881
 21
27.6683
 31
0.0
  0
LINE
  8
0
 62
     0
 10
216.881
 20
27.6683
 30
0.0
 11
217.682
 21
27.6683
 31
0.0
  0
LINE
  8
0
 62
     0
 10
217.682
 20
27.6683
 30
0.0
 11
217.682
 21
30.7674
 31
0.0
  0
LINE
  8
0
 62
     0
 10
217.682
 20
30.7674
 30
0.0
 11
216.881
 21
30.7674
 31
0.0
  0
LINE
  8
0
 62
     0
 10
216.881
 20
30.7674
 30
0.0
 11
216.881
 21
36.5689
 31
0.0
  0
LINE
  8
0
 62
     0
 10
216.881
 20
36.5689
 30
0.0
 11
217.682
 21
36.5689
 31
0.0
  0
LINE
  8
0
 62
     0
 10
217.682
 20
36.5689
 30
0.0
 11
217.682
 21
39.6681
 31
0.0
  0
LINE
  8
0
 62
     0
 10
217.682
 20
39.6681
 30
0.0
 11
216.881
 21
39.6681
 31
0.0
  0
LINE
  8
0
 62
     0
 10
216.881
 20
39.6681
 30
0.0
 11
216.881
 21
40.6686
 31
0.0
  0
LINE
  8
0
 62
     0
 10
216.881
 20
40.6686
 30
0.0
 11
202.882
 21
40.6686
 31
0.0
  0
LINE
  8
0
 62
     0
 10
229.076
 20
40.6686
 30
0.0
 11
229.076
 21
39.6681
 31
0.0
  0
LINE
  8
0
 62
     0
 10
229.076
 20
39.6681
 30
0.0
 11
228.276
 21
39.6681
 31
0.0
  0
LINE
  8
0
 62
     0
 10
228.276
 20
39.6681
 30
0.0
 11
228.276
 21
36.5689
 31
0.0
  0
LINE
  8
0
 62
     0
 10
228.276
 20
36.5689
 30
0.0
 11
229.076
 21
36.5689
 31
0.0
  0
LINE
  8
0
 62
     0
 10
229.076
 20
36.5689
 30
0.0
 11
229.076
 21
30.7674
 31
0.0
  0
LINE
  8
0
 62
     0
 10
229.076
 20
30.7674
 30
0.0
 11
228.276
 21
30.7674
 31
0.0
  0
LINE
  8
0
 62
     0
 10
228.276
 20
30.7674
 30
0.0
 11
228.276
 21
27.6683
 31
0.0
  0
LINE
  8
0
 62
     0
 10
228.276
 20
27.6683
 30
0.0
 11
229.076
 21
27.6683
 31
0.0
  0
LINE
  8
0
 62
     0
 10
229.076
 20
27.6683
 30
0.0
 11
229.076
 21
26.6678
 31
0.0
  0
LINE
  8
0
 62
     0
 10
229.076
 20
26.6678
 30
0.0
 11
243.076
 21
26.6678
 31
0.0
  0
LINE
  8
0
 62
     0
 10
243.076
 20
26.6678
 30
0.0
 11
243.076
 21
27.6683
 31
0.0
  0
LINE
  8
0
 62
     0
 10
243.076
 20
27.6683
 30
0.0
 11
243.876
 21
27.6683
 31
0.0
  0
LINE
  8
0
 62
     0
 10
243.876
 20
27.6683
 30
0.0
 11
243.876
 21
30.7674
 31
0.0
  0
LINE
  8
0
 62
     0
 10
243.876
 20
30.7674
 30
0.0
 11
243.076
 21
30.7674
 31
0.0
  0
LINE
  8
0
 62
     0
 10
243.076
 20
30.7674
 30
0.0
 11
243.076
 21
36.5689
 31
0.0
  0
LINE
  8
0
 62
     0
 10
243.076
 20
36.5689
 30
0.0
 11
243.876
 21
36.5689
 31
0.0
  0
LINE
  8
0
 62
     0
 10
243.876
 20
36.5689
 30
0.0
 11
243.876
 21
39.6681
 31
0.0
  0
LINE
  8
0
 62
     0
 10
243.876
 20
39.6681
 30
0.0
 11
243.076
 21
39.6681
 31
0.0
  0
LINE
  8
0
 62
     0
 10
243.076
 20
39.6681
 30
0.0
 11
243.076
 21
40.6686
 31
0.0
  0
LINE
  8
0
 62
     0
 10
243.076
 20
40.6686
 30
0.0
 11
229.076
 21
40.6686
 31
0.0
  0
LINE
  8
0
 62
     0
 10
255.269
 20
40.6686
 30
0.0
 11
255.269
 21
39.6681
 31
0.0
  0
LINE
  8
0
 62
     0
 10
255.269
 20
39.6681
 30
0.0
 11
254.47
 21
39.6681
 31
0.0
  0
LINE
  8
0
 62
     0
 10
254.47
 20
39.6681
 30
0.0
 11
254.47
 21
36.5689
 31
0.0
  0
LINE
  8
0
 62
     0
 10
254.47
 20
36.5689
 30
0.0
 11
255.269
 21
36.5689
 31
0.0
  0
LINE
  8
0
 62
     0
 10
255.269
 20
36.5689
 30
0.0
 11
255.269
 21
30.7674
 31
0.0
  0
LINE
  8
0
 62
     0
 10
255.269
 20
30.7674
 30
0.0
 11
254.47
 21
30.7674
 31
0.0
  0
LINE
  8
0
 62
     0
 10
254.47
 20
30.7674
 30
0.0
 11
254.47
 21
27.6683
 31
0.0
  0
LINE
  8
0
 62
     0
 10
254.47
 20
27.6683
 30
0.0
 11
255.269
 21
27.6683
 31
0.0
  0
LINE
  8
0
 62
     0
 10
255.269
 20
27.6683
 30
0.0
 11
255.269
 21
26.6678
 31
0.0
  0
LINE
  8
0
 62
     0
 10
255.269
 20
26.6678
 30
0.0
 11
269.27
 21
26.6678
 31
0.0
  0
LINE
  8
0
 62
     0
 10
269.27
 20
26.6678
 30
0.0
 11
269.27
 21
27.6683
 31
0.0
  0
LINE
  8
0
 62
     0
 10
269.27
 20
27.6683
 30
0.0
 11
270.069
 21
27.6683
 31
0.0
  0
LINE
  8
0
 62
     0
 10
270.069
 20
27.6683
 30
0.0
 11
270.069
 21
30.7674
 31
0.0
  0
LINE
  8
0
 62
     0
 10
270.069
 20
30.7674
 30
0.0
 11
269.27
 21
30.7674
 31
0.0
  0
LINE
  8
0
 62
     0
 10
269.27
 20
30.7674
 30
0.0
 11
269.27
 21
36.5689
 31
0.0
  0
LINE
  8
0
 62
     0
 10
269.27
 20
36.5689
 30
0.0
 11
270.069
 21
36.5689
 31
0.0
  0
LINE
  8
0
 62
     0
 10
270.069
 20
36.5689
 30
0.0
 11
270.069
 21
39.6681
 31
0.0
  0
LINE
  8
0
 62
     0
 10
270.069
 20
39.6681
 30
0.0
 11
269.27
 21
39.6681
 31
0.0
  0
LINE
  8
0
 62
     0
 10
269.27
 20
39.6681
 30
0.0
 11
269.27
 21
40.6686
 31
0.0
  0
LINE
  8
0
 62
     0
 10
269.27
 20
40.6686
 30
0.0
 11
255.269
 21
40.6686
 31
0.0
  0
LINE
  8
0
 62
     0
 10
274.319
 20
40.6686
 30
0.0
 11
274.319
 21
39.6681
 31
0.0
  0
LINE
  8
0
 62
     0
 10
274.319
 20
39.6681
 30
0.0
 11
273.52
 21
39.6681
 31
0.0
  0
LINE
  8
0
 62
     0
 10
273.52
 20
39.6681
 30
0.0
 11
273.52
 21
36.5689
 31
0.0
  0
LINE
  8
0
 62
     0
 10
273.52
 20
36.5689
 30
0.0
 11
274.319
 21
36.5689
 31
0.0
  0
LINE
  8
0
 62
     0
 10
274.319
 20
36.5689
 30
0.0
 11
274.319
 21
30.7674
 31
0.0
  0
LINE
  8
0
 62
     0
 10
274.319
 20
30.7674
 30
0.0
 11
273.52
 21
30.7674
 31
0.0
  0
LINE
  8
0
 62
     0
 10
273.52
 20
30.7674
 30
0.0
 11
273.52
 21
27.6683
 31
0.0
  0
LINE
  8
0
 62
     0
 10
273.52
 20
27.6683
 30
0.0
 11
274.319
 21
27.6683
 31
0.0
  0
LINE
  8
0
 62
     0
 10
274.319
 20
27.6683
 30
0.0
 11
274.319
 21
26.6678
 31
0.0
  0
LINE
  8
0
 62
     0
 10
274.319
 20
26.6678
 30
0.0
 11
288.32
 21
26.6678
 31
0.0
  0
LINE
  8
0
 62
     0
 10
288.32
 20
26.6678
 30
0.0
 11
288.32
 21
27.6683
 31
0.0
  0
LINE
  8
0
 62
     0
 10
288.32
 20
27.6683
 30
0.0
 11
289.119
 21
27.6683
 31
0.0
  0
LINE
  8
0
 62
     0
 10
289.119
 20
27.6683
 30
0.0
 11
289.119
 21
30.7674
 31
0.0
  0
LINE
  8
0
 62
     0
 10
289.119
 20
30.7674
 30
0.0
 11
288.32
 21
30.7674
 31
0.0
  0
LINE
  8
0
 62
     0
 10
288.32
 20
30.7674
 30
0.0
 11
288.32
 21
36.5689
 31
0.0
  0
LINE
  8
0
 62
     0
 10
288.32
 20
36.5689
 30
0.0
 11
289.119
 21
36.5689
 31
0.0
  0
LINE
  8
0
 62
     0
 10
289.119
 20
36.5689
 30
0.0
 11
289.119
 21
39.6681
 31
0.0
  0
LINE
  8
0
 62
     0
 10
289.119
 20
39.6681
 30
0.0
 11
288.32
 21
39.6681
 31
0.0
  0
LINE
  8
0
 62
     0
 10
288.32
 20
39.6681
 30
0.0
 11
288.32
 21
40.6686
 31
0.0
  0
LINE
  8
0
 62
     0
 10
288.32
 20
40.6686
 30
0.0
 11
274.319
 21
40.6686
 31
0.0
  0
LINE
  8
0
 62
     0
 10
262.413
 20
59.7186
 30
0.0
 11
262.413
 21
58.7181
 31
0.0
  0
LINE
  8
0
 62
     0
 10
262.413
 20
58.7181
 30
0.0
 11
261.612
 21
58.7181
 31
0.0
  0
LINE
  8
0
 62
     0
 10
261.612
 20
58.7181
 30
0.0
 11
261.612
 21
55.6175
 31
0.0
  0
LINE
  8
0
 62
     0
 10
261.612
 20
55.6175
 30
0.0
 11
262.413
 21
55.6175
 31
0.0
  0
LINE
  8
0
 62
     0
 10
262.413
 20
55.6175
 30
0.0
 11
262.413
 21
55.0182
 31
0.0
  0
LINE
  8
0
 62
     0
 10
262.413
 20
55.0182
 30
0.0
 11
260.887
 21
55.0182
 31
0.0
  0
LINE
  8
0
 62
     0
 10
260.887
 20
55.0182
 30
0.0
 11
260.887
 21
58.2482
 31
0.0
  0
LINE
  8
0
 62
     0
 10
260.887
 20
58.2482
 30
0.0
 11
259.162
 21
58.2482
 31
0.0
  0
LINE
  8
0
 62
     0
 10
259.162
 20
58.2482
 30
0.0
 11
259.162
 21
59.1675
 31
0.0
  0
LINE
  8
0
 62
     0
 10
259.162
 20
59.1675
 30
0.0
 11
255.862
 21
59.1675
 31
0.0
  0
LINE
  8
0
 62
     0
 10
255.862
 20
59.1675
 30
0.0
 11
255.862
 21
58.2482
 31
0.0
  0
LINE
  8
0
 62
     0
 10
255.862
 20
58.2482
 30
0.0
 11
254.138
 21
58.2482
 31
0.0
  0
LINE
  8
0
 62
     0
 10
254.138
 20
58.2482
 30
0.0
 11
254.138
 21
55.0182
 31
0.0
  0
LINE
  8
0
 62
     0
 10
254.138
 20
55.0182
 30
0.0
 11
253.312
 21
55.0182
 31
0.0
  0
LINE
  8
0
 62
     0
 10
253.312
 20
55.0182
 30
0.0
 11
253.312
 21
52.2182
 31
0.0
  0
LINE
  8
0
 62
     0
 10
253.312
 20
52.2182
 30
0.0
 11
254.138
 21
52.2182
 31
0.0
  0
LINE
  8
0
 62
     0
 10
254.138
 20
52.2182
 30
0.0
 11
254.138
 21
45.9493
 31
0.0
  0
LINE
  8
0
 62
     0
 10
254.138
 20
45.9493
 30
0.0
 11
255.862
 21
45.9493
 31
0.0
  0
LINE
  8
0
 62
     0
 10
255.862
 20
45.9493
 30
0.0
 11
255.862
 21
44.9682
 31
0.0
  0
LINE
  8
0
 62
     0
 10
255.862
 20
44.9682
 30
0.0
 11
259.162
 21
44.9682
 31
0.0
  0
LINE
  8
0
 62
     0
 10
259.162
 20
44.9682
 30
0.0
 11
259.162
 21
45.9493
 31
0.0
  0
LINE
  8
0
 62
     0
 10
259.162
 20
45.9493
 30
0.0
 11
260.887
 21
45.9493
 31
0.0
  0
LINE
  8
0
 62
     0
 10
260.887
 20
45.9493
 30
0.0
 11
260.887
 21
50.4183
 31
0.0
  0
LINE
  8
0
 62
     0
 10
260.887
 20
50.4183
 30
0.0
 11
262.413
 21
50.4183
 31
0.0
  0
LINE
  8
0
 62
     0
 10
262.413
 20
50.4183
 30
0.0
 11
262.413
 21
49.8175
 31
0.0
  0
LINE
  8
0
 62
     0
 10
262.413
 20
49.8175
 30
0.0
 11
261.612
 21
49.8175
 31
0.0
  0
LINE
  8
0
 62
     0
 10
261.612
 20
49.8175
 30
0.0
 11
261.612
 21
46.7184
 31
0.0
  0
LINE
  8
0
 62
     0
 10
261.612
 20
46.7184
 30
0.0
 11
262.413
 21
46.7184
 31
0.0
  0
LINE
  8
0
 62
     0
 10
262.413
 20
46.7184
 30
0.0
 11
262.413
 21
45.7179
 31
0.0
  0
LINE
  8
0
 62
     0
 10
262.413
 20
45.7179
 30
0.0
 11
276.412
 21
45.7179
 31
0.0
  0
LINE
  8
0
 62
     0
 10
276.412
 20
45.7179
 30
0.0
 11
276.412
 21
46.7184
 31
0.0
  0
LINE
  8
0
 62
     0
 10
276.412
 20
46.7184
 30
0.0
 11
277.213
 21
46.7184
 31
0.0
  0
LINE
  8
0
 62
     0
 10
277.213
 20
46.7184
 30
0.0
 11
277.213
 21
49.8175
 31
0.0
  0
LINE
  8
0
 62
     0
 10
277.213
 20
49.8175
 30
0.0
 11
276.412
 21
49.8175
 31
0.0
  0
LINE
  8
0
 62
     0
 10
276.412
 20
49.8175
 30
0.0
 11
276.412
 21
50.4183
 31
0.0
  0
LINE
  8
0
 62
     0
 10
276.412
 20
50.4183
 30
0.0
 11
277.938
 21
50.4183
 31
0.0
  0
LINE
  8
0
 62
     0
 10
277.938
 20
50.4183
 30
0.0
 11
277.938
 21
45.9493
 31
0.0
  0
LINE
  8
0
 62
     0
 10
277.938
 20
45.9493
 30
0.0
 11
279.663
 21
45.9493
 31
0.0
  0
LINE
  8
0
 62
     0
 10
279.663
 20
45.9493
 30
0.0
 11
279.663
 21
44.9682
 31
0.0
  0
LINE
  8
0
 62
     0
 10
279.663
 20
44.9682
 30
0.0
 11
282.962
 21
44.9682
 31
0.0
  0
LINE
  8
0
 62
     0
 10
282.962
 20
44.9682
 30
0.0
 11
282.962
 21
45.9493
 31
0.0
  0
LINE
  8
0
 62
     0
 10
282.962
 20
45.9493
 30
0.0
 11
284.687
 21
45.9493
 31
0.0
  0
LINE
  8
0
 62
     0
 10
284.687
 20
45.9493
 30
0.0
 11
284.687
 21
52.2182
 31
0.0
  0
LINE
  8
0
 62
     0
 10
284.687
 20
52.2182
 30
0.0
 11
285.513
 21
52.2182
 31
0.0
  0
LINE
  8
0
 62
     0
 10
285.513
 20
52.2182
 30
0.0
 11
285.513
 21
55.0182
 31
0.0
  0
LINE
  8
0
 62
     0
 10
285.513
 20
55.0182
 30
0.0
 11
284.687
 21
55.0182
 31
0.0
  0
LINE
  8
0
 62
     0
 10
284.687
 20
55.0182
 30
0.0
 11
284.687
 21
58.2482
 31
0.0
  0
LINE
  8
0
 62
     0
 10
284.687
 20
58.2482
 30
0.0
 11
282.962
 21
58.2482
 31
0.0
  0
LINE
  8
0
 62
     0
 10
282.962
 20
58.2482
 30
0.0
 11
282.962
 21
59.1675
 31
0.0
  0
LINE
  8
0
 62
     0
 10
282.962
 20
59.1675
 30
0.0
 11
279.663
 21
59.1675
 31
0.0
  0
LINE
  8
0
 62
     0
 10
279.663
 20
59.1675
 30
0.0
 11
279.663
 21
58.2482
 31
0.0
  0
LINE
  8
0
 62
     0
 10
279.663
 20
58.2482
 30
0.0
 11
277.938
 21
58.2482
 31
0.0
  0
LINE
  8
0
 62
     0
 10
277.938
 20
58.2482
 30
0.0
 11
277.938
 21
55.0182
 31
0.0
  0
LINE
  8
0
 62
     0
 10
277.938
 20
55.0182
 30
0.0
 11
276.412
 21
55.0182
 31
0.0
  0
LINE
  8
0
 62
     0
 10
276.412
 20
55.0182
 30
0.0
 11
276.412
 21
55.6175
 31
0.0
  0
LINE
  8
0
 62
     0
 10
276.412
 20
55.6175
 30
0.0
 11
277.213
 21
55.6175
 31
0.0
  0
LINE
  8
0
 62
     0
 10
277.213
 20
55.6175
 30
0.0
 11
277.213
 21
58.7181
 31
0.0
  0
LINE
  8
0
 62
     0
 10
277.213
 20
58.7181
 30
0.0
 11
276.412
 21
58.7181
 31
0.0
  0
LINE
  8
0
 62
     0
 10
276.412
 20
58.7181
 30
0.0
 11
276.412
 21
59.7186
 31
0.0
  0
LINE
  8
0
 62
     0
 10
276.412
 20
59.7186
 30
0.0
 11
262.413
 21
59.7186
 31
0.0
  0
LINE
  8
0
 62
     0
 10
14.7629
 20
59.7186
 30
0.0
 11
14.7629
 21
58.7181
 31
0.0
  0
LINE
  8
0
 62
     0
 10
14.7629
 20
58.7181
 30
0.0
 11
13.9623
 21
58.7181
 31
0.0
  0
LINE
  8
0
 62
     0
 10
13.9623
 20
58.7181
 30
0.0
 11
13.9623
 21
55.6175
 31
0.0
  0
LINE
  8
0
 62
     0
 10
13.9623
 20
55.6175
 30
0.0
 11
14.7629
 21
55.6175
 31
0.0
  0
LINE
  8
0
 62
     0
 10
14.7629
 20
55.6175
 30
0.0
 11
14.7629
 21
49.8175
 31
0.0
  0
LINE
  8
0
 62
     0
 10
14.7629
 20
49.8175
 30
0.0
 11
13.9623
 21
49.8175
 31
0.0
  0
LINE
  8
0
 62
     0
 10
13.9623
 20
49.8175
 30
0.0
 11
13.9623
 21
46.7184
 31
0.0
  0
LINE
  8
0
 62
     0
 10
13.9623
 20
46.7184
 30
0.0
 11
14.7629
 21
46.7184
 31
0.0
  0
LINE
  8
0
 62
     0
 10
14.7629
 20
46.7184
 30
0.0
 11
14.7629
 21
45.7179
 31
0.0
  0
LINE
  8
0
 62
     0
 10
14.7629
 20
45.7179
 30
0.0
 11
28.7624
 21
45.7179
 31
0.0
  0
LINE
  8
0
 62
     0
 10
28.7624
 20
45.7179
 30
0.0
 11
28.7624
 21
46.7184
 31
0.0
  0
LINE
  8
0
 62
     0
 10
28.7624
 20
46.7184
 30
0.0
 11
29.5631
 21
46.7184
 31
0.0
  0
LINE
  8
0
 62
     0
 10
29.5631
 20
46.7184
 30
0.0
 11
29.5631
 21
49.8175
 31
0.0
  0
LINE
  8
0
 62
     0
 10
29.5631
 20
49.8175
 30
0.0
 11
28.7624
 21
49.8175
 31
0.0
  0
LINE
  8
0
 62
     0
 10
28.7624
 20
49.8175
 30
0.0
 11
28.7624
 21
55.6175
 31
0.0
  0
LINE
  8
0
 62
     0
 10
28.7624
 20
55.6175
 30
0.0
 11
29.5631
 21
55.6175
 31
0.0
  0
LINE
  8
0
 62
     0
 10
29.5631
 20
55.6175
 30
0.0
 11
29.5631
 21
58.7181
 31
0.0
  0
LINE
  8
0
 62
     0
 10
29.5631
 20
58.7181
 30
0.0
 11
28.7624
 21
58.7181
 31
0.0
  0
LINE
  8
0
 62
     0
 10
28.7624
 20
58.7181
 30
0.0
 11
28.7624
 21
59.7186
 31
0.0
  0
LINE
  8
0
 62
     0
 10
28.7624
 20
59.7186
 30
0.0
 11
14.7629
 21
59.7186
 31
0.0
  0
LINE
  8
0
 62
     0
 10
40.9568
 20
59.7186
 30
0.0
 11
40.9568
 21
58.7181
 31
0.0
  0
LINE
  8
0
 62
     0
 10
40.9568
 20
58.7181
 30
0.0
 11
40.1574
 21
58.7181
 31
0.0
  0
LINE
  8
0
 62
     0
 10
40.1574
 20
58.7181
 30
0.0
 11
40.1574
 21
55.6175
 31
0.0
  0
LINE
  8
0
 62
     0
 10
40.1574
 20
55.6175
 30
0.0
 11
40.9568
 21
55.6175
 31
0.0
  0
LINE
  8
0
 62
     0
 10
40.9568
 20
55.6175
 30
0.0
 11
40.9568
 21
49.8175
 31
0.0
  0
LINE
  8
0
 62
     0
 10
40.9568
 20
49.8175
 30
0.0
 11
40.1574
 21
49.8175
 31
0.0
  0
LINE
  8
0
 62
     0
 10
40.1574
 20
49.8175
 30
0.0
 11
40.1574
 21
46.7184
 31
0.0
  0
LINE
  8
0
 62
     0
 10
40.1574
 20
46.7184
 30
0.0
 11
40.9568
 21
46.7184
 31
0.0
  0
LINE
  8
0
 62
     0
 10
40.9568
 20
46.7184
 30
0.0
 11
40.9568
 21
45.7179
 31
0.0
  0
LINE
  8
0
 62
     0
 10
40.9568
 20
45.7179
 30
0.0
 11
54.9561
 21
45.7179
 31
0.0
  0
LINE
  8
0
 62
     0
 10
54.9561
 20
45.7179
 30
0.0
 11
54.9561
 21
46.7184
 31
0.0
  0
LINE
  8
0
 62
     0
 10
54.9561
 20
46.7184
 30
0.0
 11
55.7569
 21
46.7184
 31
0.0
  0
LINE
  8
0
 62
     0
 10
55.7569
 20
46.7184
 30
0.0
 11
55.7569
 21
49.8175
 31
0.0
  0
LINE
  8
0
 62
     0
 10
55.7569
 20
49.8175
 30
0.0
 11
54.9561
 21
49.8175
 31
0.0
  0
LINE
  8
0
 62
     0
 10
54.9561
 20
49.8175
 30
0.0
 11
54.9561
 21
55.6175
 31
0.0
  0
LINE
  8
0
 62
     0
 10
54.9561
 20
55.6175
 30
0.0
 11
55.7569
 21
55.6175
 31
0.0
  0
LINE
  8
0
 62
     0
 10
55.7569
 20
55.6175
 30
0.0
 11
55.7569
 21
58.7181
 31
0.0
  0
LINE
  8
0
 62
     0
 10
55.7569
 20
58.7181
 30
0.0
 11
54.9561
 21
58.7181
 31
0.0
  0
LINE
  8
0
 62
     0
 10
54.9561
 20
58.7181
 30
0.0
 11
54.9561
 21
59.7186
 31
0.0
  0
LINE
  8
0
 62
     0
 10
54.9561
 20
59.7186
 30
0.0
 11
40.9568
 21
59.7186
 31
0.0
  0
LINE
  8
0
 62
     0
 10
60.0068
 20
59.7186
 30
0.0
 11
60.0068
 21
58.7181
 31
0.0
  0
LINE
  8
0
 62
     0
 10
60.0068
 20
58.7181
 30
0.0
 11
59.206
 21
58.7181
 31
0.0
  0
LINE
  8
0
 62
     0
 10
59.206
 20
58.7181
 30
0.0
 11
59.206
 21
55.6175
 31
0.0
  0
LINE
  8
0
 62
     0
 10
59.206
 20
55.6175
 30
0.0
 11
60.0068
 21
55.6175
 31
0.0
  0
LINE
  8
0
 62
     0
 10
60.0068
 20
55.6175
 30
0.0
 11
60.0068
 21
49.8175
 31
0.0
  0
LINE
  8
0
 62
     0
 10
60.0068
 20
49.8175
 30
0.0
 11
59.206
 21
49.8175
 31
0.0
  0
LINE
  8
0
 62
     0
 10
59.206
 20
49.8175
 30
0.0
 11
59.206
 21
46.7184
 31
0.0
  0
LINE
  8
0
 62
     0
 10
59.206
 20
46.7184
 30
0.0
 11
60.0068
 21
46.7184
 31
0.0
  0
LINE
  8
0
 62
     0
 10
60.0068
 20
46.7184
 30
0.0
 11
60.0068
 21
45.7179
 31
0.0
  0
LINE
  8
0
 62
     0
 10
60.0068
 20
45.7179
 30
0.0
 11
74.0061
 21
45.7179
 31
0.0
  0
LINE
  8
0
 62
     0
 10
74.0061
 20
45.7179
 30
0.0
 11
74.0061
 21
46.7184
 31
0.0
  0
LINE
  8
0
 62
     0
 10
74.0061
 20
46.7184
 30
0.0
 11
74.8069
 21
46.7184
 31
0.0
  0
LINE
  8
0
 62
     0
 10
74.8069
 20
46.7184
 30
0.0
 11
74.8069
 21
49.8175
 31
0.0
  0
LINE
  8
0
 62
     0
 10
74.8069
 20
49.8175
 30
0.0
 11
74.0061
 21
49.8175
 31
0.0
  0
LINE
  8
0
 62
     0
 10
74.0061
 20
49.8175
 30
0.0
 11
74.0061
 21
55.6175
 31
0.0
  0
LINE
  8
0
 62
     0
 10
74.0061
 20
55.6175
 30
0.0
 11
74.8069
 21
55.6175
 31
0.0
  0
LINE
  8
0
 62
     0
 10
74.8069
 20
55.6175
 30
0.0
 11
74.8069
 21
58.7181
 31
0.0
  0
LINE
  8
0
 62
     0
 10
74.8069
 20
58.7181
 30
0.0
 11
74.0061
 21
58.7181
 31
0.0
  0
LINE
  8
0
 62
     0
 10
74.0061
 20
58.7181
 30
0.0
 11
74.0061
 21
59.7186
 31
0.0
  0
LINE
  8
0
 62
     0
 10
74.0061
 20
59.7186
 30
0.0
 11
60.0068
 21
59.7186
 31
0.0
  0
LINE
  8
0
 62
     0
 10
79.0568
 20
59.7186
 30
0.0
 11
79.0568
 21
58.7181
 31
0.0
  0
LINE
  8
0
 62
     0
 10
79.0568
 20
58.7181
 30
0.0
 11
78.2574
 21
58.7181
 31
0.0
  0
LINE
  8
0
 62
     0
 10
78.2574
 20
58.7181
 30
0.0
 11
78.2574
 21
55.6175
 31
0.0
  0
LINE
  8
0
 62
     0
 10
78.2574
 20
55.6175
 30
0.0
 11
79.0568
 21
55.6175
 31
0.0
  0
LINE
  8
0
 62
     0
 10
79.0568
 20
55.6175
 30
0.0
 11
79.0568
 21
49.8175
 31
0.0
  0
LINE
  8
0
 62
     0
 10
79.0568
 20
49.8175
 30
0.0
 11
78.2574
 21
49.8175
 31
0.0
  0
LINE
  8
0
 62
     0
 10
78.2574
 20
49.8175
 30
0.0
 11
78.2574
 21
46.7184
 31
0.0
  0
LINE
  8
0
 62
     0
 10
78.2574
 20
46.7184
 30
0.0
 11
79.0568
 21
46.7184
 31
0.0
  0
LINE
  8
0
 62
     0
 10
79.0568
 20
46.7184
 30
0.0
 11
79.0568
 21
45.7179
 31
0.0
  0
LINE
  8
0
 62
     0
 10
79.0568
 20
45.7179
 30
0.0
 11
93.0561
 21
45.7179
 31
0.0
  0
LINE
  8
0
 62
     0
 10
93.0561
 20
45.7179
 30
0.0
 11
93.0561
 21
46.7184
 31
0.0
  0
LINE
  8
0
 62
     0
 10
93.0561
 20
46.7184
 30
0.0
 11
93.8569
 21
46.7184
 31
0.0
  0
LINE
  8
0
 62
     0
 10
93.8569
 20
46.7184
 30
0.0
 11
93.8569
 21
49.8175
 31
0.0
  0
LINE
  8
0
 62
     0
 10
93.8569
 20
49.8175
 30
0.0
 11
93.0561
 21
49.8175
 31
0.0
  0
LINE
  8
0
 62
     0
 10
93.0561
 20
49.8175
 30
0.0
 11
93.0561
 21
55.6175
 31
0.0
  0
LINE
  8
0
 62
     0
 10
93.0561
 20
55.6175
 30
0.0
 11
93.8569
 21
55.6175
 31
0.0
  0
LINE
  8
0
 62
     0
 10
93.8569
 20
55.6175
 30
0.0
 11
93.8569
 21
58.7181
 31
0.0
  0
LINE
  8
0
 62
     0
 10
93.8569
 20
58.7181
 30
0.0
 11
93.0561
 21
58.7181
 31
0.0
  0
LINE
  8
0
 62
     0
 10
93.0561
 20
58.7181
 30
0.0
 11
93.0561
 21
59.7186
 31
0.0
  0
LINE
  8
0
 62
     0
 10
93.0561
 20
59.7186
 30
0.0
 11
79.0568
 21
59.7186
 31
0.0
  0
LINE
  8
0
 62
     0
 10
98.1068
 20
59.7186
 30
0.0
 11
98.1068
 21
58.7181
 31
0.0
  0
LINE
  8
0
 62
     0
 10
98.1068
 20
58.7181
 30
0.0
 11
97.3074
 21
58.7181
 31
0.0
  0
LINE
  8
0
 62
     0
 10
97.3074
 20
58.7181
 30
0.0
 11
97.3074
 21
55.6175
 31
0.0
  0
LINE
  8
0
 62
     0
 10
97.3074
 20
55.6175
 30
0.0
 11
98.1068
 21
55.6175
 31
0.0
  0
LINE
  8
0
 62
     0
 10
98.1068
 20
55.6175
 30
0.0
 11
98.1068
 21
49.8175
 31
0.0
  0
LINE
  8
0
 62
     0
 10
98.1068
 20
49.8175
 30
0.0
 11
97.3074
 21
49.8175
 31
0.0
  0
LINE
  8
0
 62
     0
 10
97.3074
 20
49.8175
 30
0.0
 11
97.3074
 21
46.7184
 31
0.0
  0
LINE
  8
0
 62
     0
 10
97.3074
 20
46.7184
 30
0.0
 11
98.1068
 21
46.7184
 31
0.0
  0
LINE
  8
0
 62
     0
 10
98.1068
 20
46.7184
 30
0.0
 11
98.1068
 21
45.7179
 31
0.0
  0
LINE
  8
0
 62
     0
 10
98.1068
 20
45.7179
 30
0.0
 11
112.106
 21
45.7179
 31
0.0
  0
LINE
  8
0
 62
     0
 10
112.106
 20
45.7179
 30
0.0
 11
112.106
 21
46.7184
 31
0.0
  0
LINE
  8
0
 62
     0
 10
112.106
 20
46.7184
 30
0.0
 11
112.907
 21
46.7184
 31
0.0
  0
LINE
  8
0
 62
     0
 10
112.907
 20
46.7184
 30
0.0
 11
112.907
 21
49.8175
 31
0.0
  0
LINE
  8
0
 62
     0
 10
112.907
 20
49.8175
 30
0.0
 11
112.106
 21
49.8175
 31
0.0
  0
LINE
  8
0
 62
     0
 10
112.106
 20
49.8175
 30
0.0
 11
112.106
 21
55.6175
 31
0.0
  0
LINE
  8
0
 62
     0
 10
112.106
 20
55.6175
 30
0.0
 11
112.907
 21
55.6175
 31
0.0
  0
LINE
  8
0
 62
     0
 10
112.907
 20
55.6175
 30
0.0
 11
112.907
 21
58.7181
 31
0.0
  0
LINE
  8
0
 62
     0
 10
112.907
 20
58.7181
 30
0.0
 11
112.106
 21
58.7181
 31
0.0
  0
LINE
  8
0
 62
     0
 10
112.106
 20
58.7181
 30
0.0
 11
112.106
 21
59.7186
 31
0.0
  0
LINE
  8
0
 62
     0
 10
112.106
 20
59.7186
 30
0.0
 11
98.1068
 21
59.7186
 31
0.0
  0
LINE
  8
0
 62
     0
 10
117.157
 20
59.7186
 30
0.0
 11
117.157
 21
58.7181
 31
0.0
  0
LINE
  8
0
 62
     0
 10
117.157
 20
58.7181
 30
0.0
 11
116.357
 21
58.7181
 31
0.0
  0
LINE
  8
0
 62
     0
 10
116.357
 20
58.7181
 30
0.0
 11
116.357
 21
55.6175
 31
0.0
  0
LINE
  8
0
 62
     0
 10
116.357
 20
55.6175
 30
0.0
 11
117.157
 21
55.6175
 31
0.0
  0
LINE
  8
0
 62
     0
 10
117.157
 20
55.6175
 30
0.0
 11
117.157
 21
49.8175
 31
0.0
  0
LINE
  8
0
 62
     0
 10
117.157
 20
49.8175
 30
0.0
 11
116.357
 21
49.8175
 31
0.0
  0
LINE
  8
0
 62
     0
 10
116.357
 20
49.8175
 30
0.0
 11
116.357
 21
46.7184
 31
0.0
  0
LINE
  8
0
 62
     0
 10
116.357
 20
46.7184
 30
0.0
 11
117.157
 21
46.7184
 31
0.0
  0
LINE
  8
0
 62
     0
 10
117.157
 20
46.7184
 30
0.0
 11
117.157
 21
45.7179
 31
0.0
  0
LINE
  8
0
 62
     0
 10
117.157
 20
45.7179
 30
0.0
 11
131.156
 21
45.7179
 31
0.0
  0
LINE
  8
0
 62
     0
 10
131.156
 20
45.7179
 30
0.0
 11
131.156
 21
46.7184
 31
0.0
  0
LINE
  8
0
 62
     0
 10
131.156
 20
46.7184
 30
0.0
 11
131.957
 21
46.7184
 31
0.0
  0
LINE
  8
0
 62
     0
 10
131.957
 20
46.7184
 30
0.0
 11
131.957
 21
49.8175
 31
0.0
  0
LINE
  8
0
 62
     0
 10
131.957
 20
49.8175
 30
0.0
 11
131.156
 21
49.8175
 31
0.0
  0
LINE
  8
0
 62
     0
 10
131.156
 20
49.8175
 30
0.0
 11
131.156
 21
55.6175
 31
0.0
  0
LINE
  8
0
 62
     0
 10
131.156
 20
55.6175
 30
0.0
 11
131.957
 21
55.6175
 31
0.0
  0
LINE
  8
0
 62
     0
 10
131.957
 20
55.6175
 30
0.0
 11
131.957
 21
58.7181
 31
0.0
  0
LINE
  8
0
 62
     0
 10
131.957
 20
58.7181
 30
0.0
 11
131.156
 21
58.7181
 31
0.0
  0
LINE
  8
0
 62
     0
 10
131.156
 20
58.7181
 30
0.0
 11
131.156
 21
59.7186
 31
0.0
  0
LINE
  8
0
 62
     0
 10
131.156
 20
59.7186
 30
0.0
 11
117.157
 21
59.7186
 31
0.0
  0
LINE
  8
0
 62
     0
 10
136.207
 20
59.7186
 30
0.0
 11
136.207
 21
58.7181
 31
0.0
  0
LINE
  8
0
 62
     0
 10
136.207
 20
58.7181
 30
0.0
 11
135.407
 21
58.7181
 31
0.0
  0
LINE
  8
0
 62
     0
 10
135.407
 20
58.7181
 30
0.0
 11
135.407
 21
55.6175
 31
0.0
  0
LINE
  8
0
 62
     0
 10
135.407
 20
55.6175
 30
0.0
 11
136.207
 21
55.6175
 31
0.0
  0
LINE
  8
0
 62
     0
 10
136.207
 20
55.6175
 30
0.0
 11
136.207
 21
49.8175
 31
0.0
  0
LINE
  8
0
 62
     0
 10
136.207
 20
49.8175
 30
0.0
 11
135.407
 21
49.8175
 31
0.0
  0
LINE
  8
0
 62
     0
 10
135.407
 20
49.8175
 30
0.0
 11
135.407
 21
46.7184
 31
0.0
  0
LINE
  8
0
 62
     0
 10
135.407
 20
46.7184
 30
0.0
 11
136.207
 21
46.7184
 31
0.0
  0
LINE
  8
0
 62
     0
 10
136.207
 20
46.7184
 30
0.0
 11
136.207
 21
45.7179
 31
0.0
  0
LINE
  8
0
 62
     0
 10
136.207
 20
45.7179
 30
0.0
 11
150.206
 21
45.7179
 31
0.0
  0
LINE
  8
0
 62
     0
 10
150.206
 20
45.7179
 30
0.0
 11
150.206
 21
46.7184
 31
0.0
  0
LINE
  8
0
 62
     0
 10
150.206
 20
46.7184
 30
0.0
 11
151.007
 21
46.7184
 31
0.0
  0
LINE
  8
0
 62
     0
 10
151.007
 20
46.7184
 30
0.0
 11
151.007
 21
49.8175
 31
0.0
  0
LINE
  8
0
 62
     0
 10
151.007
 20
49.8175
 30
0.0
 11
150.206
 21
49.8175
 31
0.0
  0
LINE
  8
0
 62
     0
 10
150.206
 20
49.8175
 30
0.0
 11
150.206
 21
55.6175
 31
0.0
  0
LINE
  8
0
 62
     0
 10
150.206
 20
55.6175
 30
0.0
 11
151.007
 21
55.6175
 31
0.0
  0
LINE
  8
0
 62
     0
 10
151.007
 20
55.6175
 30
0.0
 11
151.007
 21
58.7181
 31
0.0
  0
LINE
  8
0
 62
     0
 10
151.007
 20
58.7181
 30
0.0
 11
150.206
 21
58.7181
 31
0.0
  0
LINE
  8
0
 62
     0
 10
150.206
 20
58.7181
 30
0.0
 11
150.206
 21
59.7186
 31
0.0
  0
LINE
  8
0
 62
     0
 10
150.206
 20
59.7186
 30
0.0
 11
136.207
 21
59.7186
 31
0.0
  0
LINE
  8
0
 62
     0
 10
155.257
 20
59.7186
 30
0.0
 11
155.257
 21
58.7181
 31
0.0
  0
LINE
  8
0
 62
     0
 10
155.257
 20
58.7181
 30
0.0
 11
154.457
 21
58.7181
 31
0.0
  0
LINE
  8
0
 62
     0
 10
154.457
 20
58.7181
 30
0.0
 11
154.457
 21
55.6175
 31
0.0
  0
LINE
  8
0
 62
     0
 10
154.457
 20
55.6175
 30
0.0
 11
155.257
 21
55.6175
 31
0.0
  0
LINE
  8
0
 62
     0
 10
155.257
 20
55.6175
 30
0.0
 11
155.257
 21
49.8175
 31
0.0
  0
LINE
  8
0
 62
     0
 10
155.257
 20
49.8175
 30
0.0
 11
154.457
 21
49.8175
 31
0.0
  0
LINE
  8
0
 62
     0
 10
154.457
 20
49.8175
 30
0.0
 11
154.457
 21
46.7184
 31
0.0
  0
LINE
  8
0
 62
     0
 10
154.457
 20
46.7184
 30
0.0
 11
155.257
 21
46.7184
 31
0.0
  0
LINE
  8
0
 62
     0
 10
155.257
 20
46.7184
 30
0.0
 11
155.257
 21
45.7179
 31
0.0
  0
LINE
  8
0
 62
     0
 10
155.257
 20
45.7179
 30
0.0
 11
169.256
 21
45.7179
 31
0.0
  0
LINE
  8
0
 62
     0
 10
169.256
 20
45.7179
 30
0.0
 11
169.256
 21
46.7184
 31
0.0
  0
LINE
  8
0
 62
     0
 10
169.256
 20
46.7184
 30
0.0
 11
170.057
 21
46.7184
 31
0.0
  0
LINE
  8
0
 62
     0
 10
170.057
 20
46.7184
 30
0.0
 11
170.057
 21
49.8175
 31
0.0
  0
LINE
  8
0
 62
     0
 10
170.057
 20
49.8175
 30
0.0
 11
169.256
 21
49.8175
 31
0.0
  0
LINE
  8
0
 62
     0
 10
169.256
 20
49.8175
 30
0.0
 11
169.256
 21
55.6175
 31
0.0
  0
LINE
  8
0
 62
     0
 10
169.256
 20
55.6175
 30
0.0
 11
170.057
 21
55.6175
 31
0.0
  0
LINE
  8
0
 62
     0
 10
170.057
 20
55.6175
 30
0.0
 11
170.057
 21
58.7181
 31
0.0
  0
LINE
  8
0
 62
     0
 10
170.057
 20
58.7181
 30
0.0
 11
169.256
 21
58.7181
 31
0.0
  0
LINE
  8
0
 62
     0
 10
169.256
 20
58.7181
 30
0.0
 11
169.256
 21
59.7186
 31
0.0
  0
LINE
  8
0
 62
     0
 10
169.256
 20
59.7186
 30
0.0
 11
155.257
 21
59.7186
 31
0.0
  0
LINE
  8
0
 62
     0
 10
174.307
 20
59.7186
 30
0.0
 11
174.307
 21
58.7181
 31
0.0
  0
LINE
  8
0
 62
     0
 10
174.307
 20
58.7181
 30
0.0
 11
173.507
 21
58.7181
 31
0.0
  0
LINE
  8
0
 62
     0
 10
173.507
 20
58.7181
 30
0.0
 11
173.507
 21
55.6175
 31
0.0
  0
LINE
  8
0
 62
     0
 10
173.507
 20
55.6175
 30
0.0
 11
174.307
 21
55.6175
 31
0.0
  0
LINE
  8
0
 62
     0
 10
174.307
 20
55.6175
 30
0.0
 11
174.307
 21
49.8175
 31
0.0
  0
LINE
  8
0
 62
     0
 10
174.307
 20
49.8175
 30
0.0
 11
173.507
 21
49.8175
 31
0.0
  0
LINE
  8
0
 62
     0
 10
173.507
 20
49.8175
 30
0.0
 11
173.507
 21
46.7184
 31
0.0
  0
LINE
  8
0
 62
     0
 10
173.507
 20
46.7184
 30
0.0
 11
174.307
 21
46.7184
 31
0.0
  0
LINE
  8
0
 62
     0
 10
174.307
 20
46.7184
 30
0.0
 11
174.307
 21
45.7179
 31
0.0
  0
LINE
  8
0
 62
     0
 10
174.307
 20
45.7179
 30
0.0
 11
188.306
 21
45.7179
 31
0.0
  0
LINE
  8
0
 62
     0
 10
188.306
 20
45.7179
 30
0.0
 11
188.306
 21
46.7184
 31
0.0
  0
LINE
  8
0
 62
     0
 10
188.306
 20
46.7184
 30
0.0
 11
189.107
 21
46.7184
 31
0.0
  0
LINE
  8
0
 62
     0
 10
189.107
 20
46.7184
 30
0.0
 11
189.107
 21
49.8175
 31
0.0
  0
LINE
  8
0
 62
     0
 10
189.107
 20
49.8175
 30
0.0
 11
188.306
 21
49.8175
 31
0.0
  0
LINE
  8
0
 62
     0
 10
188.306
 20
49.8175
 30
0.0
 11
188.306
 21
55.6175
 31
0.0
  0
LINE
  8
0
 62
     0
 10
188.306
 20
55.6175
 30
0.0
 11
189.107
 21
55.6175
 31
0.0
  0
LINE
  8
0
 62
     0
 10
189.107
 20
55.6175
 30
0.0
 11
189.107
 21
58.7181
 31
0.0
  0
LINE
  8
0
 62
     0
 10
189.107
 20
58.7181
 30
0.0
 11
188.306
 21
58.7181
 31
0.0
  0
LINE
  8
0
 62
     0
 10
188.306
 20
58.7181
 30
0.0
 11
188.306
 21
59.7186
 31
0.0
  0
LINE
  8
0
 62
     0
 10
188.306
 20
59.7186
 30
0.0
 11
174.307
 21
59.7186
 31
0.0
  0
LINE
  8
0
 62
     0
 10
193.357
 20
59.7186
 30
0.0
 11
193.357
 21
58.7181
 31
0.0
  0
LINE
  8
0
 62
     0
 10
193.357
 20
58.7181
 30
0.0
 11
192.557
 21
58.7181
 31
0.0
  0
LINE
  8
0
 62
     0
 10
192.557
 20
58.7181
 30
0.0
 11
192.557
 21
55.6175
 31
0.0
  0
LINE
  8
0
 62
     0
 10
192.557
 20
55.6175
 30
0.0
 11
193.357
 21
55.6175
 31
0.0
  0
LINE
  8
0
 62
     0
 10
193.357
 20
55.6175
 30
0.0
 11
193.357
 21
49.8175
 31
0.0
  0
LINE
  8
0
 62
     0
 10
193.357
 20
49.8175
 30
0.0
 11
192.557
 21
49.8175
 31
0.0
  0
LINE
  8
0
 62
     0
 10
192.557
 20
49.8175
 30
0.0
 11
192.557
 21
46.7184
 31
0.0
  0
LINE
  8
0
 62
     0
 10
192.557
 20
46.7184
 30
0.0
 11
193.357
 21
46.7184
 31
0.0
  0
LINE
  8
0
 62
     0
 10
193.357
 20
46.7184
 30
0.0
 11
193.357
 21
45.7179
 31
0.0
  0
LINE
  8
0
 62
     0
 10
193.357
 20
45.7179
 30
0.0
 11
207.356
 21
45.7179
 31
0.0
  0
LINE
  8
0
 62
     0
 10
207.356
 20
45.7179
 30
0.0
 11
207.356
 21
46.7184
 31
0.0
  0
LINE
  8
0
 62
     0
 10
207.356
 20
46.7184
 30
0.0
 11
208.157
 21
46.7184
 31
0.0
  0
LINE
  8
0
 62
     0
 10
208.157
 20
46.7184
 30
0.0
 11
208.157
 21
49.8175
 31
0.0
  0
LINE
  8
0
 62
     0
 10
208.157
 20
49.8175
 30
0.0
 11
207.356
 21
49.8175
 31
0.0
  0
LINE
  8
0
 62
     0
 10
207.356
 20
49.8175
 30
0.0
 11
207.356
 21
55.6175
 31
0.0
  0
LINE
  8
0
 62
     0
 10
207.356
 20
55.6175
 30
0.0
 11
208.157
 21
55.6175
 31
0.0
  0
LINE
  8
0
 62
     0
 10
208.157
 20
55.6175
 30
0.0
 11
208.157
 21
58.7181
 31
0.0
  0
LINE
  8
0
 62
     0
 10
208.157
 20
58.7181
 30
0.0
 11
207.356
 21
58.7181
 31
0.0
  0
LINE
  8
0
 62
     0
 10
207.356
 20
58.7181
 30
0.0
 11
207.356
 21
59.7186
 31
0.0
  0
LINE
  8
0
 62
     0
 10
207.356
 20
59.7186
 30
0.0
 11
193.357
 21
59.7186
 31
0.0
  0
LINE
  8
0
 62
     0
 10
212.407
 20
59.7186
 30
0.0
 11
212.407
 21
58.7181
 31
0.0
  0
LINE
  8
0
 62
     0
 10
212.407
 20
58.7181
 30
0.0
 11
211.607
 21
58.7181
 31
0.0
  0
LINE
  8
0
 62
     0
 10
211.607
 20
58.7181
 30
0.0
 11
211.607
 21
55.6175
 31
0.0
  0
LINE
  8
0
 62
     0
 10
211.607
 20
55.6175
 30
0.0
 11
212.407
 21
55.6175
 31
0.0
  0
LINE
  8
0
 62
     0
 10
212.407
 20
55.6175
 30
0.0
 11
212.407
 21
49.8175
 31
0.0
  0
LINE
  8
0
 62
     0
 10
212.407
 20
49.8175
 30
0.0
 11
211.607
 21
49.8175
 31
0.0
  0
LINE
  8
0
 62
     0
 10
211.607
 20
49.8175
 30
0.0
 11
211.607
 21
46.7184
 31
0.0
  0
LINE
  8
0
 62
     0
 10
211.607
 20
46.7184
 30
0.0
 11
212.407
 21
46.7184
 31
0.0
  0
LINE
  8
0
 62
     0
 10
212.407
 20
46.7184
 30
0.0
 11
212.407
 21
45.7179
 31
0.0
  0
LINE
  8
0
 62
     0
 10
212.407
 20
45.7179
 30
0.0
 11
226.406
 21
45.7179
 31
0.0
  0
LINE
  8
0
 62
     0
 10
226.406
 20
45.7179
 30
0.0
 11
226.406
 21
46.7184
 31
0.0
  0
LINE
  8
0
 62
     0
 10
226.406
 20
46.7184
 30
0.0
 11
227.207
 21
46.7184
 31
0.0
  0
LINE
  8
0
 62
     0
 10
227.207
 20
46.7184
 30
0.0
 11
227.207
 21
49.8175
 31
0.0
  0
LINE
  8
0
 62
     0
 10
227.207
 20
49.8175
 30
0.0
 11
226.406
 21
49.8175
 31
0.0
  0
LINE
  8
0
 62
     0
 10
226.406
 20
49.8175
 30
0.0
 11
226.406
 21
55.6175
 31
0.0
  0
LINE
  8
0
 62
     0
 10
226.406
 20
55.6175
 30
0.0
 11
227.207
 21
55.6175
 31
0.0
  0
LINE
  8
0
 62
     0
 10
227.207
 20
55.6175
 30
0.0
 11
227.207
 21
58.7181
 31
0.0
  0
LINE
  8
0
 62
     0
 10
227.207
 20
58.7181
 30
0.0
 11
226.406
 21
58.7181
 31
0.0
  0
LINE
  8
0
 62
     0
 10
226.406
 20
58.7181
 30
0.0
 11
226.406
 21
59.7186
 31
0.0
  0
LINE
  8
0
 62
     0
 10
226.406
 20
59.7186
 30
0.0
 11
212.407
 21
59.7186
 31
0.0
  0
LINE
  8
0
 62
     0
 10
231.457
 20
59.7186
 30
0.0
 11
231.457
 21
58.7181
 31
0.0
  0
LINE
  8
0
 62
     0
 10
231.457
 20
58.7181
 30
0.0
 11
230.657
 21
58.7181
 31
0.0
  0
LINE
  8
0
 62
     0
 10
230.657
 20
58.7181
 30
0.0
 11
230.657
 21
55.6175
 31
0.0
  0
LINE
  8
0
 62
     0
 10
230.657
 20
55.6175
 30
0.0
 11
231.457
 21
55.6175
 31
0.0
  0
LINE
  8
0
 62
     0
 10
231.457
 20
55.6175
 30
0.0
 11
231.457
 21
49.8175
 31
0.0
  0
LINE
  8
0
 62
     0
 10
231.457
 20
49.8175
 30
0.0
 11
230.657
 21
49.8175
 31
0.0
  0
LINE
  8
0
 62
     0
 10
230.657
 20
49.8175
 30
0.0
 11
230.657
 21
46.7184
 31
0.0
  0
LINE
  8
0
 62
     0
 10
230.657
 20
46.7184
 30
0.0
 11
231.457
 21
46.7184
 31
0.0
  0
LINE
  8
0
 62
     0
 10
231.457
 20
46.7184
 30
0.0
 11
231.457
 21
45.7179
 31
0.0
  0
LINE
  8
0
 62
     0
 10
231.457
 20
45.7179
 30
0.0
 11
245.456
 21
45.7179
 31
0.0
  0
LINE
  8
0
 62
     0
 10
245.456
 20
45.7179
 30
0.0
 11
245.456
 21
46.7184
 31
0.0
  0
LINE
  8
0
 62
     0
 10
245.456
 20
46.7184
 30
0.0
 11
246.257
 21
46.7184
 31
0.0
  0
LINE
  8
0
 62
     0
 10
246.257
 20
46.7184
 30
0.0
 11
246.257
 21
49.8175
 31
0.0
  0
LINE
  8
0
 62
     0
 10
246.257
 20
49.8175
 30
0.0
 11
245.456
 21
49.8175
 31
0.0
  0
LINE
  8
0
 62
     0
 10
245.456
 20
49.8175
 30
0.0
 11
245.456
 21
55.6175
 31
0.0
  0
LINE
  8
0
 62
     0
 10
245.456
 20
55.6175
 30
0.0
 11
246.257
 21
55.6175
 31
0.0
  0
LINE
  8
0
 62
     0
 10
246.257
 20
55.6175
 30
0.0
 11
246.257
 21
58.7181
 31
0.0
  0
LINE
  8
0
 62
     0
 10
246.257
 20
58.7181
 30
0.0
 11
245.456
 21
58.7181
 31
0.0
  0
LINE
  8
0
 62
     0
 10
245.456
 20
58.7181
 30
0.0
 11
245.456
 21
59.7186
 31
0.0
  0
LINE
  8
0
 62
     0
 10
245.456
 20
59.7186
 30
0.0
 11
231.457
 21
59.7186
 31
0.0
  0
LINE
  8
0
 62
     0
 10
12.3817
 20
78.7686
 30
0.0
 11
12.3817
 21
77.7681
 31
0.0
  0
LINE
  8
0
 62
     0
 10
12.3817
 20
77.7681
 30
0.0
 11
11.5824
 21
77.7681
 31
0.0
  0
LINE
  8
0
 62
     0
 10
11.5824
 20
77.7681
 30
0.0
 11
11.5824
 21
74.6675
 31
0.0
  0
LINE
  8
0
 62
     0
 10
11.5824
 20
74.6675
 30
0.0
 11
12.3817
 21
74.6675
 31
0.0
  0
LINE
  8
0
 62
     0
 10
12.3817
 20
74.6675
 30
0.0
 11
12.3817
 21
68.8675
 31
0.0
  0
LINE
  8
0
 62
     0
 10
12.3817
 20
68.8675
 30
0.0
 11
11.5824
 21
68.8675
 31
0.0
  0
LINE
  8
0
 62
     0
 10
11.5824
 20
68.8675
 30
0.0
 11
11.5824
 21
65.7684
 31
0.0
  0
LINE
  8
0
 62
     0
 10
11.5824
 20
65.7684
 30
0.0
 11
12.3817
 21
65.7684
 31
0.0
  0
LINE
  8
0
 62
     0
 10
12.3817
 20
65.7684
 30
0.0
 11
12.3817
 21
64.7679
 31
0.0
  0
LINE
  8
0
 62
     0
 10
12.3817
 20
64.7679
 30
0.0
 11
26.3812
 21
64.7679
 31
0.0
  0
LINE
  8
0
 62
     0
 10
26.3812
 20
64.7679
 30
0.0
 11
26.3812
 21
65.7684
 31
0.0
  0
LINE
  8
0
 62
     0
 10
26.3812
 20
65.7684
 30
0.0
 11
27.1818
 21
65.7684
 31
0.0
  0
LINE
  8
0
 62
     0
 10
27.1818
 20
65.7684
 30
0.0
 11
27.1818
 21
68.8675
 31
0.0
  0
LINE
  8
0
 62
     0
 10
27.1818
 20
68.8675
 30
0.0
 11
26.3812
 21
68.8675
 31
0.0
  0
LINE
  8
0
 62
     0
 10
26.3812
 20
68.8675
 30
0.0
 11
26.3812
 21
74.6675
 31
0.0
  0
LINE
  8
0
 62
     0
 10
26.3812
 20
74.6675
 30
0.0
 11
27.1818
 21
74.6675
 31
0.0
  0
LINE
  8
0
 62
     0
 10
27.1818
 20
74.6675
 30
0.0
 11
27.1818
 21
77.7681
 31
0.0
  0
LINE
  8
0
 62
     0
 10
27.1818
 20
77.7681
 30
0.0
 11
26.3812
 21
77.7681
 31
0.0
  0
LINE
  8
0
 62
     0
 10
26.3812
 20
77.7681
 30
0.0
 11
26.3812
 21
78.7686
 31
0.0
  0
LINE
  8
0
 62
     0
 10
26.3812
 20
78.7686
 30
0.0
 11
12.3817
 21
78.7686
 31
0.0
  0
LINE
  8
0
 62
     0
 10
36.1943
 20
78.7686
 30
0.0
 11
36.1943
 21
77.7681
 31
0.0
  0
LINE
  8
0
 62
     0
 10
36.1943
 20
77.7681
 30
0.0
 11
35.3949
 21
77.7681
 31
0.0
  0
LINE
  8
0
 62
     0
 10
35.3949
 20
77.7681
 30
0.0
 11
35.3949
 21
74.6675
 31
0.0
  0
LINE
  8
0
 62
     0
 10
35.3949
 20
74.6675
 30
0.0
 11
36.1943
 21
74.6675
 31
0.0
  0
LINE
  8
0
 62
     0
 10
36.1943
 20
74.6675
 30
0.0
 11
36.1943
 21
68.8675
 31
0.0
  0
LINE
  8
0
 62
     0
 10
36.1943
 20
68.8675
 30
0.0
 11
35.3949
 21
68.8675
 31
0.0
  0
LINE
  8
0
 62
     0
 10
35.3949
 20
68.8675
 30
0.0
 11
35.3949
 21
65.7684
 31
0.0
  0
LINE
  8
0
 62
     0
 10
35.3949
 20
65.7684
 30
0.0
 11
36.1943
 21
65.7684
 31
0.0
  0
LINE
  8
0
 62
     0
 10
36.1943
 20
65.7684
 30
0.0
 11
36.1943
 21
64.7679
 31
0.0
  0
LINE
  8
0
 62
     0
 10
36.1943
 20
64.7679
 30
0.0
 11
50.195
 21
64.7679
 31
0.0
  0
LINE
  8
0
 62
     0
 10
50.195
 20
64.7679
 30
0.0
 11
50.195
 21
65.7684
 31
0.0
  0
LINE
  8
0
 62
     0
 10
50.195
 20
65.7684
 30
0.0
 11
50.9944
 21
65.7684
 31
0.0
  0
LINE
  8
0
 62
     0
 10
50.9944
 20
65.7684
 30
0.0
 11
50.9944
 21
68.8675
 31
0.0
  0
LINE
  8
0
 62
     0
 10
50.9944
 20
68.8675
 30
0.0
 11
50.195
 21
68.8675
 31
0.0
  0
LINE
  8
0
 62
     0
 10
50.195
 20
68.8675
 30
0.0
 11
50.195
 21
74.6675
 31
0.0
  0
LINE
  8
0
 62
     0
 10
50.195
 20
74.6675
 30
0.0
 11
50.9944
 21
74.6675
 31
0.0
  0
LINE
  8
0
 62
     0
 10
50.9944
 20
74.6675
 30
0.0
 11
50.9944
 21
77.7681
 31
0.0
  0
LINE
  8
0
 62
     0
 10
50.9944
 20
77.7681
 30
0.0
 11
50.195
 21
77.7681
 31
0.0
  0
LINE
  8
0
 62
     0
 10
50.195
 20
77.7681
 30
0.0
 11
50.195
 21
78.7686
 31
0.0
  0
LINE
  8
0
 62
     0
 10
50.195
 20
78.7686
 30
0.0
 11
36.1943
 21
78.7686
 31
0.0
  0
LINE
  8
0
 62
     0
 10
55.2443
 20
78.7686
 30
0.0
 11
55.2443
 21
77.7681
 31
0.0
  0
LINE
  8
0
 62
     0
 10
55.2443
 20
77.7681
 30
0.0
 11
54.4449
 21
77.7681
 31
0.0
  0
LINE
  8
0
 62
     0
 10
54.4449
 20
77.7681
 30
0.0
 11
54.4449
 21
74.6675
 31
0.0
  0
LINE
  8
0
 62
     0
 10
54.4449
 20
74.6675
 30
0.0
 11
55.2443
 21
74.6675
 31
0.0
  0
LINE
  8
0
 62
     0
 10
55.2443
 20
74.6675
 30
0.0
 11
55.2443
 21
68.8675
 31
0.0
  0
LINE
  8
0
 62
     0
 10
55.2443
 20
68.8675
 30
0.0
 11
54.4449
 21
68.8675
 31
0.0
  0
LINE
  8
0
 62
     0
 10
54.4449
 20
68.8675
 30
0.0
 11
54.4449
 21
65.7684
 31
0.0
  0
LINE
  8
0
 62
     0
 10
54.4449
 20
65.7684
 30
0.0
 11
55.2443
 21
65.7684
 31
0.0
  0
LINE
  8
0
 62
     0
 10
55.2443
 20
65.7684
 30
0.0
 11
55.2443
 21
64.7679
 31
0.0
  0
LINE
  8
0
 62
     0
 10
55.2443
 20
64.7679
 30
0.0
 11
69.245
 21
64.7679
 31
0.0
  0
LINE
  8
0
 62
     0
 10
69.245
 20
64.7679
 30
0.0
 11
69.245
 21
65.7684
 31
0.0
  0
LINE
  8
0
 62
     0
 10
69.245
 20
65.7684
 30
0.0
 11
70.0444
 21
65.7684
 31
0.0
  0
LINE
  8
0
 62
     0
 10
70.0444
 20
65.7684
 30
0.0
 11
70.0444
 21
68.8675
 31
0.0
  0
LINE
  8
0
 62
     0
 10
70.0444
 20
68.8675
 30
0.0
 11
69.245
 21
68.8675
 31
0.0
  0
LINE
  8
0
 62
     0
 10
69.245
 20
68.8675
 30
0.0
 11
69.245
 21
74.6675
 31
0.0
  0
LINE
  8
0
 62
     0
 10
69.245
 20
74.6675
 30
0.0
 11
70.0444
 21
74.6675
 31
0.0
  0
LINE
  8
0
 62
     0
 10
70.0444
 20
74.6675
 30
0.0
 11
70.0444
 21
77.7681
 31
0.0
  0
LINE
  8
0
 62
     0
 10
70.0444
 20
77.7681
 30
0.0
 11
69.245
 21
77.7681
 31
0.0
  0
LINE
  8
0
 62
     0
 10
69.245
 20
77.7681
 30
0.0
 11
69.245
 21
78.7686
 31
0.0
  0
LINE
  8
0
 62
     0
 10
69.245
 20
78.7686
 30
0.0
 11
55.2443
 21
78.7686
 31
0.0
  0
LINE
  8
0
 62
     0
 10
74.2943
 20
78.7686
 30
0.0
 11
74.2943
 21
77.7681
 31
0.0
  0
LINE
  8
0
 62
     0
 10
74.2943
 20
77.7681
 30
0.0
 11
73.4949
 21
77.7681
 31
0.0
  0
LINE
  8
0
 62
     0
 10
73.4949
 20
77.7681
 30
0.0
 11
73.4949
 21
74.6675
 31
0.0
  0
LINE
  8
0
 62
     0
 10
73.4949
 20
74.6675
 30
0.0
 11
74.2943
 21
74.6675
 31
0.0
  0
LINE
  8
0
 62
     0
 10
74.2943
 20
74.6675
 30
0.0
 11
74.2943
 21
68.8675
 31
0.0
  0
LINE
  8
0
 62
     0
 10
74.2943
 20
68.8675
 30
0.0
 11
73.4949
 21
68.8675
 31
0.0
  0
LINE
  8
0
 62
     0
 10
73.4949
 20
68.8675
 30
0.0
 11
73.4949
 21
65.7684
 31
0.0
  0
LINE
  8
0
 62
     0
 10
73.4949
 20
65.7684
 30
0.0
 11
74.2943
 21
65.7684
 31
0.0
  0
LINE
  8
0
 62
     0
 10
74.2943
 20
65.7684
 30
0.0
 11
74.2943
 21
64.7679
 31
0.0
  0
LINE
  8
0
 62
     0
 10
74.2943
 20
64.7679
 30
0.0
 11
88.295
 21
64.7679
 31
0.0
  0
LINE
  8
0
 62
     0
 10
88.295
 20
64.7679
 30
0.0
 11
88.295
 21
65.7684
 31
0.0
  0
LINE
  8
0
 62
     0
 10
88.295
 20
65.7684
 30
0.0
 11
89.0944
 21
65.7684
 31
0.0
  0
LINE
  8
0
 62
     0
 10
89.0944
 20
65.7684
 30
0.0
 11
89.0944
 21
68.8675
 31
0.0
  0
LINE
  8
0
 62
     0
 10
89.0944
 20
68.8675
 30
0.0
 11
88.295
 21
68.8675
 31
0.0
  0
LINE
  8
0
 62
     0
 10
88.295
 20
68.8675
 30
0.0
 11
88.295
 21
74.6675
 31
0.0
  0
LINE
  8
0
 62
     0
 10
88.295
 20
74.6675
 30
0.0
 11
89.0944
 21
74.6675
 31
0.0
  0
LINE
  8
0
 62
     0
 10
89.0944
 20
74.6675
 30
0.0
 11
89.0944
 21
77.7681
 31
0.0
  0
LINE
  8
0
 62
     0
 10
89.0944
 20
77.7681
 30
0.0
 11
88.295
 21
77.7681
 31
0.0
  0
LINE
  8
0
 62
     0
 10
88.295
 20
77.7681
 30
0.0
 11
88.295
 21
78.7686
 31
0.0
  0
LINE
  8
0
 62
     0
 10
88.295
 20
78.7686
 30
0.0
 11
74.2943
 21
78.7686
 31
0.0
  0
LINE
  8
0
 62
     0
 10
93.3443
 20
78.7686
 30
0.0
 11
93.3443
 21
77.7681
 31
0.0
  0
LINE
  8
0
 62
     0
 10
93.3443
 20
77.7681
 30
0.0
 11
92.5449
 21
77.7681
 31
0.0
  0
LINE
  8
0
 62
     0
 10
92.5449
 20
77.7681
 30
0.0
 11
92.5449
 21
74.6675
 31
0.0
  0
LINE
  8
0
 62
     0
 10
92.5449
 20
74.6675
 30
0.0
 11
93.3443
 21
74.6675
 31
0.0
  0
LINE
  8
0
 62
     0
 10
93.3443
 20
74.6675
 30
0.0
 11
93.3443
 21
68.8675
 31
0.0
  0
LINE
  8
0
 62
     0
 10
93.3443
 20
68.8675
 30
0.0
 11
92.5449
 21
68.8675
 31
0.0
  0
LINE
  8
0
 62
     0
 10
92.5449
 20
68.8675
 30
0.0
 11
92.5449
 21
65.7684
 31
0.0
  0
LINE
  8
0
 62
     0
 10
92.5449
 20
65.7684
 30
0.0
 11
93.3443
 21
65.7684
 31
0.0
  0
LINE
  8
0
 62
     0
 10
93.3443
 20
65.7684
 30
0.0
 11
93.3443
 21
64.7679
 31
0.0
  0
LINE
  8
0
 62
     0
 10
93.3443
 20
64.7679
 30
0.0
 11
107.345
 21
64.7679
 31
0.0
  0
LINE
  8
0
 62
     0
 10
107.345
 20
64.7679
 30
0.0
 11
107.345
 21
65.7684
 31
0.0
  0
LINE
  8
0
 62
     0
 10
107.345
 20
65.7684
 30
0.0
 11
108.144
 21
65.7684
 31
0.0
  0
LINE
  8
0
 62
     0
 10
108.144
 20
65.7684
 30
0.0
 11
108.144
 21
68.8675
 31
0.0
  0
LINE
  8
0
 62
     0
 10
108.144
 20
68.8675
 30
0.0
 11
107.345
 21
68.8675
 31
0.0
  0
LINE
  8
0
 62
     0
 10
107.345
 20
68.8675
 30
0.0
 11
107.345
 21
74.6675
 31
0.0
  0
LINE
  8
0
 62
     0
 10
107.345
 20
74.6675
 30
0.0
 11
108.144
 21
74.6675
 31
0.0
  0
LINE
  8
0
 62
     0
 10
108.144
 20
74.6675
 30
0.0
 11
108.144
 21
77.7681
 31
0.0
  0
LINE
  8
0
 62
     0
 10
108.144
 20
77.7681
 30
0.0
 11
107.345
 21
77.7681
 31
0.0
  0
LINE
  8
0
 62
     0
 10
107.345
 20
77.7681
 30
0.0
 11
107.345
 21
78.7686
 31
0.0
  0
LINE
  8
0
 62
     0
 10
107.345
 20
78.7686
 30
0.0
 11
93.3443
 21
78.7686
 31
0.0
  0
LINE
  8
0
 62
     0
 10
112.394
 20
78.7686
 30
0.0
 11
112.394
 21
77.7681
 31
0.0
  0
LINE
  8
0
 62
     0
 10
112.394
 20
77.7681
 30
0.0
 11
111.595
 21
77.7681
 31
0.0
  0
LINE
  8
0
 62
     0
 10
111.595
 20
77.7681
 30
0.0
 11
111.595
 21
74.6675
 31
0.0
  0
LINE
  8
0
 62
     0
 10
111.595
 20
74.6675
 30
0.0
 11
112.394
 21
74.6675
 31
0.0
  0
LINE
  8
0
 62
     0
 10
112.394
 20
74.6675
 30
0.0
 11
112.394
 21
68.8675
 31
0.0
  0
LINE
  8
0
 62
     0
 10
112.394
 20
68.8675
 30
0.0
 11
111.595
 21
68.8675
 31
0.0
  0
LINE
  8
0
 62
     0
 10
111.595
 20
68.8675
 30
0.0
 11
111.595
 21
65.7684
 31
0.0
  0
LINE
  8
0
 62
     0
 10
111.595
 20
65.7684
 30
0.0
 11
112.394
 21
65.7684
 31
0.0
  0
LINE
  8
0
 62
     0
 10
112.394
 20
65.7684
 30
0.0
 11
112.394
 21
64.7679
 31
0.0
  0
LINE
  8
0
 62
     0
 10
112.394
 20
64.7679
 30
0.0
 11
126.395
 21
64.7679
 31
0.0
  0
LINE
  8
0
 62
     0
 10
126.395
 20
64.7679
 30
0.0
 11
126.395
 21
65.7684
 31
0.0
  0
LINE
  8
0
 62
     0
 10
126.395
 20
65.7684
 30
0.0
 11
127.194
 21
65.7684
 31
0.0
  0
LINE
  8
0
 62
     0
 10
127.194
 20
65.7684
 30
0.0
 11
127.194
 21
68.8675
 31
0.0
  0
LINE
  8
0
 62
     0
 10
127.194
 20
68.8675
 30
0.0
 11
126.395
 21
68.8675
 31
0.0
  0
LINE
  8
0
 62
     0
 10
126.395
 20
68.8675
 30
0.0
 11
126.395
 21
74.6675
 31
0.0
  0
LINE
  8
0
 62
     0
 10
126.395
 20
74.6675
 30
0.0
 11
127.194
 21
74.6675
 31
0.0
  0
LINE
  8
0
 62
     0
 10
127.194
 20
74.6675
 30
0.0
 11
127.194
 21
77.7681
 31
0.0
  0
LINE
  8
0
 62
     0
 10
127.194
 20
77.7681
 30
0.0
 11
126.395
 21
77.7681
 31
0.0
  0
LINE
  8
0
 62
     0
 10
126.395
 20
77.7681
 30
0.0
 11
126.395
 21
78.7686
 31
0.0
  0
LINE
  8
0
 62
     0
 10
126.395
 20
78.7686
 30
0.0
 11
112.394
 21
78.7686
 31
0.0
  0
LINE
  8
0
 62
     0
 10
131.444
 20
78.7686
 30
0.0
 11
131.444
 21
77.7681
 31
0.0
  0
LINE
  8
0
 62
     0
 10
131.444
 20
77.7681
 30
0.0
 11
130.643
 21
77.7681
 31
0.0
  0
LINE
  8
0
 62
     0
 10
130.643
 20
77.7681
 30
0.0
 11
130.643
 21
74.6675
 31
0.0
  0
LINE
  8
0
 62
     0
 10
130.643
 20
74.6675
 30
0.0
 11
131.444
 21
74.6675
 31
0.0
  0
LINE
  8
0
 62
     0
 10
131.444
 20
74.6675
 30
0.0
 11
131.444
 21
68.8675
 31
0.0
  0
LINE
  8
0
 62
     0
 10
131.444
 20
68.8675
 30
0.0
 11
130.643
 21
68.8675
 31
0.0
  0
LINE
  8
0
 62
     0
 10
130.643
 20
68.8675
 30
0.0
 11
130.643
 21
65.7684
 31
0.0
  0
LINE
  8
0
 62
     0
 10
130.643
 20
65.7684
 30
0.0
 11
131.444
 21
65.7684
 31
0.0
  0
LINE
  8
0
 62
     0
 10
131.444
 20
65.7684
 30
0.0
 11
131.444
 21
64.7679
 31
0.0
  0
LINE
  8
0
 62
     0
 10
131.444
 20
64.7679
 30
0.0
 11
145.445
 21
64.7679
 31
0.0
  0
LINE
  8
0
 62
     0
 10
145.445
 20
64.7679
 30
0.0
 11
145.445
 21
65.7684
 31
0.0
  0
LINE
  8
0
 62
     0
 10
145.445
 20
65.7684
 30
0.0
 11
146.244
 21
65.7684
 31
0.0
  0
LINE
  8
0
 62
     0
 10
146.244
 20
65.7684
 30
0.0
 11
146.244
 21
68.8675
 31
0.0
  0
LINE
  8
0
 62
     0
 10
146.244
 20
68.8675
 30
0.0
 11
145.445
 21
68.8675
 31
0.0
  0
LINE
  8
0
 62
     0
 10
145.445
 20
68.8675
 30
0.0
 11
145.445
 21
74.6675
 31
0.0
  0
LINE
  8
0
 62
     0
 10
145.445
 20
74.6675
 30
0.0
 11
146.244
 21
74.6675
 31
0.0
  0
LINE
  8
0
 62
     0
 10
146.244
 20
74.6675
 30
0.0
 11
146.244
 21
77.7681
 31
0.0
  0
LINE
  8
0
 62
     0
 10
146.244
 20
77.7681
 30
0.0
 11
145.445
 21
77.7681
 31
0.0
  0
LINE
  8
0
 62
     0
 10
145.445
 20
77.7681
 30
0.0
 11
145.445
 21
78.7686
 31
0.0
  0
LINE
  8
0
 62
     0
 10
145.445
 20
78.7686
 30
0.0
 11
131.444
 21
78.7686
 31
0.0
  0
LINE
  8
0
 62
     0
 10
150.494
 20
78.7686
 30
0.0
 11
150.494
 21
77.7681
 31
0.0
  0
LINE
  8
0
 62
     0
 10
150.494
 20
77.7681
 30
0.0
 11
149.695
 21
77.7681
 31
0.0
  0
LINE
  8
0
 62
     0
 10
149.695
 20
77.7681
 30
0.0
 11
149.695
 21
74.6675
 31
0.0
  0
LINE
  8
0
 62
     0
 10
149.695
 20
74.6675
 30
0.0
 11
150.494
 21
74.6675
 31
0.0
  0
LINE
  8
0
 62
     0
 10
150.494
 20
74.6675
 30
0.0
 11
150.494
 21
68.8675
 31
0.0
  0
LINE
  8
0
 62
     0
 10
150.494
 20
68.8675
 30
0.0
 11
149.695
 21
68.8675
 31
0.0
  0
LINE
  8
0
 62
     0
 10
149.695
 20
68.8675
 30
0.0
 11
149.695
 21
65.7684
 31
0.0
  0
LINE
  8
0
 62
     0
 10
149.695
 20
65.7684
 30
0.0
 11
150.494
 21
65.7684
 31
0.0
  0
LINE
  8
0
 62
     0
 10
150.494
 20
65.7684
 30
0.0
 11
150.494
 21
64.7679
 31
0.0
  0
LINE
  8
0
 62
     0
 10
150.494
 20
64.7679
 30
0.0
 11
164.495
 21
64.7679
 31
0.0
  0
LINE
  8
0
 62
     0
 10
164.495
 20
64.7679
 30
0.0
 11
164.495
 21
65.7684
 31
0.0
  0
LINE
  8
0
 62
     0
 10
164.495
 20
65.7684
 30
0.0
 11
165.294
 21
65.7684
 31
0.0
  0
LINE
  8
0
 62
     0
 10
165.294
 20
65.7684
 30
0.0
 11
165.294
 21
68.8675
 31
0.0
  0
LINE
  8
0
 62
     0
 10
165.294
 20
68.8675
 30
0.0
 11
164.495
 21
68.8675
 31
0.0
  0
LINE
  8
0
 62
     0
 10
164.495
 20
68.8675
 30
0.0
 11
164.495
 21
74.6675
 31
0.0
  0
LINE
  8
0
 62
     0
 10
164.495
 20
74.6675
 30
0.0
 11
165.294
 21
74.6675
 31
0.0
  0
LINE
  8
0
 62
     0
 10
165.294
 20
74.6675
 30
0.0
 11
165.294
 21
77.7681
 31
0.0
  0
LINE
  8
0
 62
     0
 10
165.294
 20
77.7681
 30
0.0
 11
164.495
 21
77.7681
 31
0.0
  0
LINE
  8
0
 62
     0
 10
164.495
 20
77.7681
 30
0.0
 11
164.495
 21
78.7686
 31
0.0
  0
LINE
  8
0
 62
     0
 10
164.495
 20
78.7686
 30
0.0
 11
150.494
 21
78.7686
 31
0.0
  0
LINE
  8
0
 62
     0
 10
169.544
 20
78.7686
 30
0.0
 11
169.544
 21
77.7681
 31
0.0
  0
LINE
  8
0
 62
     0
 10
169.544
 20
77.7681
 30
0.0
 11
168.745
 21
77.7681
 31
0.0
  0
LINE
  8
0
 62
     0
 10
168.745
 20
77.7681
 30
0.0
 11
168.745
 21
74.6675
 31
0.0
  0
LINE
  8
0
 62
     0
 10
168.745
 20
74.6675
 30
0.0
 11
169.544
 21
74.6675
 31
0.0
  0
LINE
  8
0
 62
     0
 10
169.544
 20
74.6675
 30
0.0
 11
169.544
 21
68.8675
 31
0.0
  0
LINE
  8
0
 62
     0
 10
169.544
 20
68.8675
 30
0.0
 11
168.745
 21
68.8675
 31
0.0
  0
LINE
  8
0
 62
     0
 10
168.745
 20
68.8675
 30
0.0
 11
168.745
 21
65.7684
 31
0.0
  0
LINE
  8
0
 62
     0
 10
168.745
 20
65.7684
 30
0.0
 11
169.544
 21
65.7684
 31
0.0
  0
LINE
  8
0
 62
     0
 10
169.544
 20
65.7684
 30
0.0
 11
169.544
 21
64.7679
 31
0.0
  0
LINE
  8
0
 62
     0
 10
169.544
 20
64.7679
 30
0.0
 11
183.545
 21
64.7679
 31
0.0
  0
LINE
  8
0
 62
     0
 10
183.545
 20
64.7679
 30
0.0
 11
183.545
 21
65.7684
 31
0.0
  0
LINE
  8
0
 62
     0
 10
183.545
 20
65.7684
 30
0.0
 11
184.344
 21
65.7684
 31
0.0
  0
LINE
  8
0
 62
     0
 10
184.344
 20
65.7684
 30
0.0
 11
184.344
 21
68.8675
 31
0.0
  0
LINE
  8
0
 62
     0
 10
184.344
 20
68.8675
 30
0.0
 11
183.545
 21
68.8675
 31
0.0
  0
LINE
  8
0
 62
     0
 10
183.545
 20
68.8675
 30
0.0
 11
183.545
 21
74.6675
 31
0.0
  0
LINE
  8
0
 62
     0
 10
183.545
 20
74.6675
 30
0.0
 11
184.344
 21
74.6675
 31
0.0
  0
LINE
  8
0
 62
     0
 10
184.344
 20
74.6675
 30
0.0
 11
184.344
 21
77.7681
 31
0.0
  0
LINE
  8
0
 62
     0
 10
184.344
 20
77.7681
 30
0.0
 11
183.545
 21
77.7681
 31
0.0
  0
LINE
  8
0
 62
     0
 10
183.545
 20
77.7681
 30
0.0
 11
183.545
 21
78.7686
 31
0.0
  0
LINE
  8
0
 62
     0
 10
183.545
 20
78.7686
 30
0.0
 11
169.544
 21
78.7686
 31
0.0
  0
LINE
  8
0
 62
     0
 10
188.594
 20
78.7686
 30
0.0
 11
188.594
 21
77.7681
 31
0.0
  0
LINE
  8
0
 62
     0
 10
188.594
 20
77.7681
 30
0.0
 11
187.795
 21
77.7681
 31
0.0
  0
LINE
  8
0
 62
     0
 10
187.795
 20
77.7681
 30
0.0
 11
187.795
 21
74.6675
 31
0.0
  0
LINE
  8
0
 62
     0
 10
187.795
 20
74.6675
 30
0.0
 11
188.594
 21
74.6675
 31
0.0
  0
LINE
  8
0
 62
     0
 10
188.594
 20
74.6675
 30
0.0
 11
188.594
 21
68.8675
 31
0.0
  0
LINE
  8
0
 62
     0
 10
188.594
 20
68.8675
 30
0.0
 11
187.795
 21
68.8675
 31
0.0
  0
LINE
  8
0
 62
     0
 10
187.795
 20
68.8675
 30
0.0
 11
187.795
 21
65.7684
 31
0.0
  0
LINE
  8
0
 62
     0
 10
187.795
 20
65.7684
 30
0.0
 11
188.594
 21
65.7684
 31
0.0
  0
LINE
  8
0
 62
     0
 10
188.594
 20
65.7684
 30
0.0
 11
188.594
 21
64.7679
 31
0.0
  0
LINE
  8
0
 62
     0
 10
188.594
 20
64.7679
 30
0.0
 11
202.595
 21
64.7679
 31
0.0
  0
LINE
  8
0
 62
     0
 10
202.595
 20
64.7679
 30
0.0
 11
202.595
 21
65.7684
 31
0.0
  0
LINE
  8
0
 62
     0
 10
202.595
 20
65.7684
 30
0.0
 11
203.394
 21
65.7684
 31
0.0
  0
LINE
  8
0
 62
     0
 10
203.394
 20
65.7684
 30
0.0
 11
203.394
 21
68.8675
 31
0.0
  0
LINE
  8
0
 62
     0
 10
203.394
 20
68.8675
 30
0.0
 11
202.595
 21
68.8675
 31
0.0
  0
LINE
  8
0
 62
     0
 10
202.595
 20
68.8675
 30
0.0
 11
202.595
 21
74.6675
 31
0.0
  0
LINE
  8
0
 62
     0
 10
202.595
 20
74.6675
 30
0.0
 11
203.394
 21
74.6675
 31
0.0
  0
LINE
  8
0
 62
     0
 10
203.394
 20
74.6675
 30
0.0
 11
203.394
 21
77.7681
 31
0.0
  0
LINE
  8
0
 62
     0
 10
203.394
 20
77.7681
 30
0.0
 11
202.595
 21
77.7681
 31
0.0
  0
LINE
  8
0
 62
     0
 10
202.595
 20
77.7681
 30
0.0
 11
202.595
 21
78.7686
 31
0.0
  0
LINE
  8
0
 62
     0
 10
202.595
 20
78.7686
 30
0.0
 11
188.594
 21
78.7686
 31
0.0
  0
LINE
  8
0
 62
     0
 10
207.644
 20
78.7686
 30
0.0
 11
207.644
 21
77.7681
 31
0.0
  0
LINE
  8
0
 62
     0
 10
207.644
 20
77.7681
 30
0.0
 11
206.845
 21
77.7681
 31
0.0
  0
LINE
  8
0
 62
     0
 10
206.845
 20
77.7681
 30
0.0
 11
206.845
 21
74.6675
 31
0.0
  0
LINE
  8
0
 62
     0
 10
206.845
 20
74.6675
 30
0.0
 11
207.644
 21
74.6675
 31
0.0
  0
LINE
  8
0
 62
     0
 10
207.644
 20
74.6675
 30
0.0
 11
207.644
 21
68.8675
 31
0.0
  0
LINE
  8
0
 62
     0
 10
207.644
 20
68.8675
 30
0.0
 11
206.845
 21
68.8675
 31
0.0
  0
LINE
  8
0
 62
     0
 10
206.845
 20
68.8675
 30
0.0
 11
206.845
 21
65.7684
 31
0.0
  0
LINE
  8
0
 62
     0
 10
206.845
 20
65.7684
 30
0.0
 11
207.644
 21
65.7684
 31
0.0
  0
LINE
  8
0
 62
     0
 10
207.644
 20
65.7684
 30
0.0
 11
207.644
 21
64.7679
 31
0.0
  0
LINE
  8
0
 62
     0
 10
207.644
 20
64.7679
 30
0.0
 11
221.645
 21
64.7679
 31
0.0
  0
LINE
  8
0
 62
     0
 10
221.645
 20
64.7679
 30
0.0
 11
221.645
 21
65.7684
 31
0.0
  0
LINE
  8
0
 62
     0
 10
221.645
 20
65.7684
 30
0.0
 11
222.444
 21
65.7684
 31
0.0
  0
LINE
  8
0
 62
     0
 10
222.444
 20
65.7684
 30
0.0
 11
222.444
 21
68.8675
 31
0.0
  0
LINE
  8
0
 62
     0
 10
222.444
 20
68.8675
 30
0.0
 11
221.645
 21
68.8675
 31
0.0
  0
LINE
  8
0
 62
     0
 10
221.645
 20
68.8675
 30
0.0
 11
221.645
 21
74.6675
 31
0.0
  0
LINE
  8
0
 62
     0
 10
221.645
 20
74.6675
 30
0.0
 11
222.444
 21
74.6675
 31
0.0
  0
LINE
  8
0
 62
     0
 10
222.444
 20
74.6675
 30
0.0
 11
222.444
 21
77.7681
 31
0.0
  0
LINE
  8
0
 62
     0
 10
222.444
 20
77.7681
 30
0.0
 11
221.645
 21
77.7681
 31
0.0
  0
LINE
  8
0
 62
     0
 10
221.645
 20
77.7681
 30
0.0
 11
221.645
 21
78.7686
 31
0.0
  0
LINE
  8
0
 62
     0
 10
221.645
 20
78.7686
 30
0.0
 11
207.644
 21
78.7686
 31
0.0
  0
LINE
  8
0
 62
     0
 10
226.694
 20
78.7686
 30
0.0
 11
226.694
 21
77.7681
 31
0.0
  0
LINE
  8
0
 62
     0
 10
226.694
 20
77.7681
 30
0.0
 11
225.895
 21
77.7681
 31
0.0
  0
LINE
  8
0
 62
     0
 10
225.895
 20
77.7681
 30
0.0
 11
225.895
 21
74.6675
 31
0.0
  0
LINE
  8
0
 62
     0
 10
225.895
 20
74.6675
 30
0.0
 11
226.694
 21
74.6675
 31
0.0
  0
LINE
  8
0
 62
     0
 10
226.694
 20
74.6675
 30
0.0
 11
226.694
 21
68.8675
 31
0.0
  0
LINE
  8
0
 62
     0
 10
226.694
 20
68.8675
 30
0.0
 11
225.895
 21
68.8675
 31
0.0
  0
LINE
  8
0
 62
     0
 10
225.895
 20
68.8675
 30
0.0
 11
225.895
 21
65.7684
 31
0.0
  0
LINE
  8
0
 62
     0
 10
225.895
 20
65.7684
 30
0.0
 11
226.694
 21
65.7684
 31
0.0
  0
LINE
  8
0
 62
     0
 10
226.694
 20
65.7684
 30
0.0
 11
226.694
 21
64.7679
 31
0.0
  0
LINE
  8
0
 62
     0
 10
226.694
 20
64.7679
 30
0.0
 11
240.695
 21
64.7679
 31
0.0
  0
LINE
  8
0
 62
     0
 10
240.695
 20
64.7679
 30
0.0
 11
240.695
 21
65.7684
 31
0.0
  0
LINE
  8
0
 62
     0
 10
240.695
 20
65.7684
 30
0.0
 11
241.494
 21
65.7684
 31
0.0
  0
LINE
  8
0
 62
     0
 10
241.494
 20
65.7684
 30
0.0
 11
241.494
 21
68.8675
 31
0.0
  0
LINE
  8
0
 62
     0
 10
241.494
 20
68.8675
 30
0.0
 11
240.695
 21
68.8675
 31
0.0
  0
LINE
  8
0
 62
     0
 10
240.695
 20
68.8675
 30
0.0
 11
240.695
 21
74.6675
 31
0.0
  0
LINE
  8
0
 62
     0
 10
240.695
 20
74.6675
 30
0.0
 11
241.494
 21
74.6675
 31
0.0
  0
LINE
  8
0
 62
     0
 10
241.494
 20
74.6675
 30
0.0
 11
241.494
 21
77.7681
 31
0.0
  0
LINE
  8
0
 62
     0
 10
241.494
 20
77.7681
 30
0.0
 11
240.695
 21
77.7681
 31
0.0
  0
LINE
  8
0
 62
     0
 10
240.695
 20
77.7681
 30
0.0
 11
240.695
 21
78.7686
 31
0.0
  0
LINE
  8
0
 62
     0
 10
240.695
 20
78.7686
 30
0.0
 11
226.694
 21
78.7686
 31
0.0
  0
LINE
  8
0
 62
     0
 10
245.744
 20
78.7686
 30
0.0
 11
245.744
 21
77.7681
 31
0.0
  0
LINE
  8
0
 62
     0
 10
245.744
 20
77.7681
 30
0.0
 11
244.945
 21
77.7681
 31
0.0
  0
LINE
  8
0
 62
     0
 10
244.945
 20
77.7681
 30
0.0
 11
244.945
 21
74.6675
 31
0.0
  0
LINE
  8
0
 62
     0
 10
244.945
 20
74.6675
 30
0.0
 11
245.744
 21
74.6675
 31
0.0
  0
LINE
  8
0
 62
     0
 10
245.744
 20
74.6675
 30
0.0
 11
245.744
 21
68.8675
 31
0.0
  0
LINE
  8
0
 62
     0
 10
245.744
 20
68.8675
 30
0.0
 11
244.945
 21
68.8675
 31
0.0
  0
LINE
  8
0
 62
     0
 10
244.945
 20
68.8675
 30
0.0
 11
244.945
 21
65.7684
 31
0.0
  0
LINE
  8
0
 62
     0
 10
244.945
 20
65.7684
 30
0.0
 11
245.744
 21
65.7684
 31
0.0
  0
LINE
  8
0
 62
     0
 10
245.744
 20
65.7684
 30
0.0
 11
245.744
 21
64.7679
 31
0.0
  0
LINE
  8
0
 62
     0
 10
245.744
 20
64.7679
 30
0.0
 11
259.745
 21
64.7679
 31
0.0
  0
LINE
  8
0
 62
     0
 10
259.745
 20
64.7679
 30
0.0
 11
259.745
 21
65.7684
 31
0.0
  0
LINE
  8
0
 62
     0
 10
259.745
 20
65.7684
 30
0.0
 11
260.544
 21
65.7684
 31
0.0
  0
LINE
  8
0
 62
     0
 10
260.544
 20
65.7684
 30
0.0
 11
260.544
 21
68.8675
 31
0.0
  0
LINE
  8
0
 62
     0
 10
260.544
 20
68.8675
 30
0.0
 11
259.745
 21
68.8675
 31
0.0
  0
LINE
  8
0
 62
     0
 10
259.745
 20
68.8675
 30
0.0
 11
259.745
 21
74.6675
 31
0.0
  0
LINE
  8
0
 62
     0
 10
259.745
 20
74.6675
 30
0.0
 11
260.544
 21
74.6675
 31
0.0
  0
LINE
  8
0
 62
     0
 10
260.544
 20
74.6675
 30
0.0
 11
260.544
 21
77.7681
 31
0.0
  0
LINE
  8
0
 62
     0
 10
260.544
 20
77.7681
 30
0.0
 11
259.745
 21
77.7681
 31
0.0
  0
LINE
  8
0
 62
     0
 10
259.745
 20
77.7681
 30
0.0
 11
259.745
 21
78.7686
 31
0.0
  0
LINE
  8
0
 62
     0
 10
259.745
 20
78.7686
 30
0.0
 11
245.744
 21
78.7686
 31
0.0
  0
LINE
  8
0
 62
     0
 10
269.557
 20
78.7686
 30
0.0
 11
269.557
 21
77.7681
 31
0.0
  0
LINE
  8
0
 62
     0
 10
269.557
 20
77.7681
 30
0.0
 11
268.757
 21
77.7681
 31
0.0
  0
LINE
  8
0
 62
     0
 10
268.757
 20
77.7681
 30
0.0
 11
268.757
 21
74.6675
 31
0.0
  0
LINE
  8
0
 62
     0
 10
268.757
 20
74.6675
 30
0.0
 11
269.557
 21
74.6675
 31
0.0
  0
LINE
  8
0
 62
     0
 10
269.557
 20
74.6675
 30
0.0
 11
269.557
 21
68.8675
 31
0.0
  0
LINE
  8
0
 62
     0
 10
269.557
 20
68.8675
 30
0.0
 11
268.757
 21
68.8675
 31
0.0
  0
LINE
  8
0
 62
     0
 10
268.757
 20
68.8675
 30
0.0
 11
268.757
 21
65.7684
 31
0.0
  0
LINE
  8
0
 62
     0
 10
268.757
 20
65.7684
 30
0.0
 11
269.557
 21
65.7684
 31
0.0
  0
LINE
  8
0
 62
     0
 10
269.557
 20
65.7684
 30
0.0
 11
269.557
 21
64.7679
 31
0.0
  0
LINE
  8
0
 62
     0
 10
269.557
 20
64.7679
 30
0.0
 11
283.556
 21
64.7679
 31
0.0
  0
LINE
  8
0
 62
     0
 10
283.556
 20
64.7679
 30
0.0
 11
283.556
 21
65.7684
 31
0.0
  0
LINE
  8
0
 62
     0
 10
283.556
 20
65.7684
 30
0.0
 11
284.357
 21
65.7684
 31
0.0
  0
LINE
  8
0
 62
     0
 10
284.357
 20
65.7684
 30
0.0
 11
284.357
 21
68.8675
 31
0.0
  0
LINE
  8
0
 62
     0
 10
284.357
 20
68.8675
 30
0.0
 11
283.556
 21
68.8675
 31
0.0
  0
LINE
  8
0
 62
     0
 10
283.556
 20
68.8675
 30
0.0
 11
283.556
 21
74.6675
 31
0.0
  0
LINE
  8
0
 62
     0
 10
283.556
 20
74.6675
 30
0.0
 11
284.357
 21
74.6675
 31
0.0
  0
LINE
  8
0
 62
     0
 10
284.357
 20
74.6675
 30
0.0
 11
284.357
 21
77.7681
 31
0.0
  0
LINE
  8
0
 62
     0
 10
284.357
 20
77.7681
 30
0.0
 11
283.556
 21
77.7681
 31
0.0
  0
LINE
  8
0
 62
     0
 10
283.556
 20
77.7681
 30
0.0
 11
283.556
 21
78.7686
 31
0.0
  0
LINE
  8
0
 62
     0
 10
283.556
 20
78.7686
 30
0.0
 11
269.557
 21
78.7686
 31
0.0
  0
LINE
  8
0
 62
     0
 10
302.894
 20
78.7686
 30
0.0
 11
302.894
 21
77.7681
 31
0.0
  0
LINE
  8
0
 62
     0
 10
302.894
 20
77.7681
 30
0.0
 11
302.095
 21
77.7681
 31
0.0
  0
LINE
  8
0
 62
     0
 10
302.095
 20
77.7681
 30
0.0
 11
302.095
 21
74.6675
 31
0.0
  0
LINE
  8
0
 62
     0
 10
302.095
 20
74.6675
 30
0.0
 11
302.894
 21
74.6675
 31
0.0
  0
LINE
  8
0
 62
     0
 10
302.894
 20
74.6675
 30
0.0
 11
302.894
 21
68.8675
 31
0.0
  0
LINE
  8
0
 62
     0
 10
302.894
 20
68.8675
 30
0.0
 11
302.095
 21
68.8675
 31
0.0
  0
LINE
  8
0
 62
     0
 10
302.095
 20
68.8675
 30
0.0
 11
302.095
 21
65.7684
 31
0.0
  0
LINE
  8
0
 62
     0
 10
302.095
 20
65.7684
 30
0.0
 11
302.894
 21
65.7684
 31
0.0
  0
LINE
  8
0
 62
     0
 10
302.894
 20
65.7684
 30
0.0
 11
302.894
 21
64.7679
 31
0.0
  0
LINE
  8
0
 62
     0
 10
302.894
 20
64.7679
 30
0.0
 11
316.895
 21
64.7679
 31
0.0
  0
LINE
  8
0
 62
     0
 10
316.895
 20
64.7679
 30
0.0
 11
316.895
 21
65.7684
 31
0.0
  0
LINE
  8
0
 62
     0
 10
316.895
 20
65.7684
 30
0.0
 11
317.694
 21
65.7684
 31
0.0
  0
LINE
  8
0
 62
     0
 10
317.694
 20
65.7684
 30
0.0
 11
317.694
 21
68.8675
 31
0.0
  0
LINE
  8
0
 62
     0
 10
317.694
 20
68.8675
 30
0.0
 11
316.895
 21
68.8675
 31
0.0
  0
LINE
  8
0
 62
     0
 10
316.895
 20
68.8675
 30
0.0
 11
316.895
 21
74.6675
 31
0.0
  0
LINE
  8
0
 62
     0
 10
316.895
 20
74.6675
 30
0.0
 11
317.694
 21
74.6675
 31
0.0
  0
LINE
  8
0
 62
     0
 10
317.694
 20
74.6675
 30
0.0
 11
317.694
 21
77.7681
 31
0.0
  0
LINE
  8
0
 62
     0
 10
317.694
 20
77.7681
 30
0.0
 11
316.895
 21
77.7681
 31
0.0
  0
LINE
  8
0
 62
     0
 10
316.895
 20
77.7681
 30
0.0
 11
316.895
 21
78.7686
 31
0.0
  0
LINE
  8
0
 62
     0
 10
316.895
 20
78.7686
 30
0.0
 11
302.894
 21
78.7686
 31
0.0
  0
LINE
  8
0
 62
     0
 10
321.944
 20
78.7686
 30
0.0
 11
321.944
 21
77.7681
 31
0.0
  0
LINE
  8
0
 62
     0
 10
321.944
 20
77.7681
 30
0.0
 11
321.145
 21
77.7681
 31
0.0
  0
LINE
  8
0
 62
     0
 10
321.145
 20
77.7681
 30
0.0
 11
321.145
 21
74.6675
 31
0.0
  0
LINE
  8
0
 62
     0
 10
321.145
 20
74.6675
 30
0.0
 11
321.944
 21
74.6675
 31
0.0
  0
LINE
  8
0
 62
     0
 10
321.944
 20
74.6675
 30
0.0
 11
321.944
 21
68.8675
 31
0.0
  0
LINE
  8
0
 62
     0
 10
321.944
 20
68.8675
 30
0.0
 11
321.145
 21
68.8675
 31
0.0
  0
LINE
  8
0
 62
     0
 10
321.145
 20
68.8675
 30
0.0
 11
321.145
 21
65.7684
 31
0.0
  0
LINE
  8
0
 62
     0
 10
321.145
 20
65.7684
 30
0.0
 11
321.944
 21
65.7684
 31
0.0
  0
LINE
  8
0
 62
     0
 10
321.944
 20
65.7684
 30
0.0
 11
321.944
 21
64.7679
 31
0.0
  0
LINE
  8
0
 62
     0
 10
321.944
 20
64.7679
 30
0.0
 11
335.945
 21
64.7679
 31
0.0
  0
LINE
  8
0
 62
     0
 10
335.945
 20
64.7679
 30
0.0
 11
335.945
 21
65.7684
 31
0.0
  0
LINE
  8
0
 62
     0
 10
335.945
 20
65.7684
 30
0.0
 11
336.744
 21
65.7684
 31
0.0
  0
LINE
  8
0
 62
     0
 10
336.744
 20
65.7684
 30
0.0
 11
336.744
 21
68.8675
 31
0.0
  0
LINE
  8
0
 62
     0
 10
336.744
 20
68.8675
 30
0.0
 11
335.945
 21
68.8675
 31
0.0
  0
LINE
  8
0
 62
     0
 10
335.945
 20
68.8675
 30
0.0
 11
335.945
 21
74.6675
 31
0.0
  0
LINE
  8
0
 62
     0
 10
335.945
 20
74.6675
 30
0.0
 11
336.744
 21
74.6675
 31
0.0
  0
LINE
  8
0
 62
     0
 10
336.744
 20
74.6675
 30
0.0
 11
336.744
 21
77.7681
 31
0.0
  0
LINE
  8
0
 62
     0
 10
336.744
 20
77.7681
 30
0.0
 11
335.945
 21
77.7681
 31
0.0
  0
LINE
  8
0
 62
     0
 10
335.945
 20
77.7681
 30
0.0
 11
335.945
 21
78.7686
 31
0.0
  0
LINE
  8
0
 62
     0
 10
335.945
 20
78.7686
 30
0.0
 11
321.944
 21
78.7686
 31
0.0
  0
LINE
  8
0
 62
     0
 10
264.794
 20
97.8186
 30
0.0
 11
264.794
 21
96.8195
 31
0.0
  0
LINE
  8
0
 62
     0
 10
264.794
 20
96.8195
 30
0.0
 11
263.995
 21
96.8195
 31
0.0
  0
LINE
  8
0
 62
     0
 10
263.995
 20
96.8195
 30
0.0
 11
263.995
 21
93.7175
 31
0.0
  0
LINE
  8
0
 62
     0
 10
263.995
 20
93.7175
 30
0.0
 11
264.794
 21
93.7175
 31
0.0
  0
LINE
  8
0
 62
     0
 10
264.794
 20
93.7175
 30
0.0
 11
264.794
 21
93.1196
 31
0.0
  0
LINE
  8
0
 62
     0
 10
264.794
 20
93.1196
 30
0.0
 11
263.27
 21
93.1196
 31
0.0
  0
LINE
  8
0
 62
     0
 10
263.27
 20
93.1196
 30
0.0
 11
263.27
 21
96.3496
 31
0.0
  0
LINE
  8
0
 62
     0
 10
263.27
 20
96.3496
 30
0.0
 11
261.545
 21
96.3496
 31
0.0
  0
LINE
  8
0
 62
     0
 10
261.545
 20
96.3496
 30
0.0
 11
261.545
 21
97.2675
 31
0.0
  0
LINE
  8
0
 62
     0
 10
261.545
 20
97.2675
 30
0.0
 11
258.244
 21
97.2675
 31
0.0
  0
LINE
  8
0
 62
     0
 10
258.244
 20
97.2675
 30
0.0
 11
258.244
 21
96.3496
 31
0.0
  0
LINE
  8
0
 62
     0
 10
258.244
 20
96.3496
 30
0.0
 11
256.521
 21
96.3496
 31
0.0
  0
LINE
  8
0
 62
     0
 10
256.521
 20
96.3496
 30
0.0
 11
256.521
 21
93.1196
 31
0.0
  0
LINE
  8
0
 62
     0
 10
256.521
 20
93.1196
 30
0.0
 11
255.695
 21
93.1196
 31
0.0
  0
LINE
  8
0
 62
     0
 10
255.695
 20
93.1196
 30
0.0
 11
255.695
 21
90.3182
 31
0.0
  0
LINE
  8
0
 62
     0
 10
255.695
 20
90.3182
 30
0.0
 11
256.521
 21
90.3182
 31
0.0
  0
LINE
  8
0
 62
     0
 10
256.521
 20
90.3182
 30
0.0
 11
256.521
 21
84.0493
 31
0.0
  0
LINE
  8
0
 62
     0
 10
256.521
 20
84.0493
 30
0.0
 11
258.244
 21
84.0493
 31
0.0
  0
LINE
  8
0
 62
     0
 10
258.244
 20
84.0493
 30
0.0
 11
258.244
 21
83.0682
 31
0.0
  0
LINE
  8
0
 62
     0
 10
258.244
 20
83.0682
 30
0.0
 11
261.545
 21
83.0682
 31
0.0
  0
LINE
  8
0
 62
     0
 10
261.545
 20
83.0682
 30
0.0
 11
261.545
 21
84.0493
 31
0.0
  0
LINE
  8
0
 62
     0
 10
261.545
 20
84.0493
 30
0.0
 11
263.27
 21
84.0493
 31
0.0
  0
LINE
  8
0
 62
     0
 10
263.27
 20
84.0493
 30
0.0
 11
263.27
 21
88.5183
 31
0.0
  0
LINE
  8
0
 62
     0
 10
263.27
 20
88.5183
 30
0.0
 11
264.794
 21
88.5183
 31
0.0
  0
LINE
  8
0
 62
     0
 10
264.794
 20
88.5183
 30
0.0
 11
264.794
 21
87.9189
 31
0.0
  0
LINE
  8
0
 62
     0
 10
264.794
 20
87.9189
 30
0.0
 11
263.995
 21
87.9189
 31
0.0
  0
LINE
  8
0
 62
     0
 10
263.995
 20
87.9189
 30
0.0
 11
263.995
 21
84.8184
 31
0.0
  0
LINE
  8
0
 62
     0
 10
263.995
 20
84.8184
 30
0.0
 11
264.794
 21
84.8184
 31
0.0
  0
LINE
  8
0
 62
     0
 10
264.794
 20
84.8184
 30
0.0
 11
264.794
 21
83.8179
 31
0.0
  0
LINE
  8
0
 62
     0
 10
264.794
 20
83.8179
 30
0.0
 11
278.795
 21
83.8179
 31
0.0
  0
LINE
  8
0
 62
     0
 10
278.795
 20
83.8179
 30
0.0
 11
278.795
 21
84.8184
 31
0.0
  0
LINE
  8
0
 62
     0
 10
278.795
 20
84.8184
 30
0.0
 11
279.594
 21
84.8184
 31
0.0
  0
LINE
  8
0
 62
     0
 10
279.594
 20
84.8184
 30
0.0
 11
279.594
 21
87.9189
 31
0.0
  0
LINE
  8
0
 62
     0
 10
279.594
 20
87.9189
 30
0.0
 11
278.795
 21
87.9189
 31
0.0
  0
LINE
  8
0
 62
     0
 10
278.795
 20
87.9189
 30
0.0
 11
278.795
 21
88.5183
 31
0.0
  0
LINE
  8
0
 62
     0
 10
278.795
 20
88.5183
 30
0.0
 11
280.319
 21
88.5183
 31
0.0
  0
LINE
  8
0
 62
     0
 10
280.319
 20
88.5183
 30
0.0
 11
280.319
 21
84.0493
 31
0.0
  0
LINE
  8
0
 62
     0
 10
280.319
 20
84.0493
 30
0.0
 11
282.044
 21
84.0493
 31
0.0
  0
LINE
  8
0
 62
     0
 10
282.044
 20
84.0493
 30
0.0
 11
282.044
 21
83.0682
 31
0.0
  0
LINE
  8
0
 62
     0
 10
282.044
 20
83.0682
 30
0.0
 11
285.345
 21
83.0682
 31
0.0
  0
LINE
  8
0
 62
     0
 10
285.345
 20
83.0682
 30
0.0
 11
285.345
 21
84.0493
 31
0.0
  0
LINE
  8
0
 62
     0
 10
285.345
 20
84.0493
 30
0.0
 11
287.07
 21
84.0493
 31
0.0
  0
LINE
  8
0
 62
     0
 10
287.07
 20
84.0493
 30
0.0
 11
287.07
 21
90.3182
 31
0.0
  0
LINE
  8
0
 62
     0
 10
287.07
 20
90.3182
 30
0.0
 11
287.894
 21
90.3182
 31
0.0
  0
LINE
  8
0
 62
     0
 10
287.894
 20
90.3182
 30
0.0
 11
287.894
 21
93.1196
 31
0.0
  0
LINE
  8
0
 62
     0
 10
287.894
 20
93.1196
 30
0.0
 11
287.07
 21
93.1196
 31
0.0
  0
LINE
  8
0
 62
     0
 10
287.07
 20
93.1196
 30
0.0
 11
287.07
 21
96.3496
 31
0.0
  0
LINE
  8
0
 62
     0
 10
287.07
 20
96.3496
 30
0.0
 11
285.345
 21
96.3496
 31
0.0
  0
LINE
  8
0
 62
     0
 10
285.345
 20
96.3496
 30
0.0
 11
285.345
 21
97.2675
 31
0.0
  0
LINE
  8
0
 62
     0
 10
285.345
 20
97.2675
 30
0.0
 11
282.044
 21
97.2675
 31
0.0
  0
LINE
  8
0
 62
     0
 10
282.044
 20
97.2675
 30
0.0
 11
282.044
 21
96.3496
 31
0.0
  0
LINE
  8
0
 62
     0
 10
282.044
 20
96.3496
 30
0.0
 11
280.319
 21
96.3496
 31
0.0
  0
LINE
  8
0
 62
     0
 10
280.319
 20
96.3496
 30
0.0
 11
280.319
 21
93.1196
 31
0.0
  0
LINE
  8
0
 62
     0
 10
280.319
 20
93.1196
 30
0.0
 11
278.795
 21
93.1196
 31
0.0
  0
LINE
  8
0
 62
     0
 10
278.795
 20
93.1196
 30
0.0
 11
278.795
 21
93.7175
 31
0.0
  0
LINE
  8
0
 62
     0
 10
278.795
 20
93.7175
 30
0.0
 11
279.594
 21
93.7175
 31
0.0
  0
LINE
  8
0
 62
     0
 10
279.594
 20
93.7175
 30
0.0
 11
279.594
 21
96.8195
 31
0.0
  0
LINE
  8
0
 62
     0
 10
279.594
 20
96.8195
 30
0.0
 11
278.795
 21
96.8195
 31
0.0
  0
LINE
  8
0
 62
     0
 10
278.795
 20
96.8195
 30
0.0
 11
278.795
 21
97.8186
 31
0.0
  0
LINE
  8
0
 62
     0
 10
278.795
 20
97.8186
 30
0.0
 11
264.794
 21
97.8186
 31
0.0
  0
LINE
  8
0
 62
     0
 10
7.61919
 20
97.8186
 30
0.0
 11
7.61919
 21
96.8195
 31
0.0
  0
LINE
  8
0
 62
     0
 10
7.61919
 20
96.8195
 30
0.0
 11
6.81852
 21
96.8195
 31
0.0
  0
LINE
  8
0
 62
     0
 10
6.81852
 20
96.8195
 30
0.0
 11
6.81852
 21
93.7175
 31
0.0
  0
LINE
  8
0
 62
     0
 10
6.81852
 20
93.7175
 30
0.0
 11
7.61919
 21
93.7175
 31
0.0
  0
LINE
  8
0
 62
     0
 10
7.61919
 20
93.7175
 30
0.0
 11
7.61919
 21
87.9189
 31
0.0
  0
LINE
  8
0
 62
     0
 10
7.61919
 20
87.9189
 30
0.0
 11
6.81852
 21
87.9189
 31
0.0
  0
LINE
  8
0
 62
     0
 10
6.81852
 20
87.9189
 30
0.0
 11
6.81852
 21
84.8184
 31
0.0
  0
LINE
  8
0
 62
     0
 10
6.81852
 20
84.8184
 30
0.0
 11
7.61919
 21
84.8184
 31
0.0
  0
LINE
  8
0
 62
     0
 10
7.61919
 20
84.8184
 30
0.0
 11
7.61919
 21
83.8179
 31
0.0
  0
LINE
  8
0
 62
     0
 10
7.61919
 20
83.8179
 30
0.0
 11
21.6201
 21
83.8179
 31
0.0
  0
LINE
  8
0
 62
     0
 10
21.6201
 20
83.8179
 30
0.0
 11
21.6201
 21
84.8184
 31
0.0
  0
LINE
  8
0
 62
     0
 10
21.6201
 20
84.8184
 30
0.0
 11
22.4193
 21
84.8184
 31
0.0
  0
LINE
  8
0
 62
     0
 10
22.4193
 20
84.8184
 30
0.0
 11
22.4193
 21
87.9189
 31
0.0
  0
LINE
  8
0
 62
     0
 10
22.4193
 20
87.9189
 30
0.0
 11
21.6201
 21
87.9189
 31
0.0
  0
LINE
  8
0
 62
     0
 10
21.6201
 20
87.9189
 30
0.0
 11
21.6201
 21
93.7175
 31
0.0
  0
LINE
  8
0
 62
     0
 10
21.6201
 20
93.7175
 30
0.0
 11
22.4193
 21
93.7175
 31
0.0
  0
LINE
  8
0
 62
     0
 10
22.4193
 20
93.7175
 30
0.0
 11
22.4193
 21
96.8195
 31
0.0
  0
LINE
  8
0
 62
     0
 10
22.4193
 20
96.8195
 30
0.0
 11
21.6201
 21
96.8195
 31
0.0
  0
LINE
  8
0
 62
     0
 10
21.6201
 20
96.8195
 30
0.0
 11
21.6201
 21
97.8186
 31
0.0
  0
LINE
  8
0
 62
     0
 10
21.6201
 20
97.8186
 30
0.0
 11
7.61919
 21
97.8186
 31
0.0
  0
LINE
  8
0
 62
     0
 10
26.6692
 20
97.8186
 30
0.0
 11
26.6692
 21
96.8195
 31
0.0
  0
LINE
  8
0
 62
     0
 10
26.6692
 20
96.8195
 30
0.0
 11
25.8699
 21
96.8195
 31
0.0
  0
LINE
  8
0
 62
     0
 10
25.8699
 20
96.8195
 30
0.0
 11
25.8699
 21
93.7175
 31
0.0
  0
LINE
  8
0
 62
     0
 10
25.8699
 20
93.7175
 30
0.0
 11
26.6692
 21
93.7175
 31
0.0
  0
LINE
  8
0
 62
     0
 10
26.6692
 20
93.7175
 30
0.0
 11
26.6692
 21
87.9189
 31
0.0
  0
LINE
  8
0
 62
     0
 10
26.6692
 20
87.9189
 30
0.0
 11
25.8699
 21
87.9189
 31
0.0
  0
LINE
  8
0
 62
     0
 10
25.8699
 20
87.9189
 30
0.0
 11
25.8699
 21
84.8184
 31
0.0
  0
LINE
  8
0
 62
     0
 10
25.8699
 20
84.8184
 30
0.0
 11
26.6692
 21
84.8184
 31
0.0
  0
LINE
  8
0
 62
     0
 10
26.6692
 20
84.8184
 30
0.0
 11
26.6692
 21
83.8179
 31
0.0
  0
LINE
  8
0
 62
     0
 10
26.6692
 20
83.8179
 30
0.0
 11
40.67
 21
83.8179
 31
0.0
  0
LINE
  8
0
 62
     0
 10
40.67
 20
83.8179
 30
0.0
 11
40.67
 21
84.8184
 31
0.0
  0
LINE
  8
0
 62
     0
 10
40.67
 20
84.8184
 30
0.0
 11
41.4694
 21
84.8184
 31
0.0
  0
LINE
  8
0
 62
     0
 10
41.4694
 20
84.8184
 30
0.0
 11
41.4694
 21
87.9189
 31
0.0
  0
LINE
  8
0
 62
     0
 10
41.4694
 20
87.9189
 30
0.0
 11
40.67
 21
87.9189
 31
0.0
  0
LINE
  8
0
 62
     0
 10
40.67
 20
87.9189
 30
0.0
 11
40.67
 21
93.7175
 31
0.0
  0
LINE
  8
0
 62
     0
 10
40.67
 20
93.7175
 30
0.0
 11
41.4694
 21
93.7175
 31
0.0
  0
LINE
  8
0
 62
     0
 10
41.4694
 20
93.7175
 30
0.0
 11
41.4694
 21
96.8195
 31
0.0
  0
LINE
  8
0
 62
     0
 10
41.4694
 20
96.8195
 30
0.0
 11
40.67
 21
96.8195
 31
0.0
  0
LINE
  8
0
 62
     0
 10
40.67
 20
96.8195
 30
0.0
 11
40.67
 21
97.8186
 31
0.0
  0
LINE
  8
0
 62
     0
 10
40.67
 20
97.8186
 30
0.0
 11
26.6692
 21
97.8186
 31
0.0
  0
LINE
  8
0
 62
     0
 10
45.7193
 20
97.8186
 30
0.0
 11
45.7193
 21
96.8195
 31
0.0
  0
LINE
  8
0
 62
     0
 10
45.7193
 20
96.8195
 30
0.0
 11
44.9199
 21
96.8195
 31
0.0
  0
LINE
  8
0
 62
     0
 10
44.9199
 20
96.8195
 30
0.0
 11
44.9199
 21
93.7175
 31
0.0
  0
LINE
  8
0
 62
     0
 10
44.9199
 20
93.7175
 30
0.0
 11
45.7193
 21
93.7175
 31
0.0
  0
LINE
  8
0
 62
     0
 10
45.7193
 20
93.7175
 30
0.0
 11
45.7193
 21
87.9189
 31
0.0
  0
LINE
  8
0
 62
     0
 10
45.7193
 20
87.9189
 30
0.0
 11
44.9199
 21
87.9189
 31
0.0
  0
LINE
  8
0
 62
     0
 10
44.9199
 20
87.9189
 30
0.0
 11
44.9199
 21
84.8184
 31
0.0
  0
LINE
  8
0
 62
     0
 10
44.9199
 20
84.8184
 30
0.0
 11
45.7193
 21
84.8184
 31
0.0
  0
LINE
  8
0
 62
     0
 10
45.7193
 20
84.8184
 30
0.0
 11
45.7193
 21
83.8179
 31
0.0
  0
LINE
  8
0
 62
     0
 10
45.7193
 20
83.8179
 30
0.0
 11
59.72
 21
83.8179
 31
0.0
  0
LINE
  8
0
 62
     0
 10
59.72
 20
83.8179
 30
0.0
 11
59.72
 21
84.8184
 31
0.0
  0
LINE
  8
0
 62
     0
 10
59.72
 20
84.8184
 30
0.0
 11
60.5194
 21
84.8184
 31
0.0
  0
LINE
  8
0
 62
     0
 10
60.5194
 20
84.8184
 30
0.0
 11
60.5194
 21
87.9189
 31
0.0
  0
LINE
  8
0
 62
     0
 10
60.5194
 20
87.9189
 30
0.0
 11
59.72
 21
87.9189
 31
0.0
  0
LINE
  8
0
 62
     0
 10
59.72
 20
87.9189
 30
0.0
 11
59.72
 21
93.7175
 31
0.0
  0
LINE
  8
0
 62
     0
 10
59.72
 20
93.7175
 30
0.0
 11
60.5194
 21
93.7175
 31
0.0
  0
LINE
  8
0
 62
     0
 10
60.5194
 20
93.7175
 30
0.0
 11
60.5194
 21
96.8195
 31
0.0
  0
LINE
  8
0
 62
     0
 10
60.5194
 20
96.8195
 30
0.0
 11
59.72
 21
96.8195
 31
0.0
  0
LINE
  8
0
 62
     0
 10
59.72
 20
96.8195
 30
0.0
 11
59.72
 21
97.8186
 31
0.0
  0
LINE
  8
0
 62
     0
 10
59.72
 20
97.8186
 30
0.0
 11
45.7193
 21
97.8186
 31
0.0
  0
LINE
  8
0
 62
     0
 10
64.7693
 20
97.8186
 30
0.0
 11
64.7693
 21
96.8195
 31
0.0
  0
LINE
  8
0
 62
     0
 10
64.7693
 20
96.8195
 30
0.0
 11
63.9699
 21
96.8195
 31
0.0
  0
LINE
  8
0
 62
     0
 10
63.9699
 20
96.8195
 30
0.0
 11
63.9699
 21
93.7175
 31
0.0
  0
LINE
  8
0
 62
     0
 10
63.9699
 20
93.7175
 30
0.0
 11
64.7693
 21
93.7175
 31
0.0
  0
LINE
  8
0
 62
     0
 10
64.7693
 20
93.7175
 30
0.0
 11
64.7693
 21
87.9189
 31
0.0
  0
LINE
  8
0
 62
     0
 10
64.7693
 20
87.9189
 30
0.0
 11
63.9699
 21
87.9189
 31
0.0
  0
LINE
  8
0
 62
     0
 10
63.9699
 20
87.9189
 30
0.0
 11
63.9699
 21
84.8184
 31
0.0
  0
LINE
  8
0
 62
     0
 10
63.9699
 20
84.8184
 30
0.0
 11
64.7693
 21
84.8184
 31
0.0
  0
LINE
  8
0
 62
     0
 10
64.7693
 20
84.8184
 30
0.0
 11
64.7693
 21
83.8179
 31
0.0
  0
LINE
  8
0
 62
     0
 10
64.7693
 20
83.8179
 30
0.0
 11
78.77
 21
83.8179
 31
0.0
  0
LINE
  8
0
 62
     0
 10
78.77
 20
83.8179
 30
0.0
 11
78.77
 21
84.8184
 31
0.0
  0
LINE
  8
0
 62
     0
 10
78.77
 20
84.8184
 30
0.0
 11
79.5694
 21
84.8184
 31
0.0
  0
LINE
  8
0
 62
     0
 10
79.5694
 20
84.8184
 30
0.0
 11
79.5694
 21
87.9189
 31
0.0
  0
LINE
  8
0
 62
     0
 10
79.5694
 20
87.9189
 30
0.0
 11
78.77
 21
87.9189
 31
0.0
  0
LINE
  8
0
 62
     0
 10
78.77
 20
87.9189
 30
0.0
 11
78.77
 21
93.7175
 31
0.0
  0
LINE
  8
0
 62
     0
 10
78.77
 20
93.7175
 30
0.0
 11
79.5694
 21
93.7175
 31
0.0
  0
LINE
  8
0
 62
     0
 10
79.5694
 20
93.7175
 30
0.0
 11
79.5694
 21
96.8195
 31
0.0
  0
LINE
  8
0
 62
     0
 10
79.5694
 20
96.8195
 30
0.0
 11
78.77
 21
96.8195
 31
0.0
  0
LINE
  8
0
 62
     0
 10
78.77
 20
96.8195
 30
0.0
 11
78.77
 21
97.8186
 31
0.0
  0
LINE
  8
0
 62
     0
 10
78.77
 20
97.8186
 30
0.0
 11
64.7693
 21
97.8186
 31
0.0
  0
LINE
  8
0
 62
     0
 10
83.8193
 20
97.8186
 30
0.0
 11
83.8193
 21
96.8195
 31
0.0
  0
LINE
  8
0
 62
     0
 10
83.8193
 20
96.8195
 30
0.0
 11
83.0199
 21
96.8195
 31
0.0
  0
LINE
  8
0
 62
     0
 10
83.0199
 20
96.8195
 30
0.0
 11
83.0199
 21
93.7175
 31
0.0
  0
LINE
  8
0
 62
     0
 10
83.0199
 20
93.7175
 30
0.0
 11
83.8193
 21
93.7175
 31
0.0
  0
LINE
  8
0
 62
     0
 10
83.8193
 20
93.7175
 30
0.0
 11
83.8193
 21
87.9189
 31
0.0
  0
LINE
  8
0
 62
     0
 10
83.8193
 20
87.9189
 30
0.0
 11
83.0199
 21
87.9189
 31
0.0
  0
LINE
  8
0
 62
     0
 10
83.0199
 20
87.9189
 30
0.0
 11
83.0199
 21
84.8184
 31
0.0
  0
LINE
  8
0
 62
     0
 10
83.0199
 20
84.8184
 30
0.0
 11
83.8193
 21
84.8184
 31
0.0
  0
LINE
  8
0
 62
     0
 10
83.8193
 20
84.8184
 30
0.0
 11
83.8193
 21
83.8179
 31
0.0
  0
LINE
  8
0
 62
     0
 10
83.8193
 20
83.8179
 30
0.0
 11
97.82
 21
83.8179
 31
0.0
  0
LINE
  8
0
 62
     0
 10
97.82
 20
83.8179
 30
0.0
 11
97.82
 21
84.8184
 31
0.0
  0
LINE
  8
0
 62
     0
 10
97.82
 20
84.8184
 30
0.0
 11
98.6194
 21
84.8184
 31
0.0
  0
LINE
  8
0
 62
     0
 10
98.6194
 20
84.8184
 30
0.0
 11
98.6194
 21
87.9189
 31
0.0
  0
LINE
  8
0
 62
     0
 10
98.6194
 20
87.9189
 30
0.0
 11
97.82
 21
87.9189
 31
0.0
  0
LINE
  8
0
 62
     0
 10
97.82
 20
87.9189
 30
0.0
 11
97.82
 21
93.7175
 31
0.0
  0
LINE
  8
0
 62
     0
 10
97.82
 20
93.7175
 30
0.0
 11
98.6194
 21
93.7175
 31
0.0
  0
LINE
  8
0
 62
     0
 10
98.6194
 20
93.7175
 30
0.0
 11
98.6194
 21
96.8195
 31
0.0
  0
LINE
  8
0
 62
     0
 10
98.6194
 20
96.8195
 30
0.0
 11
97.82
 21
96.8195
 31
0.0
  0
LINE
  8
0
 62
     0
 10
97.82
 20
96.8195
 30
0.0
 11
97.82
 21
97.8186
 31
0.0
  0
LINE
  8
0
 62
     0
 10
97.82
 20
97.8186
 30
0.0
 11
83.8193
 21
97.8186
 31
0.0
  0
LINE
  8
0
 62
     0
 10
102.869
 20
97.8186
 30
0.0
 11
102.869
 21
96.8195
 31
0.0
  0
LINE
  8
0
 62
     0
 10
102.869
 20
96.8195
 30
0.0
 11
102.07
 21
96.8195
 31
0.0
  0
LINE
  8
0
 62
     0
 10
102.07
 20
96.8195
 30
0.0
 11
102.07
 21
93.7175
 31
0.0
  0
LINE
  8
0
 62
     0
 10
102.07
 20
93.7175
 30
0.0
 11
102.869
 21
93.7175
 31
0.0
  0
LINE
  8
0
 62
     0
 10
102.869
 20
93.7175
 30
0.0
 11
102.869
 21
87.9189
 31
0.0
  0
LINE
  8
0
 62
     0
 10
102.869
 20
87.9189
 30
0.0
 11
102.07
 21
87.9189
 31
0.0
  0
LINE
  8
0
 62
     0
 10
102.07
 20
87.9189
 30
0.0
 11
102.07
 21
84.8184
 31
0.0
  0
LINE
  8
0
 62
     0
 10
102.07
 20
84.8184
 30
0.0
 11
102.869
 21
84.8184
 31
0.0
  0
LINE
  8
0
 62
     0
 10
102.869
 20
84.8184
 30
0.0
 11
102.869
 21
83.8179
 31
0.0
  0
LINE
  8
0
 62
     0
 10
102.869
 20
83.8179
 30
0.0
 11
116.869
 21
83.8179
 31
0.0
  0
LINE
  8
0
 62
     0
 10
116.869
 20
83.8179
 30
0.0
 11
116.869
 21
84.8184
 31
0.0
  0
LINE
  8
0
 62
     0
 10
116.869
 20
84.8184
 30
0.0
 11
117.669
 21
84.8184
 31
0.0
  0
LINE
  8
0
 62
     0
 10
117.669
 20
84.8184
 30
0.0
 11
117.669
 21
87.9189
 31
0.0
  0
LINE
  8
0
 62
     0
 10
117.669
 20
87.9189
 30
0.0
 11
116.869
 21
87.9189
 31
0.0
  0
LINE
  8
0
 62
     0
 10
116.869
 20
87.9189
 30
0.0
 11
116.869
 21
93.7175
 31
0.0
  0
LINE
  8
0
 62
     0
 10
116.869
 20
93.7175
 30
0.0
 11
117.669
 21
93.7175
 31
0.0
  0
LINE
  8
0
 62
     0
 10
117.669
 20
93.7175
 30
0.0
 11
117.669
 21
96.8195
 31
0.0
  0
LINE
  8
0
 62
     0
 10
117.669
 20
96.8195
 30
0.0
 11
116.869
 21
96.8195
 31
0.0
  0
LINE
  8
0
 62
     0
 10
116.869
 20
96.8195
 30
0.0
 11
116.869
 21
97.8186
 31
0.0
  0
LINE
  8
0
 62
     0
 10
116.869
 20
97.8186
 30
0.0
 11
102.869
 21
97.8186
 31
0.0
  0
LINE
  8
0
 62
     0
 10
121.919
 20
97.8186
 30
0.0
 11
121.919
 21
96.8195
 31
0.0
  0
LINE
  8
0
 62
     0
 10
121.919
 20
96.8195
 30
0.0
 11
121.118
 21
96.8195
 31
0.0
  0
LINE
  8
0
 62
     0
 10
121.118
 20
96.8195
 30
0.0
 11
121.118
 21
93.7175
 31
0.0
  0
LINE
  8
0
 62
     0
 10
121.118
 20
93.7175
 30
0.0
 11
121.919
 21
93.7175
 31
0.0
  0
LINE
  8
0
 62
     0
 10
121.919
 20
93.7175
 30
0.0
 11
121.919
 21
87.9189
 31
0.0
  0
LINE
  8
0
 62
     0
 10
121.919
 20
87.9189
 30
0.0
 11
121.118
 21
87.9189
 31
0.0
  0
LINE
  8
0
 62
     0
 10
121.118
 20
87.9189
 30
0.0
 11
121.118
 21
84.8184
 31
0.0
  0
LINE
  8
0
 62
     0
 10
121.118
 20
84.8184
 30
0.0
 11
121.919
 21
84.8184
 31
0.0
  0
LINE
  8
0
 62
     0
 10
121.919
 20
84.8184
 30
0.0
 11
121.919
 21
83.8179
 31
0.0
  0
LINE
  8
0
 62
     0
 10
121.919
 20
83.8179
 30
0.0
 11
135.92
 21
83.8179
 31
0.0
  0
LINE
  8
0
 62
     0
 10
135.92
 20
83.8179
 30
0.0
 11
135.92
 21
84.8184
 31
0.0
  0
LINE
  8
0
 62
     0
 10
135.92
 20
84.8184
 30
0.0
 11
136.719
 21
84.8184
 31
0.0
  0
LINE
  8
0
 62
     0
 10
136.719
 20
84.8184
 30
0.0
 11
136.719
 21
87.9189
 31
0.0
  0
LINE
  8
0
 62
     0
 10
136.719
 20
87.9189
 30
0.0
 11
135.92
 21
87.9189
 31
0.0
  0
LINE
  8
0
 62
     0
 10
135.92
 20
87.9189
 30
0.0
 11
135.92
 21
93.7175
 31
0.0
  0
LINE
  8
0
 62
     0
 10
135.92
 20
93.7175
 30
0.0
 11
136.719
 21
93.7175
 31
0.0
  0
LINE
  8
0
 62
     0
 10
136.719
 20
93.7175
 30
0.0
 11
136.719
 21
96.8195
 31
0.0
  0
LINE
  8
0
 62
     0
 10
136.719
 20
96.8195
 30
0.0
 11
135.92
 21
96.8195
 31
0.0
  0
LINE
  8
0
 62
     0
 10
135.92
 20
96.8195
 30
0.0
 11
135.92
 21
97.8186
 31
0.0
  0
LINE
  8
0
 62
     0
 10
135.92
 20
97.8186
 30
0.0
 11
121.919
 21
97.8186
 31
0.0
  0
LINE
  8
0
 62
     0
 10
140.969
 20
97.8186
 30
0.0
 11
140.969
 21
96.8195
 31
0.0
  0
LINE
  8
0
 62
     0
 10
140.969
 20
96.8195
 30
0.0
 11
140.17
 21
96.8195
 31
0.0
  0
LINE
  8
0
 62
     0
 10
140.17
 20
96.8195
 30
0.0
 11
140.17
 21
93.7175
 31
0.0
  0
LINE
  8
0
 62
     0
 10
140.17
 20
93.7175
 30
0.0
 11
140.969
 21
93.7175
 31
0.0
  0
LINE
  8
0
 62
     0
 10
140.969
 20
93.7175
 30
0.0
 11
140.969
 21
87.9189
 31
0.0
  0
LINE
  8
0
 62
     0
 10
140.969
 20
87.9189
 30
0.0
 11
140.17
 21
87.9189
 31
0.0
  0
LINE
  8
0
 62
     0
 10
140.17
 20
87.9189
 30
0.0
 11
140.17
 21
84.8184
 31
0.0
  0
LINE
  8
0
 62
     0
 10
140.17
 20
84.8184
 30
0.0
 11
140.969
 21
84.8184
 31
0.0
  0
LINE
  8
0
 62
     0
 10
140.969
 20
84.8184
 30
0.0
 11
140.969
 21
83.8179
 31
0.0
  0
LINE
  8
0
 62
     0
 10
140.969
 20
83.8179
 30
0.0
 11
154.97
 21
83.8179
 31
0.0
  0
LINE
  8
0
 62
     0
 10
154.97
 20
83.8179
 30
0.0
 11
154.97
 21
84.8184
 31
0.0
  0
LINE
  8
0
 62
     0
 10
154.97
 20
84.8184
 30
0.0
 11
155.769
 21
84.8184
 31
0.0
  0
LINE
  8
0
 62
     0
 10
155.769
 20
84.8184
 30
0.0
 11
155.769
 21
87.9189
 31
0.0
  0
LINE
  8
0
 62
     0
 10
155.769
 20
87.9189
 30
0.0
 11
154.97
 21
87.9189
 31
0.0
  0
LINE
  8
0
 62
     0
 10
154.97
 20
87.9189
 30
0.0
 11
154.97
 21
93.7175
 31
0.0
  0
LINE
  8
0
 62
     0
 10
154.97
 20
93.7175
 30
0.0
 11
155.769
 21
93.7175
 31
0.0
  0
LINE
  8
0
 62
     0
 10
155.769
 20
93.7175
 30
0.0
 11
155.769
 21
96.8195
 31
0.0
  0
LINE
  8
0
 62
     0
 10
155.769
 20
96.8195
 30
0.0
 11
154.97
 21
96.8195
 31
0.0
  0
LINE
  8
0
 62
     0
 10
154.97
 20
96.8195
 30
0.0
 11
154.97
 21
97.8186
 31
0.0
  0
LINE
  8
0
 62
     0
 10
154.97
 20
97.8186
 30
0.0
 11
140.969
 21
97.8186
 31
0.0
  0
LINE
  8
0
 62
     0
 10
160.019
 20
97.8186
 30
0.0
 11
160.019
 21
96.8195
 31
0.0
  0
LINE
  8
0
 62
     0
 10
160.019
 20
96.8195
 30
0.0
 11
159.22
 21
96.8195
 31
0.0
  0
LINE
  8
0
 62
     0
 10
159.22
 20
96.8195
 30
0.0
 11
159.22
 21
93.7175
 31
0.0
  0
LINE
  8
0
 62
     0
 10
159.22
 20
93.7175
 30
0.0
 11
160.019
 21
93.7175
 31
0.0
  0
LINE
  8
0
 62
     0
 10
160.019
 20
93.7175
 30
0.0
 11
160.019
 21
87.9189
 31
0.0
  0
LINE
  8
0
 62
     0
 10
160.019
 20
87.9189
 30
0.0
 11
159.22
 21
87.9189
 31
0.0
  0
LINE
  8
0
 62
     0
 10
159.22
 20
87.9189
 30
0.0
 11
159.22
 21
84.8184
 31
0.0
  0
LINE
  8
0
 62
     0
 10
159.22
 20
84.8184
 30
0.0
 11
160.019
 21
84.8184
 31
0.0
  0
LINE
  8
0
 62
     0
 10
160.019
 20
84.8184
 30
0.0
 11
160.019
 21
83.8179
 31
0.0
  0
LINE
  8
0
 62
     0
 10
160.019
 20
83.8179
 30
0.0
 11
174.02
 21
83.8179
 31
0.0
  0
LINE
  8
0
 62
     0
 10
174.02
 20
83.8179
 30
0.0
 11
174.02
 21
84.8184
 31
0.0
  0
LINE
  8
0
 62
     0
 10
174.02
 20
84.8184
 30
0.0
 11
174.819
 21
84.8184
 31
0.0
  0
LINE
  8
0
 62
     0
 10
174.819
 20
84.8184
 30
0.0
 11
174.819
 21
87.9189
 31
0.0
  0
LINE
  8
0
 62
     0
 10
174.819
 20
87.9189
 30
0.0
 11
174.02
 21
87.9189
 31
0.0
  0
LINE
  8
0
 62
     0
 10
174.02
 20
87.9189
 30
0.0
 11
174.02
 21
93.7175
 31
0.0
  0
LINE
  8
0
 62
     0
 10
174.02
 20
93.7175
 30
0.0
 11
174.819
 21
93.7175
 31
0.0
  0
LINE
  8
0
 62
     0
 10
174.819
 20
93.7175
 30
0.0
 11
174.819
 21
96.8195
 31
0.0
  0
LINE
  8
0
 62
     0
 10
174.819
 20
96.8195
 30
0.0
 11
174.02
 21
96.8195
 31
0.0
  0
LINE
  8
0
 62
     0
 10
174.02
 20
96.8195
 30
0.0
 11
174.02
 21
97.8186
 31
0.0
  0
LINE
  8
0
 62
     0
 10
174.02
 20
97.8186
 30
0.0
 11
160.019
 21
97.8186
 31
0.0
  0
LINE
  8
0
 62
     0
 10
179.069
 20
97.8186
 30
0.0
 11
179.069
 21
96.8195
 31
0.0
  0
LINE
  8
0
 62
     0
 10
179.069
 20
96.8195
 30
0.0
 11
178.27
 21
96.8195
 31
0.0
  0
LINE
  8
0
 62
     0
 10
178.27
 20
96.8195
 30
0.0
 11
178.27
 21
93.7175
 31
0.0
  0
LINE
  8
0
 62
     0
 10
178.27
 20
93.7175
 30
0.0
 11
179.069
 21
93.7175
 31
0.0
  0
LINE
  8
0
 62
     0
 10
179.069
 20
93.7175
 30
0.0
 11
179.069
 21
87.9189
 31
0.0
  0
LINE
  8
0
 62
     0
 10
179.069
 20
87.9189
 30
0.0
 11
178.27
 21
87.9189
 31
0.0
  0
LINE
  8
0
 62
     0
 10
178.27
 20
87.9189
 30
0.0
 11
178.27
 21
84.8184
 31
0.0
  0
LINE
  8
0
 62
     0
 10
178.27
 20
84.8184
 30
0.0
 11
179.069
 21
84.8184
 31
0.0
  0
LINE
  8
0
 62
     0
 10
179.069
 20
84.8184
 30
0.0
 11
179.069
 21
83.8179
 31
0.0
  0
LINE
  8
0
 62
     0
 10
179.069
 20
83.8179
 30
0.0
 11
193.07
 21
83.8179
 31
0.0
  0
LINE
  8
0
 62
     0
 10
193.07
 20
83.8179
 30
0.0
 11
193.07
 21
84.8184
 31
0.0
  0
LINE
  8
0
 62
     0
 10
193.07
 20
84.8184
 30
0.0
 11
193.869
 21
84.8184
 31
0.0
  0
LINE
  8
0
 62
     0
 10
193.869
 20
84.8184
 30
0.0
 11
193.869
 21
87.9189
 31
0.0
  0
LINE
  8
0
 62
     0
 10
193.869
 20
87.9189
 30
0.0
 11
193.07
 21
87.9189
 31
0.0
  0
LINE
  8
0
 62
     0
 10
193.07
 20
87.9189
 30
0.0
 11
193.07
 21
93.7175
 31
0.0
  0
LINE
  8
0
 62
     0
 10
193.07
 20
93.7175
 30
0.0
 11
193.869
 21
93.7175
 31
0.0
  0
LINE
  8
0
 62
     0
 10
193.869
 20
93.7175
 30
0.0
 11
193.869
 21
96.8195
 31
0.0
  0
LINE
  8
0
 62
     0
 10
193.869
 20
96.8195
 30
0.0
 11
193.07
 21
96.8195
 31
0.0
  0
LINE
  8
0
 62
     0
 10
193.07
 20
96.8195
 30
0.0
 11
193.07
 21
97.8186
 31
0.0
  0
LINE
  8
0
 62
     0
 10
193.07
 20
97.8186
 30
0.0
 11
179.069
 21
97.8186
 31
0.0
  0
LINE
  8
0
 62
     0
 10
198.119
 20
97.8186
 30
0.0
 11
198.119
 21
96.8195
 31
0.0
  0
LINE
  8
0
 62
     0
 10
198.119
 20
96.8195
 30
0.0
 11
197.32
 21
96.8195
 31
0.0
  0
LINE
  8
0
 62
     0
 10
197.32
 20
96.8195
 30
0.0
 11
197.32
 21
93.7175
 31
0.0
  0
LINE
  8
0
 62
     0
 10
197.32
 20
93.7175
 30
0.0
 11
198.119
 21
93.7175
 31
0.0
  0
LINE
  8
0
 62
     0
 10
198.119
 20
93.7175
 30
0.0
 11
198.119
 21
87.9189
 31
0.0
  0
LINE
  8
0
 62
     0
 10
198.119
 20
87.9189
 30
0.0
 11
197.32
 21
87.9189
 31
0.0
  0
LINE
  8
0
 62
     0
 10
197.32
 20
87.9189
 30
0.0
 11
197.32
 21
84.8184
 31
0.0
  0
LINE
  8
0
 62
     0
 10
197.32
 20
84.8184
 30
0.0
 11
198.119
 21
84.8184
 31
0.0
  0
LINE
  8
0
 62
     0
 10
198.119
 20
84.8184
 30
0.0
 11
198.119
 21
83.8179
 31
0.0
  0
LINE
  8
0
 62
     0
 10
198.119
 20
83.8179
 30
0.0
 11
212.12
 21
83.8179
 31
0.0
  0
LINE
  8
0
 62
     0
 10
212.12
 20
83.8179
 30
0.0
 11
212.12
 21
84.8184
 31
0.0
  0
LINE
  8
0
 62
     0
 10
212.12
 20
84.8184
 30
0.0
 11
212.919
 21
84.8184
 31
0.0
  0
LINE
  8
0
 62
     0
 10
212.919
 20
84.8184
 30
0.0
 11
212.919
 21
87.9189
 31
0.0
  0
LINE
  8
0
 62
     0
 10
212.919
 20
87.9189
 30
0.0
 11
212.12
 21
87.9189
 31
0.0
  0
LINE
  8
0
 62
     0
 10
212.12
 20
87.9189
 30
0.0
 11
212.12
 21
93.7175
 31
0.0
  0
LINE
  8
0
 62
     0
 10
212.12
 20
93.7175
 30
0.0
 11
212.919
 21
93.7175
 31
0.0
  0
LINE
  8
0
 62
     0
 10
212.919
 20
93.7175
 30
0.0
 11
212.919
 21
96.8195
 31
0.0
  0
LINE
  8
0
 62
     0
 10
212.919
 20
96.8195
 30
0.0
 11
212.12
 21
96.8195
 31
0.0
  0
LINE
  8
0
 62
     0
 10
212.12
 20
96.8195
 30
0.0
 11
212.12
 21
97.8186
 31
0.0
  0
LINE
  8
0
 62
     0
 10
212.12
 20
97.8186
 30
0.0
 11
198.119
 21
97.8186
 31
0.0
  0
LINE
  8
0
 62
     0
 10
217.169
 20
97.8186
 30
0.0
 11
217.169
 21
96.8195
 31
0.0
  0
LINE
  8
0
 62
     0
 10
217.169
 20
96.8195
 30
0.0
 11
216.37
 21
96.8195
 31
0.0
  0
LINE
  8
0
 62
     0
 10
216.37
 20
96.8195
 30
0.0
 11
216.37
 21
93.7175
 31
0.0
  0
LINE
  8
0
 62
     0
 10
216.37
 20
93.7175
 30
0.0
 11
217.169
 21
93.7175
 31
0.0
  0
LINE
  8
0
 62
     0
 10
217.169
 20
93.7175
 30
0.0
 11
217.169
 21
87.9189
 31
0.0
  0
LINE
  8
0
 62
     0
 10
217.169
 20
87.9189
 30
0.0
 11
216.37
 21
87.9189
 31
0.0
  0
LINE
  8
0
 62
     0
 10
216.37
 20
87.9189
 30
0.0
 11
216.37
 21
84.8184
 31
0.0
  0
LINE
  8
0
 62
     0
 10
216.37
 20
84.8184
 30
0.0
 11
217.169
 21
84.8184
 31
0.0
  0
LINE
  8
0
 62
     0
 10
217.169
 20
84.8184
 30
0.0
 11
217.169
 21
83.8179
 31
0.0
  0
LINE
  8
0
 62
     0
 10
217.169
 20
83.8179
 30
0.0
 11
231.17
 21
83.8179
 31
0.0
  0
LINE
  8
0
 62
     0
 10
231.17
 20
83.8179
 30
0.0
 11
231.17
 21
84.8184
 31
0.0
  0
LINE
  8
0
 62
     0
 10
231.17
 20
84.8184
 30
0.0
 11
231.969
 21
84.8184
 31
0.0
  0
LINE
  8
0
 62
     0
 10
231.969
 20
84.8184
 30
0.0
 11
231.969
 21
87.9189
 31
0.0
  0
LINE
  8
0
 62
     0
 10
231.969
 20
87.9189
 30
0.0
 11
231.17
 21
87.9189
 31
0.0
  0
LINE
  8
0
 62
     0
 10
231.17
 20
87.9189
 30
0.0
 11
231.17
 21
93.7175
 31
0.0
  0
LINE
  8
0
 62
     0
 10
231.17
 20
93.7175
 30
0.0
 11
231.969
 21
93.7175
 31
0.0
  0
LINE
  8
0
 62
     0
 10
231.969
 20
93.7175
 30
0.0
 11
231.969
 21
96.8195
 31
0.0
  0
LINE
  8
0
 62
     0
 10
231.969
 20
96.8195
 30
0.0
 11
231.17
 21
96.8195
 31
0.0
  0
LINE
  8
0
 62
     0
 10
231.17
 20
96.8195
 30
0.0
 11
231.17
 21
97.8186
 31
0.0
  0
LINE
  8
0
 62
     0
 10
231.17
 20
97.8186
 30
0.0
 11
217.169
 21
97.8186
 31
0.0
  0
LINE
  8
0
 62
     0
 10
236.219
 20
97.8186
 30
0.0
 11
236.219
 21
96.8195
 31
0.0
  0
LINE
  8
0
 62
     0
 10
236.219
 20
96.8195
 30
0.0
 11
235.42
 21
96.8195
 31
0.0
  0
LINE
  8
0
 62
     0
 10
235.42
 20
96.8195
 30
0.0
 11
235.42
 21
93.7175
 31
0.0
  0
LINE
  8
0
 62
     0
 10
235.42
 20
93.7175
 30
0.0
 11
236.219
 21
93.7175
 31
0.0
  0
LINE
  8
0
 62
     0
 10
236.219
 20
93.7175
 30
0.0
 11
236.219
 21
87.9189
 31
0.0
  0
LINE
  8
0
 62
     0
 10
236.219
 20
87.9189
 30
0.0
 11
235.42
 21
87.9189
 31
0.0
  0
LINE
  8
0
 62
     0
 10
235.42
 20
87.9189
 30
0.0
 11
235.42
 21
84.8184
 31
0.0
  0
LINE
  8
0
 62
     0
 10
235.42
 20
84.8184
 30
0.0
 11
236.219
 21
84.8184
 31
0.0
  0
LINE
  8
0
 62
     0
 10
236.219
 20
84.8184
 30
0.0
 11
236.219
 21
83.8179
 31
0.0
  0
LINE
  8
0
 62
     0
 10
236.219
 20
83.8179
 30
0.0
 11
250.22
 21
83.8179
 31
0.0
  0
LINE
  8
0
 62
     0
 10
250.22
 20
83.8179
 30
0.0
 11
250.22
 21
84.8184
 31
0.0
  0
LINE
  8
0
 62
     0
 10
250.22
 20
84.8184
 30
0.0
 11
251.019
 21
84.8184
 31
0.0
  0
LINE
  8
0
 62
     0
 10
251.019
 20
84.8184
 30
0.0
 11
251.019
 21
87.9189
 31
0.0
  0
LINE
  8
0
 62
     0
 10
251.019
 20
87.9189
 30
0.0
 11
250.22
 21
87.9189
 31
0.0
  0
LINE
  8
0
 62
     0
 10
250.22
 20
87.9189
 30
0.0
 11
250.22
 21
93.7175
 31
0.0
  0
LINE
  8
0
 62
     0
 10
250.22
 20
93.7175
 30
0.0
 11
251.019
 21
93.7175
 31
0.0
  0
LINE
  8
0
 62
     0
 10
251.019
 20
93.7175
 30
0.0
 11
251.019
 21
96.8195
 31
0.0
  0
LINE
  8
0
 62
     0
 10
251.019
 20
96.8195
 30
0.0
 11
250.22
 21
96.8195
 31
0.0
  0
LINE
  8
0
 62
     0
 10
250.22
 20
96.8195
 30
0.0
 11
250.22
 21
97.8186
 31
0.0
  0
LINE
  8
0
 62
     0
 10
250.22
 20
97.8186
 30
0.0
 11
236.219
 21
97.8186
 31
0.0
  0
LINE
  8
0
 62
     0
 10
302.894
 20
97.8186
 30
0.0
 11
302.894
 21
96.8195
 31
0.0
  0
LINE
  8
0
 62
     0
 10
302.894
 20
96.8195
 30
0.0
 11
302.095
 21
96.8195
 31
0.0
  0
LINE
  8
0
 62
     0
 10
302.095
 20
96.8195
 30
0.0
 11
302.095
 21
93.7175
 31
0.0
  0
LINE
  8
0
 62
     0
 10
302.095
 20
93.7175
 30
0.0
 11
302.894
 21
93.7175
 31
0.0
  0
LINE
  8
0
 62
     0
 10
302.894
 20
93.7175
 30
0.0
 11
302.894
 21
87.9189
 31
0.0
  0
LINE
  8
0
 62
     0
 10
302.894
 20
87.9189
 30
0.0
 11
302.095
 21
87.9189
 31
0.0
  0
LINE
  8
0
 62
     0
 10
302.095
 20
87.9189
 30
0.0
 11
302.095
 21
84.8184
 31
0.0
  0
LINE
  8
0
 62
     0
 10
302.095
 20
84.8184
 30
0.0
 11
302.894
 21
84.8184
 31
0.0
  0
LINE
  8
0
 62
     0
 10
302.894
 20
84.8184
 30
0.0
 11
302.894
 21
83.8179
 31
0.0
  0
LINE
  8
0
 62
     0
 10
302.894
 20
83.8179
 30
0.0
 11
316.895
 21
83.8179
 31
0.0
  0
LINE
  8
0
 62
     0
 10
316.895
 20
83.8179
 30
0.0
 11
316.895
 21
84.8184
 31
0.0
  0
LINE
  8
0
 62
     0
 10
316.895
 20
84.8184
 30
0.0
 11
317.694
 21
84.8184
 31
0.0
  0
LINE
  8
0
 62
     0
 10
317.694
 20
84.8184
 30
0.0
 11
317.694
 21
87.9189
 31
0.0
  0
LINE
  8
0
 62
     0
 10
317.694
 20
87.9189
 30
0.0
 11
316.895
 21
87.9189
 31
0.0
  0
LINE
  8
0
 62
     0
 10
316.895
 20
87.9189
 30
0.0
 11
316.895
 21
93.7175
 31
0.0
  0
LINE
  8
0
 62
     0
 10
316.895
 20
93.7175
 30
0.0
 11
317.694
 21
93.7175
 31
0.0
  0
LINE
  8
0
 62
     0
 10
317.694
 20
93.7175
 30
0.0
 11
317.694
 21
96.8195
 31
0.0
  0
LINE
  8
0
 62
     0
 10
317.694
 20
96.8195
 30
0.0
 11
316.895
 21
96.8195
 31
0.0
  0
LINE
  8
0
 62
     0
 10
316.895
 20
96.8195
 30
0.0
 11
316.895
 21
97.8186
 31
0.0
  0
LINE
  8
0
 62
     0
 10
316.895
 20
97.8186
 30
0.0
 11
302.894
 21
97.8186
 31
0.0
  0
LINE
  8
0
 62
     0
 10
321.944
 20
97.8186
 30
0.0
 11
321.944
 21
96.8195
 31
0.0
  0
LINE
  8
0
 62
     0
 10
321.944
 20
96.8195
 30
0.0
 11
321.145
 21
96.8195
 31
0.0
  0
LINE
  8
0
 62
     0
 10
321.145
 20
96.8195
 30
0.0
 11
321.145
 21
93.7175
 31
0.0
  0
LINE
  8
0
 62
     0
 10
321.145
 20
93.7175
 30
0.0
 11
321.944
 21
93.7175
 31
0.0
  0
LINE
  8
0
 62
     0
 10
321.944
 20
93.7175
 30
0.0
 11
321.944
 21
87.9189
 31
0.0
  0
LINE
  8
0
 62
     0
 10
321.944
 20
87.9189
 30
0.0
 11
321.145
 21
87.9189
 31
0.0
  0
LINE
  8
0
 62
     0
 10
321.145
 20
87.9189
 30
0.0
 11
321.145
 21
84.8184
 31
0.0
  0
LINE
  8
0
 62
     0
 10
321.145
 20
84.8184
 30
0.0
 11
321.944
 21
84.8184
 31
0.0
  0
LINE
  8
0
 62
     0
 10
321.944
 20
84.8184
 30
0.0
 11
321.944
 21
83.8179
 31
0.0
  0
LINE
  8
0
 62
     0
 10
321.944
 20
83.8179
 30
0.0
 11
335.945
 21
83.8179
 31
0.0
  0
LINE
  8
0
 62
     0
 10
335.945
 20
83.8179
 30
0.0
 11
335.945
 21
84.8184
 31
0.0
  0
LINE
  8
0
 62
     0
 10
335.945
 20
84.8184
 30
0.0
 11
336.744
 21
84.8184
 31
0.0
  0
LINE
  8
0
 62
     0
 10
336.744
 20
84.8184
 30
0.0
 11
336.744
 21
87.9189
 31
0.0
  0
LINE
  8
0
 62
     0
 10
336.744
 20
87.9189
 30
0.0
 11
335.945
 21
87.9189
 31
0.0
  0
LINE
  8
0
 62
     0
 10
335.945
 20
87.9189
 30
0.0
 11
335.945
 21
93.7175
 31
0.0
  0
LINE
  8
0
 62
     0
 10
335.945
 20
93.7175
 30
0.0
 11
336.744
 21
93.7175
 31
0.0
  0
LINE
  8
0
 62
     0
 10
336.744
 20
93.7175
 30
0.0
 11
336.744
 21
96.8195
 31
0.0
  0
LINE
  8
0
 62
     0
 10
336.744
 20
96.8195
 30
0.0
 11
335.945
 21
96.8195
 31
0.0
  0
LINE
  8
0
 62
     0
 10
335.945
 20
96.8195
 30
0.0
 11
335.945
 21
97.8186
 31
0.0
  0
LINE
  8
0
 62
     0
 10
335.945
 20
97.8186
 30
0.0
 11
321.944
 21
97.8186
 31
0.0
  0
ENDSEC
  0
EOF
